<mxfile host="Electron" agent="Mozilla/5.0 (Macintosh; Intel Mac OS X 10_15_7) AppleWebKit/537.36 (KHTML, like Gecko) draw.io/24.7.8 Chrome/128.0.6613.36 Electron/32.0.1 Safari/537.36" version="24.7.8">
  <diagram name="Page-1" id="MyJPJEg2gp_7bAEJJgTo">
    <mxGraphModel dx="2043" dy="755" grid="1" gridSize="10" guides="1" tooltips="1" connect="1" arrows="1" fold="1" page="1" pageScale="1" pageWidth="850" pageHeight="1100" math="0" shadow="0">
      <root>
        <mxCell id="0" />
        <mxCell id="1" parent="0" />
        <mxCell id="ja9hxogwG1e2657q7_xn-1" value="" style="shape=image;verticalLabelPosition=bottom;labelBackgroundColor=default;verticalAlign=top;aspect=fixed;imageAspect=0;image=data:image/png,iVBORw0KGgoAAAANSUhEUgAAAfQAAAEsCAYAAAA1u0HIAAAAOXRFWHRTb2Z0d2FyZQBNYXRwbG90bGliIHZlcnNpb24zLjkuMiwgaHR0cHM6Ly9tYXRwbG90bGliLm9yZy8hTgPZAAAACXBIWXMAAA9hAAAPYQGoP6dpAABweUlEQVR4nO3dd1gTWRcH4F9CCaGDgCAqiAVsIIoFe+9dsWDftazdta+9d/3W7trr2nvvyqqoKKio2BBBpIP0npzvD5ZZI6BIC+B5nyePZObOvWeGyMnM3LlXREQExhhjjBVpYmUHwBhjjLHc44TOGGOMFQOc0BljjLFigBM6Y4wxVgxwQmeMMcaKAU7ojDHGWDHACZ0xxhgrBjihM8YYY8UAJ3TGGGOsGOCEzhhjjBUDnNAZY4yxYoATOmOMMVYMcEJnjDHGigFO6IwxxlgxwAmdMcYYKwY4oTPGGGPFACd0xhhjrBjghM4YY4wVA5zQGWOMsWKAEzpjjDFWDHBCZ4wxxooBTuiMMcZYMcAJnTHGGCsGOKEzxhhjxQAndMYYY6wY4ITOGGOMFQOc0BljjLFigBM6Y4wxVgxwQmeMMcaKAU7ojDHGWDHACZ1lEBMTg6lTp6J169YwNjaGSCTCvHnzMi0rEomyfNnY2Ajl3rx5g8mTJ6NWrVrQ19eHoaEhGjRogGPHjmVa7+XLl9GgQQNIpVLo6emhU6dOePHiRYZy586dw8CBA1G9enWoqalBJBJlWt+HDx+yjPPQoUM/fpD+NXjw4CzrPXfuXI7rzWkslpaWeVrn7t27IRKJ8OjRo0zXd+zYMc/bzK558+Zl+H1bWlpi8ODBSokHACIjI2FkZKTwmUqPMywsLMvtbt26BZFIlOX/BwD4/Pkz9PX1cerUqbwMmRUjqsoOgBU+4eHh2Lp1K+zs7NC1a1ds3749y7Kurq4Zlj148AATJkxAt27dhGVXrlzB+fPnMWDAANSuXRupqak4fPgwnJycMH/+fMyZM0coe/r0aXTr1g1dunTB8ePHERUVhfnz56NRo0Zwc3ND+fLlhbInT57E/fv3YW9vD4lEgsePH39z38aOHQtnZ2eFZRUrVvzuMfkWqVSKGzduZFj+5RcaVjBOnjwJXV1dpbU/f/58lCpVCr17987zug0MDPD7779jypQpaN++PdTV1fO8DVa0cUJnGVhYWODz58/CWcW3Enq9evUyLPvrr78gEonw66+/Csv69OmD0aNHK5xRtWvXDmFhYVi+fDmmTZsGiUQCAJg2bRqqV6+OEydOCOXr16+PSpUqYc6cOThw4IBQx7Zt2yAWp11oGjNmzHcTetmyZTONOTfEYnGe18lyxt7eXmltR0RE4K+//sL//ve/LK8U5dZvv/2GRYsW4dixYxm+mDLGl9xZBumXjHMiJiYGR48eRZMmTVChQgVhuZGRUaZ11qlTB/Hx8YiIiACQdnXg9evXaNeunUJ5CwsLVKtWDadOnYJMJhOWpyfzwkwul2PFihWwsbGBRCKBiYkJBg4cCH9//wxld+7cCTs7O2hoaMDQ0BDdunWDl5dXhnK7d++GtbU1JBIJKleujL179xbErmQLEWHTpk2oUaMGpFIpDAwM0LNnT7x//16h3NWrV9GlSxeULl0aGhoaqFChAkaMGJHppenz58+jRo0akEgkKFeuHFatWpVp219fck+/lH3w4EHMnDkTpUqVgq6uLlq2bInXr19niHvJkiWwsLCAhoYGHBwccPXqVTRt2hRNmzb97n7v3r0bqamp+XJ2nq5kyZJo1aoVtmzZkm9tsKKr8P81ZEXKoUOHEBcXh6FDh2ar/M2bN2FsbAwTExMAQHJyMgAIZ+tfkkgkiI+Ph7e3d47jW7ZsGdTV1aGpqYmGDRvizJkzGcqkJ4Gs+g1kJjU1VeH15ZeOkSNHYtq0aWjVqhXOnDmDhQsX4tKlS6hfv75C8lq6dCl+/fVXVK1aFSdOnMDatWvx7NkzODo64u3bt0K53bt3Y8iQIahcuTKOHz+OWbNmYeHChZle9s8rMpkswz6mpqaCiDKUHTFiBCZMmICWLVvi1KlT2LRpE168eIH69esjODhYKOft7Q1HR0ds3rwZV65cwZw5c/DgwQM0bNgQKSkpQrnr16+jS5cu0NHRwaFDh7By5UocOXIEu3btynb8M2bMgK+vL7Zv346tW7fi7du36NSpk8LvaebMmZg5cybatm2L06dP47fffsPQoUPx5s2bbLVx/vx52NvbQ19fP9tx5UTTpk1x9+5dREZG5ms7rAgixr4hNDSUANDcuXOzVb5u3bqkr69PCQkJ3y27bds2AkBr164VlslkMjI0NKQWLVoolP38+TPp6OgQALp3716m9Y0ePZqy+kgHBATQsGHD6MiRI/TPP//QgQMHqF69egSAtm3bplD21q1bpKKiQvPnz//uPgwaNIgAZHg1aNCAiIi8vLwIAI0aNUphuwcPHhAAmjFjhrB/UqmU2rdvr1DOz8+PJBIJOTs7C8enVKlSVLNmTZLL5UK5Dx8+kJqaGllYWHw35h+xa9euTPfvy9eXbbq6uhIAWr16tUI9Hz9+JKlUSlOnTs20HblcTikpKeTr60sA6PTp08K6unXrUqlSpRQ+U9HR0WRoaJjh921hYUGDBg0S3t+8eZMAZDiuR44cIQDk6upKREQREREkkUiod+/eCuXS96dJkybfPVaampr022+/ZVg+d+5cAkChoaFZbpse59GjR7/bztWrVwkAXbx48btl2c+Fz9BZnnnx4gUePHiAfv36QUND45tlL168iNGjR6Nnz54YO3assFwsFmP06NG4fv06Fi5ciJCQELx79w79+/dHfHy8UOZHmZmZYevWrXByckLDhg3h7OwMFxcX2NvbY/r06UhNTRXKNmnSBKmpqQod9b5FKpXCzc1N4bVjxw4AaVcgAGToeV2nTh1UrlwZ169fB5DWuTAhISFDuTJlyqB58+ZCudevXyMgIADOzs4ZbknUr1//u7HK5fIsryR8y969ezPso5ubGxo2bKhQ7ty5cxCJROjfv79CO6amprCzs8OtW7eEsiEhIfjtt99QpkwZqKqqQk1NDRYWFgAg3GaIi4uDm5sbunfvrvCZ0tHRQadOnbIVOwB07txZ4b2trS0AwNfXFwBw//59JCUloVevXgrl6tWrl61e/JGRkYiPjxeuNOWn9DY+ffqU722xooU7xbE8k57Evne5/fLly+jevTtatWqFAwcOZLi3PmfOHMTGxmLRokVCUu3QoQOGDBmC7du3w9zcPE/iVVNTQ+/evTF9+nS8ffsWlStXzlE9YrEYDg4Oma4LDw8HkPaF4mulSpUSEsr3yl29elWhnKmpaYZypqam+PDhwzdjXbBgAebPny+8t7Cw+O42AFC5cuVM91FPTw8fP34U3gcHB4OIULJkyUzrsbKyApD2xaJ169YICAjA7NmzUb16dWhpaUEul6NevXpISEgAkPaollwuz3J/s6tEiRIK79Nv6aS3k35cM4s7q335Uno93/simxfS20hvk7F0nNBZnkhOTsa+fftQq1Yt1KhRI8tyly9fRteuXdGkSRMcP34800dvVFVVsWbNGixYsAA+Pj4wMjKCmZkZ2rRpg3LlyqF06dJ5Fjf9ew84vzrXpSeSwMDADHEHBATAyMgoQ7mvZVYuKCgoQ7nMln1t+PDh6Nixo/A+s74KuZHe+fGff/7Jsh8EADx//hxPnz7F7t27MWjQIGH9u3fvFMobGBhAJBLleH+zK/24fnmP/8t2vneWnr59eufO/JTeRvpngrF0fMmd5YkzZ84gLCxM4VG1r125cgVdu3ZFw4YNcerUqe8mE21tbVSvXh1mZmZwd3fH9evXMX78+DyLOSUlBYcPH4aRkZFCj/y81Lx5cwDA/v37FZa7ubnBy8sLLVq0AAA4OjpCKpVmKOfv748bN24I5aytrWFmZoaDBw8qdEjz9fXFvXv3vhtPqVKl4ODgILyqV6+eq/37WseOHUFE+PTpk0I7X7eXflXm68/AX3/9pfBeS0sLderUwYkTJ5CYmCgsj4mJwdmzZ/Ms7rp160IikeDw4cMKy+/fvy9cRfkWdXV1WFlZ5arDZnalPy1QpUqVfG+LFS18hs4ydfHiRcTFxSEmJgYA8PLlS2EUq/bt20NTU1Oh/I4dOyCVSrN8NvbOnTvo2rUrTE1NMWPGDDx58kRhfZUqVYQBQW7dugU3NzfY2tqCiPDw4UMsX74cbdu2xZgxYxS28/X1hZubGwAIf0zT47S0tBQuE0+cOBEpKSlo0KABTE1N8fHjR6xfvx5PnjzBrl27oKKiItR5+/ZttGjRAnPmzMn2ffSsWFtbY/jw4Vi/fj3EYjHatWuHDx8+YPbs2ShTpgx+//13AIC+vj5mz56NGTNmYODAgejbty/Cw8Mxf/58aGhoYO7cuQDSriQsXLgQQ4cORbdu3TBs2DBERkZi3rx5P3QJOr80aNAAw4cPx5AhQ/Do0SM0btwYWlpaCAwMxJ07d1C9enWMHDkSNjY2KF++PKZPnw4igqGhIc6ePSvcWvjSwoUL0bZtW7Rq1QqTJk2CTCbD8uXLoaWllWdnxIaGhpg4cSKWLl0KAwMDdOvWDf7+/pg/fz7MzMyydQWnadOmuHjxYpbrz549Cx0dnQzLe/bsKfx8//79TLdt0qQJjI2NhTIlSpTI8y9jrBhQZo88VnhZWFhk2avZx8dHoayfnx+JxWIaOHBglvWl9/TN6nXz5k2h7N27d6lu3bqkq6tLEomEqlWrRqtWraLk5OQM9X6rF/aXvZ137NhBderUIUNDQ1JVVSUDAwNq06YNXb58OUOd6T2Os9Ozf9CgQaSlpfXNMjKZjJYvX06VKlUiNTU1MjIyov79+9PHjx8zlN2+fTvZ2tqSuro66enpUZcuXejFixeZlqtYsSKpq6tTpUqVaOfOnTRo0KB86+Xu5uaW6foOHTpk2ubOnTupbt26pKWlRVKplMqXL08DBw6kR48eCWVevnxJrVq1Ih0dHTIwMCAnJyfy8/PL9NifOXNGOC5ly5alZcuWCZ+pL2XVy/3r3uM+Pj4EgHbt2iUsk8vltGjRIipdujSpq6uTra0tnTt3juzs7Khbt27fPVbXr18nAPTw4UOF5d/77H8Z5/f+f8jlcrKwsKCxY8d+Nx728xERZfIgKWOMMfj4+MDGxgZz587FjBkzvlve1tYWDRo0wObNm/MlnuvXr6N169Z48eIFDy3MMuCEzhhjAJ4+fYqDBw+ifv360NXVxevXr7FixQpER0fj+fPn2ertfunSJXTr1g1v377N086b6Zo1a4YKFSpg27ZteV43K/r4HjpjjCGtA96jR4+wY8cOREZGQk9PD02bNsXixYuzlcwBoG3btli5ciV8fHzyPKF//vwZTZo0wahRo/K0XlZ88Bk6Y4wxVgzwY2uMMcZYMcAJnTHGGCsGOKEzxhhjxUCuOsUlJiYK010yxhhjLHfU1dVzPCdAjhN6YmIiypUrl6fjKTPGGGM/M1NTU/j4+OQoqec4oScnJyMoKAgfP34UhuxkjLFvefjwIVq1agVXV1eljEXu7e2N1atX48CBAzA3N8eAAQMwYMCATB8xc3V1Rdu2bYX3ly9fRqVKlRAYGIjKlStne0KfPXv24NSpUxCLxQgNDYW1tTUWLVqU7UfhfsTixYuxYsUKAED16tVx/fp1JCUlYd68edixYwdmzJiBEiVKYNKkSWjYsKEwnPLXMx5+6caNG+jWrRsAYPbs2Zg0adI3y+cVmUyGJk2aID4+Ht7e3pBKpZgxYwYaNGiAGjVqKAzXXFxER0ejTJkySE5OztlZek6HmIuKiiIAFBUVlTdj1jHGij0PD49Mh0fNa0lJSeTl5UWPHj0iuVxOnz9/pk6dOhEAKlGiBG3evJlSU1O/WUdqairt37+fnJycMgzFevnyZYqMjKS7d+/S48ePMx2WmIgoOTmZSpQoQQCoc+fONGzYMAJAtra2+bHbRETUtWtXIc7evXuTtrY2aWlp0aZNm0gul9OSJUtIJBJRQEBAtutUVVUV6szvYWdlMhm9fPmSZs6cSQBoz549BIA2btyYr+0WBrnNq5zQGWMFJiIigkQiUb78cY6Li6MLFy5QxYoVFZJv9erVqXbt2qSvr087d+6k+Pj4H6pXLpdT48aNydramoYOHZrpWOvlypWjkJAQhe38/f3JwcGBANDixYtJLpfT2bNnCQC1bt2aXr9+nZe7L+jcubMQV8mSJWnBggXk7+9PRES3bt0iExMTcnZ2/qE6b9++LdR57ty5PI85MTGRLl68SCNGjCAzMzOhrcGDB5OJiQmJxWJ6//59nrdb2HBCZ4wVKb169SJjY2Py8PCgo0ePZvtM8f3797Rjxw6FxCmXy+nFixe0dOlS0tHRIQBkZ2dHu3btovPnz9PFixcVEpFcLqfr16+Tn59fjmJ/+/Yt1axZk5o1a0aNGzemR48e0fr16wkADR06VKFs1apVhbbv3r1Lq1atyvBFYMCAAXTjxg2Sy+U5iiddYmIiHTlyhP766y8CQCNGjKCjR49SdHS0UOb27dskEonI0dGRAgMDf7iNwMBAunXrVq7iJEq78nH48GEaPnw4tWzZkqysrIQrAFZWVvT777/T1atXKSwsjMLDwwkA1apVK9ftFgW5zas89CtjrEB17twZR44cgb29PYC0KWGDg4NhZGSU5TZxcXGwsrICADg4OGDSpEnYv38/3r17h9evX0NFRQW//fYb+vTpg1q1akEqlQIA5HI5gLSpTcViMcqVKwdfX18MHz48w9zr2VGhQgU8fvxYYVm1atXw4MEDbN++Haamphg1ahS2bNmCFy9eAAA2bNiA+vXrw9zcHC9fvoS6ujqqVasGAFi6dCn27duHjh07Yv369bC0tPzhmJKSkjLcby1XrpzCtKwA8PHjR2Gq2p07d6Ju3bpwcHCAnp5ettoxNTXN8RS98fHxWLNmDf7++28EBQXh8+fPqFatGqytrdGjRw+UK1cOjRo1QtWqVYX78wkJCejTpw8AYOrUqTlq96ejrG8SjLGfT0hIiHB2qqamJpxRy2Syb24XGxub6aXuPn360OnTpzP8HYqIiKA7d+7QxYsXadSoUVSyZEmF7Z4/f55lW8HBweTi4vJD+yWXy2nZsmVC/dra2tSqVSs6cODAd7c7fvw4lS5dmqRSKa1Zs+aHz9Yzuw3wxx9/ZCiXmppKK1eupBYtWpCurq5QtlmzZuTh4fFDbWZHbGwseXp60tatW8nc3JzU1NTol19+oYULF2Y5He+XZsyYQaqqqnThwgVKSUmhd+/eUWxsbJ7HWZjwJXfGWKGXlJRE8+fPV7g/Wr58eRo7diwFBwd/c9uHDx9SpUqVCAA1b96cfH196fPnzxQXF6dQ7vPnz7Ru3TqFS90AyMjIiEaMGEHq6uqkqqpKly5dyrItuVxONWrUIAB05swZun37NnXu3DnTOekzc/DgQfrrr78oPDw8W+XTRUdH0/jx4wkATZky5YeS+tixYxX219zcnD5+/PjNbWQyGXl5edH27dupevXqpK2t/c0vOdmRmppKLi4uNGnSJKpQoYJCTE5OTuTt7Z3tuuRyOTVr1izDF5Vff/01VzEWdpzQGWOFyqtXr+jy5ct0/fp1cnd3p6SkJNq7dy8BIENDQ/L19f2h+qpUqUJ6enrk5OREQUFBwvKFCxfS4MGDKSUlhcaPH09isZjEYjH16tWL9uzZQ8+ePSNfX19KTk4WEvrly5e/2dajR4+E5DF9+nTh5zp16nz3KkJeWLt2rdCTPLtJ3dvbW4hz9uzZFBoa+kNtxsTEkJ6eHg0bNuyH4/348SMdOHCABg8eTEZGRgSATE1Nafjw4bRnzx66c+fOD9+vf/z4MTVq1ChDMm/YsCG9fPnyh2MsSjihM8aUKi4ujv744w9q2LAhWVhYZPhD3KpVK+rVqxcBoKVLl1JycjK5u7tnmSDTO7odO3aMFi1apFDXn3/+KZQrXbq0sFxTU5MqVqxInz59ylDfihUrCABt3br1u/vi7u5Oampq1LRpU/r8+TO1atVKaGPx4sU5P0g/YMuWLQSAhg0b9t1H69KdOXOGdHV1f7j3erry5ctTmTJlvvn3PDk5mZ49e0Y7d+6kIUOGkJWVlXBsqlatStOnTydXV9ccf/Fxd3enLl26EACytramU6dOUVhYWI7qKqo4oTPGlGr37t0ZkniFChXIxsYmw/IWLVqQsbExAaCKFSsKl2EjIyPp5cuXtG3bNoVEYWBgQGKxmEqXLk2nT59WOGtNTU2lPn36CGWvX7+eIbatW7cSAJo1a1a29ycpKUloJzExkWxtbQkAHTlyJJdHKvt2795NYrGYnJ2ds3zG/WubN28mkUiUo7PYe/fukYaGBuno6NCQIUNo3bp1tH//ftqwYQMNGzaMHBwcSCKREAASiURka2tLY8eOpWPHjn33lsn3+Pr6Com8QoUKtHfvXkpJSclVnUVVbvNqjudDj46Ohp6eHqKionikOMZ+YkSEO3fu4NatW3jw4AEiIiIglUohFouhoaGBihUrQk1NDZ8/f0ZYWBhOnjwpbFupUiWULFkSrq6uSE1NBQB06dIFo0aNgr29PYyMjL47Ktkff/yBZcuW4dmzZ6hevbqw3NvbG/b29nBycsL27dtzPLrZx48fERQUhNq1a+do+5w6evQonJ2d0bFjRxw5cgRqamrfLJ+UlIRKlSqhRo0aOH369A+39+nTJ2zatAnnz5+Hl5cXkpOToaqqiipVqsDe3l542dnZZbtn/Pe4uLigZ8+e0NDQwKJFi+Ds7AxV1Z/34atc51VlfZNgjP2ctm/frnDW3r59e1q/fj3duHGDLl269MOXbBcuXEgAqEaNGtShQweaOHEiNW3alFRUVMjKyuq7HcQKs3PnzpGqqiqNGDEiW/fUDx8+LFyuz42UlBSKi4vL9iX/H5WYmEh//vknqaqqUtOmTTMMyvOz4kvujLEixdfXl3r06EEDBgyg/fv357q+mzdvklgsptq1a1P79u3JysqK2rVrR5s3by4Wf5/SvwCljzb3LXK5nPr27Uvq6ur04sWLXA9Yk9cePXpEnTp1Ii0tLaHzX3ZvKfwM+JI7Y4wVc3PnzsWCBQtQvXp1dO7cGYsWLcqy7LVr19CqVSsAwMyZM79ZtiBdvHgR3bp1Q6VKldCvXz906dIFNjY2yg6rUMltXv15b1YwxlgRMX/+fFStWhW9e/eGp6cnHj58iL1792Y6cpuNjQ1Kly4Nf39/VK5cWQnRZuTh4YGuXbuibdu2OHLkCCQSibJDKpb4DJ0xxoqI06dPo2vXrgCAyZMnw8nJCVWqVEFqaiqCg4OFM151dXVcv34dDRs2VGK0aeRyORo2bIiYmBg8fvwY6urqyg6p0MptXuWEzhhjRciaNWuwc+dOvHv3DklJSZmWCQ4OhomJSQFHlrk9e/Zg8ODBuHnzJpo2barscAo1TuiMMfYTSkpKwtOnT/Hu3TuoqalBX18fFhYWqFSpkrJDExARSpcujUaNGuHQoUPKDqfQ43vojDH2E5JIJKhTpw7q1Kmj7FCyFBYWhoCAALRu3VrZofwUxMoOgDHGWPFkaGiIcuXKYfz48fj8+bOywyn2OKEzxhjLFyoqKpg+fTpiY2OxZMkSREdHg4jg5eWFo0eP4vLly4iIiFB2mMUGX3JnjDGWb4YOHYqAgAAsX74cmzdvhq6uLgIDAzOUc3R0RLdu3TBw4ECULFlSCZEWfXyGzhhjLN8EBgbC2NgY+/btQ/369TNN5gDg6uqKqVOnwtTUFOfPny/gKIsHPkNnjDGWL3x8fNC+fXu8evVKWKalpYU5c+ZgypQpAICoqCgEBgYiMDAQt2/fxoIFC7BmzRp06NBBWWEXWfzYGmOMsTyXlJQEe3t7JCcnC6PDqampwcLC4psjxcXFxUFFRQUaGhoFGG3hwI+tMcYYK3TOnTsHLy8veHp6olq1atneTktLKx+jKt74HjpjjLE89/79e+jq6v5QMv+ZERECAgJyVQcndMYYY3nu5cuXKF++vLLDKDKGDBmS68l0+JI7Y4yxPHfnzh20a9dO2WEUetHR0QgJCcHBgwdzXRefoTPGGMtTqamp8Pb2hq2trbJDKdRu3boFPT09VKxYEZqamrhx40au6uOEzhhjLE+FhISAiGBmZqbsUAq1unXromzZsgDSZtGrVatWrurjhM4YYyxPubu7A0ChmvmtMIiKioK5uTlEIhE6deqEYcOGwdraGgDg4eGR6/r5HjpjjLE8dfDgQVhbW6NChQrKDqVQeP36NdauXQsdHR2hJ7ufnx/09PSgp6eH//3vfxg5cmSW89tnFyd0xhhjeSYkJAQnTpzAvHnzIBKJlB1OgUhMTMSVK1egqqqKNm3aQEVFRVgXFxcHGxsb4b2ZmRlatmyJbdu2ZRhghxM6Y4yxQmPJkiVQV1fHsGHDlB1KgSAidOrUCdeuXQOQNsnMr7/+iubNm6NcuXIIDQ0VyrZo0UIolx/4HjpjjLE8ERkZiS1btmDSpEkwNDRUdjgF4ubNm7h27RpOnjyJmzdvIiUlBUOHDoWVlRUcHBzg4uKCxYsXAwCCg4PzNRY+Q2eMMZYn3r59i6SkJNStW1fZoRQYX19fAGnJumPHjnBzc0NMTAyuXr2KNWvWYNCgQVBRUYGtrS0WLVqUr7FwQmeMMZYnEhISAAAmJiZKjqRgREdHw9zcHADw22+/QU9PD3369IGOjg66d++Obt26ITQ0FCVKlFC4r55f+JI7Y4yxPBEfHw8AuHfvHpo0aYJly5ZBLpcrOaq85eXlBZFIBJFIBD09PbRp0wYSiQStWrVCq1atFMqKRCKYmJgUSDIHePpUxhhjeSQuLg4NGzbEkydPhGVnz55Fx44dlRdUHkvPfQCwdOlSdOjQATY2NlBTU8uzunOaV/kMnTHGWK4EBQVh48aNWL58OWJiYmBlZYUlS5YAAC5duiSUi4iIwOHDhzF16lS8f/9eWeF+k0wmQ8eOHdGjRw8EBARAJpPh0qVLWL9+PczNzfG///0Py5YtAwCMGjUK1atXz5Nknhf4DJ0xxliOfPr0CStWrMDWrVuRmpoKNTU14T56UlIS2rdvDwMDAxw9ehQA0K1bN5w6dQoAcOXKlQyXqJUpNTUVf/zxB/73v/9BJpMBALS1tWFqaop3795lKC+VShEYGCicreeF3OZV7hTHGGMs28LDw7F8+XJcu3YNT58+hZ6eHmbMmIGxY8dCX18f9+/fh6OjI5ycnODq6oqkpCTY2toiODgYISEhQj06OjpK3IuM5HI5Vq1aJbzv27cvLC0tcevWLcyYMQP9+vUDEeHQoUPQ1tZG7dq18zSZ5wU+Q2eMMZYtoaGhaNSoEYKCgtClSxc0btwYTk5OCjmAiKCjo4O4uLhv1hUQEKD0yVsOHz6McePGQUNDA926dcOIESNw9OhRzJ07Fx4eHqhRo0aBxsNn6IwxxvKdu7s7Bg0ahMjISDx69CjLcdpFIhG8vb3x8uVLxMTEIDIyEtu2bcPLly9x8OBBGBkZKfW+s7e3Ny5evIi3b99i27ZtKFu2LNq1a4c9e/Zg/fr1wn4dP368wBN6bvEZOmOMsSwFBASgZcuW8PLygo2NDU6cOIHKlSsrO6wfFhwcjNmzZ2P79u1QU1NDuXLl4ODggDlz5qBSpUqIiYnB4cOHcf78edSuXRtTpkwp8C8duc2rnNAZY4wJ5HI5bt26hVOnTiEyMhL79u0T1qWkpEBVtWhd2E1MTMTatWuxePFiqKqqYu7cuRg2bBg0NTWVHVoGfMmdMcZYrr148QLHjh3Dnj174OPjA0tLS5QpUwYODg6IjIzE5MmTi0wyJyJs2LAB+/btg5eXFxISEtCrVy/89ttvqFatWqFM5nmBz9AZY+wnlpqaigULFmDx4sXQ1NSEk5MTfvnlFzRo0KDITn966tQpdOvWTXgvFosVRqx78+YNKlasqIzQvqnYn6G7ublBJBLBwcFB2aEwxlix8uHDB/Tr1w8PHjzA/PnzMW3atEIzSEpupD9HDgCVKlVCkyZN0KRJE6xcuRJPnz7Fhw8fCmVCz61Cc4b+4MEDhIeHQyKRwNfXF8+fP8eZM2fg7e0NVVVVpKSk5LoNxhhjaY4cOYLhw4dDX18ff//9N+rXr6/skPIMEeHFixcoUaIEpFIpGjVqhOfPnwvrk5OTC+UXlyJ9hu7t7Y3u3bsjODhYYZ5YkUgEKysreHt7AwBu3LihrBAZY6xYiYuLw7hx47Bz50707t0bW7Zsgb6+vrLDylMikQjVqlUDkDYsbVBQkLBuw4YNhTKZ5wWlJvT79+/j2bNnMDExQYcOHWBnZwcbGxtIpVJcuXIF3t7e2LNnDxo1aqTMMBljrFhwd3dH37594e/vjx07dmDIkCFF9j55dpmamiI0NBTPnj2DnZ0dxowZg4EDBxa6keryglITevfu3dGpUyecO3cOly5dwvnz54V1ZcqUwcKFC9G3b18lRsgYY0WfXC7H2rVrMW3aNFStWhXu7u6wtrZWdlj5Ljk5GStXrsTVq1fx+PFjAMD06dOLZTIHlJzQpVIpzpw5g9jYWABAvXr18OLFC2zYsAGjRo0q9t8cGWMsvyUmJsLZ2RknT57E77//jqVLl0IikSg7rHyRkJCA9+/fo2rVqgCAdu3aCbdsly9fDkdHRzRs2FCZIearQtHLXVtbGwBw+vRpqKqqwsLCQskRMcZY0ZecnIxOnTrhzp07OHXqFLp06aLskPKMXC7H3r17AQC1a9dG1apVhefL+/bti65du8LV1RUA0LBhQ0ydOlVpsRaUQpHQ05UvX17ZITDGWLExefJk3L59G1euXEHTpk2VHU6eOnHiBIYMGSK8nz9/PkxMTBASEoKDBw/i4MGDkEgkuHz5Mlq2bKnESAtOoUrojDHG8kZ0dDQ2b96MBQsWFPlkLpPJ4OrqiooVK6JkyZIA0s7KAcDc3BzOzs6YO3duhqu7oaGhxfZ+eWbEyg6AMcZY3nv16hVSU1PRqlUrZYeSax4eHmjUqBFMTU3Rq1cvREVFCX2sunbtiqVLl2Lv3r3o1asX2rVrBwAoWbIkxOKfK8XxGTpjjBVDZcuWBQD4+/sX6ZE2k5OTERYWJry/evUq2rZti549ewIA/vjjD6ioqGDAgAHKCrHQ+Lm+vjDGWDGSkpKCY8eOQSQSwcLCAomJicI6DQ0NoUxhIpPJFIZm/ZZDhw7B2tpaOOtetGgRrl27hlevXmHy5Mno1asXzM3N8zPcIoUTOmOMFTFEhB07dkBdXR1OTk4AgKSkJIXH0bS0tGBoaIh9+/ZlO4Hmt61bt8LMzAyampro1asXfHx8hHVEhNWrV6Nr1664d+8eHjx4gH79+qFatWpwc3NDVFQUZs6ciVq1asHd3R0HDhzAnj17lLg3hRDlUFRUFAGgqKionFbBGGPsB3l6ehIAhVeHDh0oJiYmQ9lz584RANq/f78SIlXk7e1NAMjAwICWLFlCZcuWJS0tLVq/fj0lJCSQXC4nExMThf2qXbs2paSkKDv0ApPbvMr30BljrJALDQ2Fi4sLrl69iu3btyusmzNnDpYtW4bSpUujdevWsLOzQ0REBB48eICkpCQAQGBgoDLCVmBqago7Ozs8ffoUZ86cwfPnzzFlyhSMHTsWEydOhKOjIwYNGoSVK1eicePGaNeuHYYMGVJk5mAvDArNbGuMMcYU+fv7Y8KECTh+/DiAtLE6BgwYAGtra+zZswf29vZYsmQJ/Pz8sH37dty4cQOvX7+GhoYGGjVqhNjYWJw9exbt2rXDhQsXCjx+IkJMTAwGDhyIS5cuCV8wgLRbBOrq6nj16hWuX7+OY8eO4eHDh2jbti127twJPT29Ao9X2XKbVzmhM8ZYIbRv3z4MHDgQWlpaWLNmDTp06JCjDmCurq4wMjIq8Pm/w8LCYGxsDADQ09PD9OnT8enTJ9jb28PW1rZI97zPL0V6+lTGGGP/SU1NxdWrV7FkyRLcuXMHQNp0p8OGDcvx3BaOjo55GWIG3t7eOHz4MF69egVnZ2e0bdsWAKCpqQkdHR3ExMSgUqVKkEgkGDZsGGxtbfM1np8Zn6EzxlgBIyI8efIEEyZMQKNGjdCyZUscPnwYx48fR2hoKOrUqQNHR0cEBgaiV69e6NGjh7JDVnD48GH873//g0wmg4eHB6RSKUqVKoV3797h5MmT6Ny5MwDg8+fP6NixI/z9/REQEACxWIy7d+/y2XkW+JI70gYeqF69Ot68eYNq1aqhdu3aKFeuHCwsLPDu3Tu4ublBX18fnTp1Qt++fXkWN8ZYgfPz88ONGzdw48YN7Nu3L8N6CwsL9OrVC71790bNmjUL3d+psLAwPHnyBBcvXsSaNWvQtm1bmJmZoUqVKhg9ejTU1dXRq1cvnD59Gk5OTtDS0sKRI0cQExMDIyMj6OnpwdvbG2vXrsW4ceO+255cLv/pRnrjhI60gQqqV68OLy+vDOtKlCgBKysruLm5AQAOHDgAZ2fngg6RMfaTISLcvXsX+/fvx7Vr1+Dt7Q2RSAR7e3tIpVLcvXsXdevWxeDBg2Fvb486deoUuiRORDh//jxOnTqF/fv3C53a7OzsMH36dKirq6NZs2YwMDAAkHZytW7dOiGRd+/eHba2tnjz5g0CAwNRvXp1jBgxQkjURAQXFxesW7cOYWFhkEql+PTpE/z8/JCYmIgePXqgb9++aNasmTArZ3HGCf0LwcHBuHjxIv7880+8e/cOPXr0gFQqxaFDhyAWi+Hs7IwFCxbA0NBQ2aEyxoqphIQErFu3Djt27MDbt29haWmJDh06oEWLFmjSpEmR+vuzc+dO/Prrr98sY21tDS8vrxx9GRk9ejQ2bdoEALC3t8fTp08hl8szLfvy5UtUrlz5h9soSnKdV5X1AHx+io2NpfHjx1OVKlXIysqKJk+eTCEhIcoOizFWzN28eZMqVKhA6urq1L9/f7px4wbJZDJlh5UjDx8+zDCATevWremff/6hyMhIiomJoR07dhAAevjw4Q/XHxERkaF+fDFQzujRo2nMmDHCslWrVuXDXhYuuc2rxeoMnTHGlOHZs2dYtGgRjh49ikaNGmHr1q2wsbFRdljZ4u/vj0OHDiE4OBjly5dHp06dkJCQgAEDBuD+/fsAgHr16uHly5eIjo6Grq4u6tSpA0tLS1y/fh3h4eF48uQJypUr90PtEhHOnTsHAwMDiMViEBFKlCgBIoKNjY1wxp+UlIR3796hcuXKxf6eOl9yZ4wxJUhISMCFCxewZ88enD17FuXKlcPs2bMxaNCgIpF4vL29MWXKFJw+fRoSiQTm5ub48OEDUlNTFcqNHz8ef/75J1JTU/Ho0SNcv34djx8/hp+fH7S1tbF9+3ZUqFBBSXtRvPBz6IwxVkCSkpJw+fJlHD58GGfOnEFsbCzs7e2xe/duODs7Q01NTdkhZsvTp0/Rpk0bSKVSbNq0Cc7OztDR0UFgYCBu3bqFkiVLIj4+HoaGhqhXrx4AQFVVFfXq1RPes8KHz9AZYywbXF1d0blzZ4SFhaFatWro3bs3evXqhUqVKik7tGwjIsyaNQvLli1D9erVcfXqVWE0t5wIDw/Hu3fvUL58eRgZGeVhpD+n3ObVwn9diDHGlEgul+PYsWNo3bo1KleujOfPn8PT0xOzZs0qUsn89evXGD58OJYsWQK5XI4aNWogNjYWQNoTQj86b/qCBQtgZGSEevXqwdjYGCEhIfkRNvsBnNAZYywTKSkp2Lt3L6pXrw4nJyc0adIEFy9eRNWqVZUd2g+JiYnB4MGDYWNjozBT2549e2BlZQWRSARTU1NUqFABzs7OmD9/Pp48efLdej99+qTwnhO68nFCZ4yxr9y/fx8VK1bEoEGDYGVlhbt37+LcuXPQ0tJSdmg/bM6cOdizZw9q164NAJg6dSoiIiKwf/9+AICRkRF2796Nli1b4tOnT5g3bx7s7e1x5cqVb9b7119/4cOHD5g3bx6OHDmCatWq5fu+sG/jhM4YY1/w8vJC586dUbJkSTx58gRnz55F/fr1lR1WjqWP7pY+Wqa3tzcMDAzQr18/eHl54ddff4VIJIJEIkFiYiIAQEdHBydPnoRIJMKECROQVVcrCwsLzJ07F05OTgWzM1/x8fFBQkKCUtoujLhTHGOM/YuI0LhxY/j5+cHV1RWlSpVSdki59uTJE0yePBkAkJiYiFq1aqFly5Zo3bo1SpUqhYiICKGsvb09vLy8hMQOpJ3Bh4SEFLphabds2YKRI0dixYoVmDJlirLDyRP82BpjjOWRCRMm4M6dO7h06VKxSObp07Fev35dWHb37l2sW7cOq1atUkjmAODh4aHw/tGjR6hVq1aBxPqjVq9eDQC4c+dOsUnoucWX3BljDGmzia1btw7Tpk1DmzZtlB1Ort2+fRtqamrYuXMnLCwsFNaVKlUKAQEBmW5nYGCAjRs3CmfzhVX6bZCiMIhPQeEzdMYYA+Du7g4A6NChg5IjyRuRkZEAgFevXiksd3JywtOnT7FmzRphma6uLm7fvo1KlSpBU1OzIMPMsa1bt6Jv375o2LChskMpNPirDWPsp7dnzx507twZDg4OQm/wos7Kykr42c7ODgDQq1cvSKVSvHnzRlg3a9YshIeHo0aNGkUmmQOARCJB27Ztoa2tjRs3buDo0aPKDknpOKEzxoqk1NRUyGSyXNfz7NkzjBw5Ek5OTnBxcYGGhkYeRKdcb9++ha2trfC+UaNGAIAjR45g7969CmW7du0KVdWie7H2119/RYsWLdCrVy9cvnxZ2eEoFSd0xlihJ5fL8ebNG+zatQvly5eHSCSCmppapjOayeVy/PPPPzhy5AhOnz6d5SNXAODp6Qk7OzskJSVh48aNkEql+bkb+cbd3R0WFhaoUKECOnTogNatWyusDw4OznLbr++vFzUvXrwQfn727JkSI1G+ovu1jDFWbEVHRwszeh07dgznzp3LtFy7du1w/PhxdOjQAZ8/f8amTZtw6tQpPH/+XCjz+vXrLIdoPXnyJIC0jlU6Ojp5vyMFIDw8HO3atUOJEiUQExODCxcuZCjTvXt3HD58GAcOHMCAAQNQo0YN2NnZoXTp0ihRooQSos479+7dw/Xr1/H8+XOMHDlS2eEoFT+HzhhTqrCwMDx9+hRv3rzBmzdv4O7ujnv37mWYxvNbdHV1kZSUJAyiAgDly5eHt7c3Dh48iD59+mS63du3b4VkP3/+fPTp06dQjs8eHx+Phw8fwt3dHfb29pBIJNixYweCgoJw/fp1SKVSeHl5wcjICN7e3gpXLho0aIA7d+4oMfrij4jw+fNnqKioQE9PL8f18HPojLEiw8/PD2fOnMGrV68QHBwMHx8fuLu7g4igqqoKKysrVK1aFevWrUOzZs1gaWkJFRUV+Pv7K0xNKpPJ4OvrC0NDQ6ipqeHo0aPYvHkzAgIC0KZNG5iZmSE0NBTa2tooU6YMPnz4gLi4uAzjsCcnJ0NPTw9mZmZYuXIl5s6dixo1aqBPnz7o3bs3LC0t8+U4pKSk4MiRI3B1dUVERAQWL16McuXKgYggk8kgk8lw8+ZNBAYGwtvbG6tWrUJSUhIkEonCl5ZmzZohOTkZ69evx4MHD/Do0SNYWloiNDQUkZGR0NPTy9Vsauz7rl27hqFDh8LX11d436JFC6XEwmfojLF85+Pjg3nz5mHfvn1QU1NDpUqVULJkSZQqVQrNmjVDgwYNUK5cuVzNJz5lyhSsWrUK9erVw/3797Fx40aMGjUKMpkMhoaGiI6ORqVKldC4cWNoamoiLi4OsbGxiIuLQ1xcHKpVq4YaNWrg8uXLOHv2LBISElC3bl00aNAANWvWRI8ePbLdYe7du3cICgqCoaEhDA0NYWBgAIlEIqyfPXs2Fi1aJLy/fPkyfHx8sGDBggzPh2tra6N3794YPXo07OzssH//fgwaNAi9evXC4cOH8fTpUzRp0gRRUVHCNlpaWti4cSMGDhxY6EZ4K06ioqLQuHFjJCYmomnTpti6dSvu3r2b46GCc51XKYeioqIIAEVFReW0CsZYMffp0yeaPn06qampkampKW3YsIFiYmLypa24uDiaN28eASAAdP78eWHdyJEjCQD17t2batasSdWqVaO6detS8+bNqVOnTtS6dWsCQN26dSO5XE7R0dF08OBBUlVVFeobMGBAlm37+fnRu3fviIjo4cOHJBaLhe3SX1ZWVjRmzBgKDAyk8+fPEwCqVq0aAaCDBw8SAHJ2dqZBgwZRw4YN6enTp5ScnPzd/V6/fr3QhoqKikKb8+bNy/2BZRk8fvyYmjdvTlKplCQSCXl6etKmTZsIQK4+37nNq5zQGWN5Si6X082bN6lnz56koqJCmpqaNHPmTIqLiyuQ9m/cuEFqamqko6NDJ06cICKid+/eCYkzK127diVVVVUyMTEhXV1d2rt3r0KiPHr0aIZt/v77b5o4cSJpa2sTAJo2bRq1a9eOANCdO3fozp07dPbsWdq1axcNHz6cAFCbNm2IiGjhwoUEgNTU1IR2Nm7cSACoZs2a9Pr162zt75dxDho0iIKCgmj//v1ka2ubrS8E7McNHjxYON7+/v5EROTh4UEA6MKFCzmulxM6Y6xQCA8Pp8GDB5OpqSkBIBsbG1q3bh1FRkYWeCyRkZHUo0cPAkDTp0+n8PBwIelNmDCBPn36lGEbDw8PatWqFY0bN44cHR0znGHPmDFDoby3t3eGMulnyGXKlMnwBWb48OGkoqJC+/btIyKi27dvEwAaN24clShRgnr27EktW7YU6urXr1+29lUmk9H27dtp4cKF9Pbt2xweMfYjwsPDhc+5kZERde/enRwcHEhLS4s+fPiQ43pzm1f5HjpjLFfi4uJw4cIFTJs2DVFRURg+fDhat26Npk2bKvX+LRFh1apVmD59OuRyeYb1Dx8+zHJUOCJCYGAgfHx88PTpU7i7u2PWrFkwNzdH69atUaJECaipqeHQoUOoXbs2Zs2ahVq1akEikSA5ORlmZmYK++7j4wMrKys0btwYt2/fRmhoKDp16oSnT5/i/v37wkhuiYmJOHfuHNauXYuJEyeiW7du+XNwWK65u7vj7NmzkMlkuHXrFlJSUrB27VrUqVMnx3XyPXTGmFIEBweTs7MzSaVSAkBNmjSh9+/fKzusDM6dO0cAaPny5dS+fXvhDPj58+c/XFdSUlKGs/Lhw4d/d7v4+Hih/PHjx2nAgAEEgG7dupWTXWLFVG7zKj+2xhj7YTdu3EC/fv0gl8sxd+5cdO/eHRUrVlR2WJnq0KGDcMYzYcIEzJs3D3p6ehkeYQOApKQknDx5EvHx8bC0tBSeKT506BBev34NU1NToayRkRGWL1+OX3755ZvtExEaNGggvC9TpowwIl1RH6WNFS58yZ0xlm2pqalYsGABFi1ahObNm2P//v0KSS6nPD098eTJE7x79w5v377Fu3fv4O3tDRUVFfTr1w+zZ8+GoaFhHuyBIiJSuDS+ZcuWLEcbs7W1hZqaGsRiMZYsWYKWLVtmq403b96gbdu28PHxUVhep04duLq68vSfTJDbvMoJnTGWLf7+/nB2dsbdu3exYMECTJ8+HSoqKrmu98GDB6hXrx4AwMzMDBUqVBBeUVFRWLFiBQDA2toagwcPxtSpU3OdBIkIAwYMwPHjx+Hh4SGMrObt7Y3GjRsLz4I/ePAA6urqkEqlqFSp0g/3CXB1dc30meTVq1dj+PDh0NbWztV+sOKFR4pjjOW78+fPY9CgQdDQ0MCtW7eE2bty68WLF+jfvz/09fVx8+ZN1KhRQ2H92rVrhZ99fX3xxx9/4O7du2jcuDEqVKiAevXqwczMLFtteXp6wsfHBwYGBrh27RoOHDgAIC1ppyd0e3t7xMTEoFmzZhgxYkSuOjgByPTqRZMmTTBx4sRc1ctYZvgMnTGWpeTkZMyYMQOrV69Ghw4dsHv3bhgZGeVJ3atXr8b06dNhZWWFCxcuoHz58grtjhs3Dn/99Rd+++03REVF4eDBgxnqkEql+PjxY4YJRm7duoWbN28iMjIS1tbW6NWrV4YhUP/44w9cvnwZUqkULi4uCAkJgZmZGXr06IFjx47lyT4CwLlz53Dt2jVUr14dZcuWhYODAwwMDPKsflZ88CV3xli+8PHxQZ8+feDh4YFly5bh999/z9PH0IyNjZGcnIyQkBCFYVEBYOjQodi3bx9WrlyJsWPHAgBu376Nx48fw9fXFx8+fMCTJ0/QtGlT7Ny5U2E+74ULF2LOnDkoWbKkMLzrqVOn8PDhQ5w4cQLv3r1DamoqLl26BA0NDTRt2hQjR45EZGQkDh8+jNDQ0Hy5X8/Y9/Bja4wxgVwuJ39/f0pNTc1xHUlJSTRs2DDhMasHDx7kYYT/6dGjB5UoUSLDcn9/fwJA69at++E6N2/eTABo/vz5JJfLacuWLQSARo0aRevXr6fhw4dT9erVCQA9efKEiIhmzJhBAEhfX5/+97//CXWlpKTQhg0bqEWLFmRnZ0c9evSgcePG0V9//UVyuTzH+81YVnikOMYYEREFBQWRubk5ASAnJ6cc1ZHZ6Gdubm55HGma5s2bU5cuXTIsv379OgEgDw+PbNUjk8nI1dWV+vfvTwBozJgxQsKNjIykKVOmkFQqJVVVVbK2tqbOnTtnGMbV19eXUlJSFJYtXryYxGIxmZmZZTgmT58+zdE+M/Ytuc2r/LwEY8XEo0eP8OnTJwBQmHkru+RyOYYPHw4AmDx5MlxcXAAAO3fuzLsg/+Xv74+XL1+idOnSCstTUlIwYcIEVK1aFVZWVrhz5w5Wr16NRYsWITAwEEBaD3UvLy9s3LgRPXr0gLGxMRwdHeHi4oK//voL69atE24N6OnpYfny5fjzzz9RpkwZvH79GmfOnMHOnTsRHx+PnTt3ok2bNrh9+7bCZXsgrROdXC5HUFBQhlsCX05hylihoaxvEoyxvOfm5kbLli2jz58//9B2iYmJwoxkrVq1op07d1KtWrWEsc/z0uXLl8nIyIhKly5NL168UFgXFRUlTFaSPtOZpqYmAaAKFSpQz549hTG01dTUqFGjRjR37ly6fft2prcZkpOTydnZmQBQ37596cKFC7Rz504CQFOnThXOuKVSKc2cOZOmT59OW7Zsoe7duxMA0tbWpp07d1JSUhI9efKE5syZQwAoLi6Orly5km9XL9jPiS+5M8ZyRC6Xk6+vLx08eJCqVq0qzFCWnuRsbGzo4sWLGS5F58aCBQtIJBJR27ZtKTQ0NNMyFy9epEmTJtGmTZvIw8ODUlJSyN3dnVq0aEFNmzaladOm0eXLlyk2Nva77c2aNYsA0KFDh4gorX9AZhOvpL/KlCkj7Hv6RCne3t4Z6u3Xr5+wzdWrV3N3UBj7Fyd0xli2yWQyevbsGa1fv57q1asnJKVy5cqRhYUFiUSifLl3LpfLacGCBQSA5syZQzKZLM/q/pZBgwaRhYWF8D40NFSYES09YZuampKurq7QMc7BwYEmTJhAr1+/JkBxXvV06Z3t0q9opDt06BBVqVKFz9xZjnBCZ4xlydvbm2bOnEmurq5E9N8ZKwBydHSkLVu20PPnz8nS0pLMzc1p06ZNCmes2Z2T+0uJiYn08OFDunr1Kj148ICio6NpxIgRwhSkX/YQj46OpuPHj9OWLVto4sSJNGnSJAoMDMyz/a9VqxY1bNhQYVlkZCR9/PiRiNI6vgGgmTNn0tmzZ2nJkiU0YMAA0tTUJHV1dQIgHLuvxcbG0ps3bygxMZHkcjn98ssvPzT16a5du+jSpUu530lWbHBCZ4xl8PHjR+rbt6+QYHR0dIiI6MSJE8KytWvXEtF/Z5vpl5bfvn1Le/fupYoVK5K9vT0lJyf/UNvpyfvr19atWxXKRUVFkbGxcYZyO3fuJCKily9f0rBhw6h3797Uo0cP8vLy+uHjMGrUKDI2NlZYduvWLeEMOv2qAQCaO3eucOXg/v371LZtW2rXrl2WVxNkMhlFR0cTEdGzZ88U9mHMmDFZxhQREUHTp08XyjKWjhM6Y4yI0i5rP378mMaNG0cSiURIGLq6ujR79mw6fPgwOTs7k5qaGpUrV044+/7nn3+EpN+7d29hWlE3NzdSUVGhWbNmZav99AR37do1AkC//vqrEEPjxo3p7du39PjxY/r06ROlpKTQ69evFS7xAyBLS0vhb0rdunUV1o0dO/aHj8mKFStIJBLRli1baODAgWRlZSUcEyKiz58/Z/hCER4enq26t23bRgCoSpUqGepo2rQp7dq1K9Ptfv/9d6Fc7dq1+Zl2JuCEzthPTC6X06NHj2jatGlkaWkpJIpx48ZR48aNCQAZGhoKy21tbWn58uUUHx+vUI+bm5vC2Wp6Uku/JD1mzBhKTEzMtP1jx44JPckB0OPHj4Wfjx8/TmfPniU9Pb0MSU9PT4+2bNlCq1evpl27dpGPj49CGxcvXiRra2uhfM+ePX/4+CQnJwv3yvX09GjixIlCAnZwcCALCwuFmFq0aCGcdWfl06dPVLp0aaEXflavOnXqZNg2MTExQzm+387ScUJn7Cd1+/btbyaUBg0a0N27d0kmk5GPjw/5+Ph8t870bffs2UPu7u70yy+/CI+RSSQS+u2334Te5XK5nAYPHpyhXblcTm/fvqWSJUsSABowYMA34wRAJ0+ezDQeuVxOrq6utGPHDgoODs7RcWrRogUBEM6YExMTaevWrTRw4ECaMmWKsP57vdU/fvxIFStWzDT+fv36kb6+vsKy1atXK2z//PnzTLf90VsarPjihM7YT2rfvn0EpD1q1a5duyyTZZs2bbKVND59+iRsk5SURO3btxcug39Z35IlSygwMJASExPJxMSEAND9+/eF9RMmTKDWrVsLZ8W+vr60bds2qlGjhlDmwIEDtHDhQuH9sWPH8u04Xb9+ndauXZvlpe3U1FR69+7dd+sJCgr67heT9Gf3J06cmOHe+9u3bzOU19TUpMTEREpKSsqTfWVFGyd0xoqgDx8+0IkTJ2jr1q20aNEi6tSpExkYGJC1tTUNGDCARo8eTZ06daIaNWqQRCKhBg0aUEJCgkIdSUlJ5ODgQBUrVqS9e/cKSeLGjRtCkjh16hSpqqrSwIED6cWLF1kmNblcTn369BHq8Pb2pmvXrpGqqirVq1ePZs+eTUOHDqVRo0YJ942TkpLozz//JAD07Nkzun//PnXv3p0qVapEbdq0oU2bNlFcXJxCG+n31cViMQGgEiVK0OPHj/P1WOel3r17C8dIRUWFpk2bppCgL126RGFhYZlum3774utX+nC96a++ffsW8F6xwoITOmNFSEJCAk2ZMkXoDCYSicjIyIgaN25MCxYsoNGjR5ODgwNVq1aN2rdvT7/99pvwh97FxSVDfdu3byeRSESxsbGko6ND3bp1I09PT4V70ekjo6Vfhs+s1/bRo0cVksqvv/5KRER37tyhOnXqKKxLH3wm/d68oaEhhYSEZPsYuLm50cqVK8nLy6vInZk+fPhQ4b67VColIK2vwL17977Zwc3NzY1sbW2pV69eNHDgQIXOcV++jIyMCnCPWGHCCZ0VWT9D797Q0FC6e/cunTx5kmbPnk3m5uakrq5Oy5Yto6CgoGzNinbmzBnS1dUlNTU1WrhwoXDcUlNT6ciRIwSAhgwZQhs2bBCSrYqKCrVs2ZLu3r1LRCScBdasWTND/Q8fPiQNDY0MieXLZ9CjoqLo48eP5OnpScuWLaMqVaqQgYEBDR8+nCIjI/PoaBV+Hh4eCp3hGjZsmOWId9nx5s2bDMfdzMws0w6IrPjjhM6KrKDohCKd1JOTkykiIiLToVHPnj2rMBIbkDYK2dChQ+nly5c/3FZ8fDzNnDmTANAff/xBRESTJ09WqH/nzp0UGRlJLi4utGHDBrK2tiY1NTUKDAykR48ekZ2dHWlpadH06dPp+PHjwiX/9O1jYmJo48aNwqhpc+fOFdq/fv069evXj8RiMWloaJCTkxN16dKFANCbN29yfAyLiqSkJDpy5AiVKlVKOF6TJ0/O8LRATnTs2FHh96iiokLGxsbUvHlzevDgAQUEBOTBHrCigBM6K9Rkcjnd94uge77h5PEpkl6FxJDv5zgKjE6gB77hlJCUd+OEF4Tk5GTavXu3QgcvXV1dmjNnDvn5+VFQUBBNmDCBAFCTJk1o37595OnpScHBwbmaozzd4sWLSSQSkZ+fn9CLHADZ29sLj1s9ffqURo4cSdra2iSVSoWR10JDQ2ncuHFCwk6/5N+sWTPhTJ4o7bbA7du3KSIigojSntVWUVEhExMTWrFihXB5PTAwkICse6gXJxMnTlRIumfOnMmzutevXy90Xvx6pD4AZGJiUqS/+LLsy21eFRERIQeio6Ohp6eHqKgo6Orq5qQKVkzI5XIkpsqhqa6a6fqQ2CRceB0MOQFSVTFKaqvDQlcCOYnwMCAaMiJI1VQgVVOBjbE2yhtqCtNfFibR0dGoW7cuXr16hU6dOqFTp04wMDDA/fv3sWHDhgxTasbFxUFTUzNPY/Dz84OFhQX27t2L2bNnw9fXFwDw8OFDqKmpYeXKlTh06BBKlSqFPn364JdffkHlypUV6pDL5YiIiIBIJIJUKv1ujKmpqbCxsYG2tjauX7+OEiVKAABmzpyJJUuW4MmTJ7Czs8vT/SxsnJ2dcfDgQUgkEty7dw81a9bMt7aaNm2K27dvQ11dHcnJyejSpQtOnTqVb+2xwiO3eZUTOsuV6IRkfI5PgkRVBaZ6iokhISUV4bFJSJLJIZPJoSoWCYlaXUUEQISI+GS4BcagpLYEtUvrw0RbkkkrhcO6deswfvx4uLi4oFGjRgrrQkNDce/ePYhEIqipqaFy5cqwtLTM8xhiY2Ohr68PmUwGABg/fjx69+6N69evY+nSpShVqhRGjx6N0aNHQ01NLc/a9fT0RLNmzaCqqoohQ4YgICAAe/fuxfLlyzF16tQ8a6ewev36NQYPHoyWLVti4cKFua5PJpNBRUUl03XPnj3DmDFjEBcXh/Hjx6N///4Qi8W5bpMVfpzQWb6RE0EEZHq2HJeUgoi4JKTK0z4++ppqSEiRIyFFBiKCWASIkPVZtsq/q16HxcOmpC5K62kUyrPydPfu3UOzZs3QqVMnHDt2TKmxjBs3Dhs3boRcLkeNGjXw5MkTaGlpwcnJCRs3bszzqwLpPn36hHnz5uHcuXNQV1fH9OnTMXLkyHxpqzgbOHAg9u3bh/79+2PVqlUoWbKkskNihQQndJZvklJlCIyMh0gEqIjFEItEEIGQLJND/oOfGjkR4pJliEpKhZpYBPm/yb6kjgTlS2jnQ/R5x8/PD7Vr14a1tTWuXbsGdXV1pcaTkJCAsmXLIiwsDPXq1UOPHj1Qq1YtHD9+HPfv30eDBg0wadIklC1bVqlxssw5ODjg8ePHAIB27drh6NGj0NLSUnJUrDDIbV7N/KYn+ykQERATBkh1IVLLeKlboqoCIy0JPkdHQ12WCHVZAlRliYjRLoMUkSpkWXwXJCLIkfYlQEeiCgOpGgJjk3HbNxIlpGow1vovISalyvNr9/JEXFwcunTpAqlUiuPHjys9mUdFRWH27NkICwsDANy/fx/3798HAEgkEnTo0AF///03Ll26BE9PT6XHyzJq2bKlkNAfPXqk5GhYccIJ/SdEREB8FCj8IyBLhsjyvw4+suQkpMTHQJ4YC1FyHDRSE2BO/yVdl1OuKD9oCMJfv4N+pfIK9WpKVFFCUx2qmdwbDI5NQvWSOhABSJb9V19hTuhyuRyDBg3C27dvce/ePRgbGys7JGzduhXr16/HjBkzEB0djQ0bNsDc3BytWrXC8uXLcffuXZiYmGDLli1YtGgR5s+fX6hvZfyM5s2bh1q1aiEuLg5t2rThs3OWZzih/2QoMTYtkSfGAADkalIkh36CKCkWKqkJUJWnILNzOgKQIlaHt5sXLm/sCP1yZdDr8BaFMmIg02QOAHZmeoiIS8K78DiF5UmpaffcC1vSSUhIwKRJk3D8+HGcPHkStra2So1HLpfjzZs3+PDhAwDgjz/+gJaWFipWrIhz585hz549OHz4MBISEoRtFi5ciJs3b+LWrVtZdsBiBU9DQwNOTk7KDoMVQ5zQfxKUkgh5uD9EcREKy8UpCdBISchQPlWkCpmaJkiiiZgUFcSraQJiVQR9CMZnHz9UbloXFoZaSJHLkSojpMrkkMkJcrk80x65KiLAPypjO3ICUuT0b6935YmKisLLly/x5s0b3Lt3D6dPn0ZkZCQ2b96Mrl275rjeoKAghISEIC4uDnFxcYiPjxd+/vIVHx8Pc3Nz1KxZE/b29jAwMBDiun37NlauXIk7d+4AAPr27QstLS2IRCKMGzcO48aNw5UrV+Di4oLo6GisX79eaP/OnTsICQmBmZlZro4PY6zw44RezJEsBfQ5AIgKgQiZ3/OWQ4wUNSlIXQsiDS2oSXWgLtEQ1vu9+oBzEyag37bl+Oyd9txzSZvyEIvFUJXLIZF8//Go6KRUGEjVoS1RxduwWACAppoK4lNkSEqVQV1FOY/lPH78GAsXLsT58+eRmpoKAKhYsSIGDBiAoUOHwtra+ofrfP/+PTZv3owzZ87gzZs3WZaTSqXQ0tKClpYWpFIp/Pz8EB8fDwAwMTGBvr4+vL29IZPJYG5ujj///BPdu3dH6dKlM1zRaN26NVq3bg0A+PPPPxEdHY3w8HBoa2tzL2rGfhLcy72YIrkciAoCRQYCctm3CxuYQ2xonukqORGiE5Ix18Qe6ppSxISGAwAcB/dEbNhnVGxcB62njMh2XJEJyXgZnHa5v1ZpfUQmpEBNRQxDzYLvvOXv748yZcoAANavX49GjRqhYsWKOX7sKyoqCosXL8batWuhq6uL7t27o0WLFihbtqyQuNNfmpqaGa5kyGQyvH37Fu7u7vD29kZERAQqV66Mli1bwsrKKtf7yxgr3PixNZYpksuA1GRAlgrIUtL+laeAvnwv/JsKkWlFiLT0s6xvoW1bfPJ8pbBMQ0cbi33vQstAL2P7RPAMikaqnKChqgKpmhhSNRVEJ6YgOCYJqmKgnkUJiEQipd1DT01NRa1atSCVSoWe4jl17NgxjBo1CnFxcZg+fTomTZqUb8+DM8aKJ35sjWVKJFYB1KUZl2dSlogA+nZvc+MKFhkSepNR/TNN5kDaYDSldKU4+zJI4fE2Cz0JrI00cc/3M3w+J0JDTQypqgrK6EtRpaQOxAWY2FVVVTFhwgT88ssvOHr0aK46Ks2aNQumpqa4ePEizM0zv9pRmLi4uGDPnj2wt7dHhw4dYGlpWeg6JjLGfgyPJ8ggEonSvgB8g3F5C4X3ahoStPj910zLEhFiklIQnZgCQ03F++s1zHQgVVNFI0tDxKfIkCojWJtoo2oBJ/N0AwYMQPny5dGrVy/4+PjkqA53d3d8/PgRHTt2LBLJHAD69++PnTt34vfff4eVlRXKlCmD/v37488//8SDBw8UesszxooGPkNnmZITISw2GUZa6hCLRTAurzjqWP1fe0O3ZNpz2QkpMoTFJSMkNgmhcUkIi0tGYhbPlwfEJMNcRx1vw+PhaGEAG2MdqIiVd2aoqqqKRYsWYerUqWjZsiXu37//3efNiQifPn3Cw4cPcfz4cRw+fBg1atTAH3/8UUBR5w4R4ePHjwCAu3fvIiQkBFevXoWbmxuOHTuGpKQk9OjRA8uWLYOVlRWePHkCKysr6OvrKzdwxtg38T10liXXDxH46+57GGlJoO/9Ev6TpwEARKqq6P3PaciMTBAam4TY5Kw73elKVBGdlCq8VxWLUN1UF9XNdJXWsz0zHz58QJ06dUBEaNKkCYyNjWFsbAwjIyNIJBLs378fz549Q1xcHORyOdL/29jY2OC3337DiBEjoKGh8Z1WCo/0GeO8vb1Rt25dDB8+HBYWFnjx4gWuXr2Ks2fPQkdHB1OnTsXs2bMBAFOnToWjoyM6derEz7Uzlg+4UxzLV88CorD6xlskBwZBb+oYAEBSw6aI/3UUpGoq0JKoQEtdFXqaarAw1ISJtgTG2hIYa6nDSEsdyalyHHkWABEAa2Nt1DTXy3KaVWXz9/fHn3/+iWfPniEsLAyhoaEIDQ1FUlISGjZsiM6dO0NbWxtisRjm5uaoXr06LCwsvl9xIRUbG4tjx45h165dcHFxybBeT08Px48fR8uWLRWWu7u7w97evqDCZOynwQmd5TvvsFgsveQFlcF9ALkc0YvXQG72371iUx0JxjUpD6sSWhk6Vr0KicHHqATULm0AfWneTedZUIgIqampeToVaWEUExODO3fuoF+/fmjVqhVmzpwJU1NTmJiY4P3791izZg0+fPiAgQMHwsnJiTvQMZYPOKGzAhEQlYAFNs2RXNoCcaMnKqzrohmN7h0aQENLsVc9ESFZRpCo5t2l9UOHDiEhIQFt27bFrl274O3tjYULF6JUqVJ51gZjjCkDP7bGCkQpPSkq2VaEX5vuiPtq3el4XVw7cB8tdJLQpUMDaOvqAABinrpDHh8PSf1GuW4/JiYGXbp0wc2bNzOsc3R0xNChQ3PdBmOMFWWFp1cSK/RajR+CRaM7opJJ2vzlEjFgnRAMAIhT18KZJEOMPuyOnfsuIDL8MyCXw2flIoRdPvfNeokI9+/fx5EjR/D48WN8/vw5Q5l9+/ZlmsyHDx+OX3/N/PE5xhj7mfAld/bDklJl+PPWO7wJjcWOvrXw6tlrHLv3Gp4SE0CU9h1RPTUJ9eL9YHf3GLSS4mDmPAglnZwV7r16eHjgwoUL2Lt3r8KY5xKJBM+fP0d4eDjq1q0LAHBzc8OGDRuwd+/eLOMaMmQIdu7cmU97zRhj+YvvoTOlSJXLsc/tI4bU/a+X9/tX73HM5TnizK2grqaK+GQZkhKTYPHeA7YvbqB8w/ow/3UkRGIxtmzZgpEjR0JbWxsdO3bE8OHDYWdnhz///BMLFy6Ejo4OYmJiUKVKFfTr1w9//PEHRCIRNDU1kZCQgJMnTyI1NVVhdLfy5cvjzZs3mc72xhhjhR0ndKY0WY3B/sHnE6LVpFBVVeyiIZfJIE5KgF/AJ7RrVAeODRvjxNkLMNHTFEaJk8vl2LhxIyZOnCjMfgYAnTp1goaGBnx8fPDo0SPo6+sjMjISAFC5cmXs3r0bdnZ2kEgkCm0mJyfDxcUFHz58wLlz52BmZobWrVvDxsYGCxcuhKurK9asWYNu3brl8dFhjLEfw53imNJklsyJCJoBPoiJjANqOSqsE6uoAJrawuX1iPAwqFOKwpCvYrEYY8aMQVRUlDCgCQCcPXsWANCuXTsAQGRkJLS1tREcHIxnz57h+fPn+OeffxAVFSVsU7t2bSxevBgPHjxQiGPLli0K+zBz5kxO6IyxIo8TOsuVFJkciSkyxKfIkJAiQ2KyDPLytshyHDG5HE11NLCqRxdMPn4avZx64pdffsGKFStgamoKBwcHfP78GZs2bQIA4duqqqoqfvnlF2zatAleXl6IiIhAgwYNMHbsWGzevDnL+AwNDRXep8/ulo6IMHr06NweBsYYUzq+5M6yhYjg5vYIlhUrISA4BGERUShtVRHyTOdvgzA86pdDhKpHR0DtiStSXnki0c8PI6/exh0/f2F9vXr1hGlMV61aBVNTU/j5+aFWrVqoX78+tLW1M7QTHByMZcuWoUKFCkhJSUFcXBxu3LiBGzduwNTUFBMmTMCgQYPg4+ODmJgYPH36FJaWlpBKpUhKSoKlpSVq1aqVx0eLMcZ+HN9DZ3mOiPD69WsEBgaiUqVKuHz5MjZs2gKPx24K5czLlMXC/21E3QaNoSoWQaqmAqm6Cu673MLI4UNR3qYqNu07ApEsBWVK6CIqPATr169HSEgIypUrh64dO+D+nTto0KIlqlSpAgDYvHkzSpQogV69euU4fplMhidPnsDe3p47yDHGigxO6CxPpN+zTk5OxosXL3Dnzh1hnUgkQuPmLXD7+jUAwNAxE9CoaTMM6tkFABAQFAyzkiYA0s6Yq1SpgoiICABAr77OOHnsKBo1aoRGjRph/vz5Cu36+fmhTJkyBbGLjDFWqHGnOJZrZ86cwdixYxEREQELCwvo6enhxIkTqFKlCu7cuYM6derAyroy/D76I+DjBzRr3Bh///03AKBFixaQqP33MRo8eDAiIiLQtm1bXLp0Ca53/kHjxo1x/fp1eHp6omXLlnj//j2ICK1atYKZmZmydpsxxooVTug/uRMnTqBHjx5o37491q1bh/Llyyust7a2Fn6uXN4SlctbAgBevHgBAGjQoAEkEgm2bNmCadOmITo6GvPnz8ecOXOwb98+GBsb48SJE7h+/TpCQ0Nx8OBBGBkZFdj+McbYz4IT+k9s4sSJWL9+PXr06IGjR4/+0Axa5uZps60tWLAACxYsAAC0bNkS8fHxGDp0KFxcXDBw4ECFbbZv3w4iwrNnz/DhwwdUqlQJNjY2ebdDjDH2E+OE/hM7fPgwUlNTERsbi4CAACFJZ8eQIUMwc+ZMREdHo1y5cti9ezcaN26MCxcuCPUYGxtjwYIFUFFRgUQiwerVqxUmUalSpYpwps8YYyx3OKH/xJYsWYKlS5fi8uXL6NOnD27fvg0iwsePH2FiYgJNTc0st9XS0sLly5fx7t07iMViNGnSRGH96NGjYWdnh5SUFIwcOVJYXrlyZXh5eQEANm7cmD87xhhjPyHu5f6TIyJMnz4dK1asgL29Pfz9/REaGgpVVVU0adIEzZo1g5OTEypVqpRlHW3btsXly5cBAPr6+khISICpqSl8fX0VyqmpqSElJQUAYGVlBS8vL6irq+ffzjHGWBGS27zKD+n+5EQiEZYvXy4kZFNTU7Rv3x4lSpTA7du3sWzZMlhbW0MkEgmvL4dOvXjxorAtkPb4W1JSUoZkDkBI5gMHDsSzZ884mTPGWB7ihM4AAH///Tc8PDzg6emJK1euIDU1FampqRgwYECGsgEBAcLPX89R3rp1a7x58wZ169bF1KlThUvx6Y+njR8/Htu2bYOWllY+7g1jjP18+JL7T46IkJCQAB0dHWhpaeH48eNo3rw5xGIxJk+ejDVr1ghljYyM8PjxY5QtW1ZYlpKSgsGDB6NChQo4c+YMqlSpIjyjnk5fXx+HDx+Go6MjdHR0CmzfGGOsKOGR4liOrVy5EnPmzIGqqipiY2OF5W/evEHFihXh6ekJW1tbYXlmH5Xg4GCYmppmWD558mQMHz4cenp6MDY2/qFH4hhj7GfE99CLmfSkGR4ejoSEhHxta+3atdDW1sa0adOEZVWrVkViYiIAoFq1ajh9+jR8fX1x+PBhITZXV1eoqKjg4MGDCmOuP336FCEhISAirFy5EhUrVoSJiQknc8YYKwD82JoSERHevn2LR48eISQkBG/fvsWBAweQkJCA5ORklClTBlu3bkWbNm3yJSlWr14dly5dwvv377F582bExsZCVVUVnp6eqFq1KsRiMTp37oxdu3bhl19+wd27d9GqVSts2bIFcrkczs7OAIBx48bBx8cHJUuWhLGxcZ7HyRhj7Pv4kruS/PPPP5g8eTIePnwIAJBKpShdujQ6d+4MS0tLJCQk4OLFi7h58ybMzc2hp6eHuLg4GBkZYdmyZWjZsmWu2t+zZw8GDx6c5fpr166hRYsWAIALFy6gQ4cOWZblzwBjjOUeT85ShBARrly5glOnTmHr1q2oXbs2Tpw4gebNm0NPTy9D+cmTJ+Py5ctwcXFBfHw8NDQ0sHz58hwn9MuXLyMmJgaOjo5ITk4WlpcrVw6xsbGwtLREixYt4ODggAYNGmD37t2Ij49Hr169UKZMGXz8+FGhvt27d6NDhw6czBljrDCgHIqKiiIAFBUVldMqfjpTpkwhAFSmTBlatGgRpaamZnvboKAgql+/PonFYvr777+/W97Ly4t8fX3J19eX/Pz8aNKkSQQgw2v79u1C/QsXLqQ2bdpkWi79NXr0aDp//jzNnz+fEhMTc3wsGGOMKcptXuVL7gXkzp07aNSoEVasWIHJkyf/8D3xPn364PDhw7h161aGYVaBtLP/qKgoyOVyDBkyBGfOnMm0nvv37+PTp09ISEiAr68vHj9+jPfv38PT0xPq6uoKHfGaN2+OoUOHYvz48WjZsiXi4uKwYMEC2NnZ/djOM8YY+y6+5F5EpI9f3qVLlx9O5klJScIl+RIlSgAArl69inXr1iE0NBRaWlp4+vQpwsPDhW0kEgn+/vtvLFu2TLikXr58eZw6dQr37t2Du7s7YmNjUadOHdjZ2WHw4MHo2rUrgoODERYWhoYNGwp1tW/fXiHm6OjoHB8Hxhgr7tTV1aGhoVHwDSvr0sDPJCkpiUaMGEEAyN3dPVvbhISE0Nq1a8nZ2ZkMDQ0JADVr1ozu3r1LrVq1IgBUu3ZtGjJkCFWuXJkqVapELVu2pD/++IMA0NixY8nX15c0ofLNS+j84he/+MWvvH2ZmppSQkLCD+cKvuReBKRfbgcAR0dHnDt3DoaGhpmW9fT0xNq1a7F//34QERwcHNCwYUMMGDAAixcvxqFDh1C+fHmsWrUqy7N9IkLjxo1x584dAMBAmEMdYqiIRBCLAJV/t1HJ5Of02lREon+XIUPZ9Dq+Xqfy77ZiYduM7YhFIohURBALG4shEv/3XiQWQ6ySVgaAQlmRSASxivirdWIhyLS604ZWSK/jv/dIa0csFrYVqYghEqevFwP/lhWJ05anbytSEUP81XuR6IufVcRp2yOtjfRlaTGLIVJRUdxW/OXPov/ei1XSAhXWf/VeLAZE/x5lsUrae3H6e/G/5cVfrP93nUj8b93ir8p+VVd63SIR8O/+kUic9nP650ws/m/Zv3VDJAalr/+yrCjzsv/VLfpinei/8sK2IqT/dZITgQDI/31PRMLP+Hd5+p8yOQCir8r+W46+qCt9OxAg/3dJ+nZCuyCFGGTytH/T38sJkMm/WP9FWzI5CTHJKH17+qLsF3XJ/9sfoZ5/F8i+WJZeVib/ry6ZHF/8nLZdetn0cqlfrU+L6et6CDKS/7deTkj9qm4h/n9/pi9iIiLQF+tJDsX1/+1g2u/g33UkJ8i/KEtyCDHQv9vJvyj7ZTvpP/9XXgaSy/79WQ6SyUAkU1j35Xq5wnsZIPv3Z5Klbf9lXV+UlctloH9/8Wllv6gnJRGpL4/kKDfyJfdC5vTp03j+/Dl69OiBChUq4Pz583BxccGKFSuwePFiuLq6Yvfu3Zg4cSIAIDQ0FP7+/nj27Bn27t2LGzduwNzcHHPnzsWwYcNgZGQEAIiLi8PZs2cBpD3i5uLigjdv3sDW1ha2traYNWsWEhISUKZMGbi4uODBgwcwMTFBSEgI1CGGukj8RZLOOqGnjzSUnbIZErro+9uKRaJ/E+t/CVwhaWdI6OIv1mWe0NPfi8XfSugiYfv0bb9O6F8nXZGKyn8xfJ3Qv0zKCgldrJjQxWKIv5XQv3yfZUJXEerKkIS/fJ9VQheL/6s7/X1mCf2LLwA/ntC/fP9VQhcrls1QN5CrhJ6+PFsJnTImdMphQpcRCcuE9V/EJfsiEWUnocuySuikmNDTE2tmiTardSqZlc0socvlwnuxnCCSE8RfvBd/UVYk/yqBZzOhk5wgoq/ey0khoYu+SugiUnwvJPD0ejJN6LK0hC7PKqHLgK/Li2X//hJk/73SdkDhvUguA0RflBX99z69PmXghJ5HIiIisGnTJsyZMwdEhFmzZgmPen05bSgAtGrVCtOmTcO5c+fw8uVLYbmjoyMOHjyIHj16QE1NTaF+LS0txMTE4MqVK9i2bRvOnTuH0NBQREZGAgCMjY1hY2ODe/fuwc/PDwsWLMD48eMzfRyOMcZY8cMJPZfkcjmOHj2KoUOHIiUlBaNGjcLSpUtx8uRJ/PPPPxgwYAAsLCywevVqODo6onLlyujatSvev3+PoUOHYtasWahYsSLKly8PAwODb7YlEonQpk0btGnTBkDat9M5c+YgICAAc+fORdmyZUFEePToEezt7REfH18Qh4AxxlghwPfQcyEsLAytWrXCkydP0LNnT2zcuBEmJiZZlg8ICED37t3x4MEDrF+/HmPGjMnX+NJ/R3wPne+h8z30f39GxkvufA+d76Gnr+d76D+xkSNHwt/fHzdv3kSTJk2++zja77//jgcPHmD58uX5nsyBtEcnTE1NsTfoU9qCf/94McYYyz+mpqZQV1cv8HY5oefCjRs30LdvXzRt2vSb5VJSUjBjxgwcOXIEnTp1wpQpUwokPg0NDfj4+CgM81rQoqOjhb4EP+uVnKzwsckaH5us8bHJWmE5Nsp6Dp0Tei50794d27dvx4wZM1CqVKksy40bNw7bt2/H0qVLMWnSpAKdTlRDQ0M5Axx8RVdXl//4ZIGPTdb42GSNj03WftZjU6wS+tOnT3H+/HloaGigb9++MDMzy5d2ZDIZoqOj4efnBxUVFaioqCis9/DwgJubGy5evIgXL17g7du32L59O3799dd8iYcxxhgrNgk9MTERtWrVguzfTg03b94UntvOa7/88gv27t0LdXV1nD17FiVLlgQAfPr0CbNnz8auXbsgEolgamqK2rVrY+HChejdu3e+xMIYY4wBEMYRKfL8/f0hk8nQrVs3AMjXy9oXL16EnZ0dnjx5AhMTE1y8eBEjRoxA6dKlcerUKWzZsgXJyckICAjA6dOnf+pkLpFIMHfuXEgkEmWHUujwsckaH5us8bHJ2s9+bIrEY2uxsbEQi8XQ1NTMsoy3tzcqVKgAIG2WsEuXLmUYnCU3Dhw4gE2bNoGI4OrqisWLF+Px48c4ceKEUEZPTw9+fn4/5b0bxhhjuZPbvFroz9DHjx8PXV1dGBoaokyZMujbty9iYmKE9UQEuVyO+Ph4bNmyBWvWrMGZM2fyNJmnpKRgyJAhiI+Ph6+vLwBg5syZQjJ3dnbGp0+fEBwczMmcMcaYUhTqM3Qigp6eHmJjY9GwYUP8888/AIALFy6gSpUquH37NiZOnKgwbaiqqiq2bt2K/v375zqpv337FuPGjcOlS5cUlqePnZ7+WNjAgQOhr6+fq7YYY4z93Ir1wDIikQh///03Jk6ciH/++Qe6urqQyWRo3769UKZKlSpYvHgxdHV1oa2tjdOnT+OXX35BREQEJk2alKN2iQgjRozAtm3bFJYvXrwYDRo0QIMGDaCqWqgPHWOMsZ9Moc1K8fHxcHFxgUQiwf3790FEmDFjBrZu3YqePXvizZs3ePbsGV6+fInff/8dNWrUQI8ePZCQkAAAueoUERwcrJDMPTw8UKNGjdzuEmOMMZZ/cjSLOuV+IvbvsbGxSR+olABQnTp1yNPTk7p27UoAqGTJkjRq1Ci6cuUKrVmzhpycnEhVVZUAUI0aNSg1NTVX7cfExJBcLs+jvfl5LFq0iBwdHUkqlZKenl62tpHL5TR37lwyMzMjDQ0NatKkCT1//jx/A1WCiIgI6t+/P+nq6pKuri7179+fPn/+/M1tBg0apPD/AADVrVu3YALOZxs3biRLS0uSSCRUs2ZNcnFx+Wb5W7duUc2aNUkikVC5cuVo8+bNBRRpwfuRY3Pz5s0MnxEA5OXlVYARF4zbt29Tx44dyczMjADQyZMnv7tNUfrc5DavFtqEbmJiQgBo6NChwgf04MGDREQUFhaWabJ99OgRLViwgHx9ffMlJvZ9c+bMoTVr1tDEiROzndCXLVtGOjo6dPz4cfL09KTevXuTmZkZRUdH52+wBaxt27ZUrVo1unfvHt27d4+qVatGHTt2/OY2gwYNorZt21JgYKDwCg8PL6CI88+hQ4dITU2Ntm3bRi9fvqTx48eTlpZWlv93379/T5qamjR+/Hh6+fIlbdu2jdTU1OjYsWMFHHn++9Fjk57QX79+rfA5ye1JTWF04cIFmjlzJh0/fjxbCb2ofW4KbUJPTEwkd3d3GjJkCI0YMYK2bdtGISEh2a7fwcGB9PT0SF9fn8qWLUtt27bNty8PLO/t2rUrWwldLpeTqakpLVu2TFiWmJhIenp6tGXLlnyMsGC9fPmSAND9+/eFZa6urgSAXr16leV2gwYNoi5duhRAhAWrTp069Ntvvykss7GxoenTp2dafurUqWRjY6OwbMSIEVSvXr18i1FZfvTYpCf0713tKW6yk9CL2ucmtwk9Xx5bu3fvHkqUKIGaNWviypUruHfvHkaOHAkTExOcOnUqW3W4ubkhMjISnz9/hq+vLy5evMiPhBVDPj4+CAoKQuvWrYVlEokETZo0wb1795QYWd5ydXWFnp4e6tatKyyrV68e9PT0vruft27dgomJCSpVqoRhw4YhJCQkv8PNV8nJyXj8+LHC7xwAWrduneWxcHV1zVC+TZs2ePToEVJSUvIt1oKWk2OTzt7eHmZmZmjRogVu3ryZn2EWGT/L5yZdnib0lJQULF68GM2aNUPZsmVx+vRpvH79Gs+ePRMSeWhoaF42yYq4oKAgABCGz01XsmRJYV1xEBQUBBMTkwzLTUxMvrmf7dq1w4EDB3Djxg2sXr0abm5uaN68OZKSkvIz3HwVFhYGmUz2Q7/zoKCgTMunpqYiLCws32ItaDk5NmZmZti6dSuOHz+OEydOwNraGi1atICLi0tBhFyo/Syfm3R51sudiDB06FAcOHAAU6dOhbOzM/bt24eXL19CV1cXCxYsQJ06dTBw4MC8apIVkHnz5mH+/PnfLOPm5gYHB4cct/H1UL1EVKCz0uVUdo8NkPlwxN/bzy+HDa5WrRocHBxgYWGB8+fPo3v37jmMunD40d95ZuUzW14c/Mixsba2hrW1tfDe0dERHz9+xKpVq9C4ceN8jbMo+Jk+N3mW0D99+oS9e/fC2dkZ8fHxsLW1hYGBARITE5GYmIj27dtj+/btP+0Yu0XZmDFj0KdPn2+WsbS0zFHdpqamANK+SX85O15ISEiGb9aFUXaPzbNnzxAcHJxhXWho6A/tp5mZGSwsLPD27dsfjrWwMDIygoqKSoYzzm/9zk1NTTMtr6qqihIlSuRbrAUtJ8cmM/Xq1cP+/fvzOrwi52f53KTLs4Se/sf477//hoqKClatWoWRI0dCIpEgOTm5UMzJzXLGyMgIRkZG+VJ3uXLlYGpqiqtXr8Le3h5A2n3E27dvY/ny5fnSZl7K7rFxdHREVFQUHj58iDp16gAAHjx4gKioKNSvXz/b7YWHh+Pjx4/5NjVwQVBXV0etWrVw9epVYTIlALh69Sq6dOmS6TaOjo4ZZk+8cuUKHBwc8nSYZ2XLybHJjIeHR5H+jOSVn+VzI8jL3niRkZF05MgRevToUU6rZUWcr68veXh40Pz580lbW5s8PDzIw8ODYmJihDLW1tZ04sQJ4f2yZctIT0+PTpw4QZ6entS3b99i+9iara0tubq6kqurK1WvXj3DY2tfHpuYmBiaNGkS3bt3j3x8fOjmzZvk6OhI5ubmRf7YpD+atWPHDnr58iVNmDCBtLS06MOHD0RENH36dBowYIBQPv3xo99//51evnxJO3bsKNSPH+XGjx6b//3vf3Ty5El68+YNPX/+nKZPn04A6Pjx48rahXwTExMj/E0BQGvWrCEPDw/hkb6i/rkptI+tsZ9TZgOhAKCbN28KZQDQrl27hPfpA8uYmpqSRCKhxo0bk6enZ8EHn8/Cw8OpX79+pKOjQzo6OtSvX78Mjxp9eWzi4+OpdevWZGxsTGpqalS2bFkaNGgQ+fn5FXzw+WDjxo1kYWFB6urqVLNmTbp9+7awbtCgQdSkSROF8rdu3SJ7e3tSV1cnS0vLQj1ASG79yLFZvnw5lS9fnjQ0NMjAwIAaNmxI58+fV0LU+S+rQXQGDRpEREX/c5PbvFqoJ2dhjDHGfhbFfvpUxhhjjH0fJ3TGGGOsGOCEzhhjjBUDnNAZY4yxYoATOmOMMVYMcEJnjDHGigFO6IwxxlgxwAmdMcYYKwY4oTPGGGPFACd0xhhjrBjghM4YY4wVA5zQGWOMsWIg1/OhR0dH50UcjDHG2E8tt/k0xwldXV0dpqamKFOmTK4CYIwxxlgaU1NTqKur52jbHE+fCgCJiYlITk7O6eaMMcYY+4K6ujo0NDRytG2uEjpjjDHGCgfuFMcYY4wVA5zQGWOMsWKAEzpjjDFWDHBCZ4wxxooBTuiMMcZYMcAJnTHGGCsGOKEzxhhjxQAndMYYY6wY4ITOGGOMFQOc0BljjLFigBM6Y4wxVgxwQmeMMcaKAU7ojDHGWDHACZ0xxhgrBjihM8YYY8UAJ3TGGGOsGOCEzhhjjBUDnNAZY4yxYoATOmOMMVYMcEJnjDHGigFO6IwxxlgxwAmdMcYYKwY4oTPGGGPFACd0xhhjrBjghM4YY4wVA5zQGWOMsWKAEzpjjDFWDHBCZ4wxxooBTuiMMcZYMcAJnTHGGCsGOKEzxhhjxQAndMYYY6wY4ITOGGOMFQOc0BljjLFigBM6Y4wxVgxwQmeMMcaKAU7ojDHGWDHACZ0xxhgrBjihM8YYY8UAJ3TGGGOsGPg/TutFs6TTjAsAAAAASUVORK5CYII=;" vertex="1" parent="1">
          <mxGeometry x="460" y="320" width="500" height="300" as="geometry" />
        </mxCell>
        <mxCell id="ja9hxogwG1e2657q7_xn-2" value="" style="shape=image;verticalLabelPosition=bottom;labelBackgroundColor=default;verticalAlign=top;aspect=fixed;imageAspect=0;image=data:image/png,iVBORw0KGgoAAAANSUhEUgAAAfQAAAEsCAYAAAA1u0HIAAAAOXRFWHRTb2Z0d2FyZQBNYXRwbG90bGliIHZlcnNpb24zLjkuMiwgaHR0cHM6Ly9tYXRwbG90bGliLm9yZy8hTgPZAAAACXBIWXMAAA9hAAAPYQGoP6dpAAB2aUlEQVR4nO3dd1gUVxcH4N8uvYN0BMGOIlZUrFixazBGYo/RWGOP3dg19q4Yu8bYe0cUCwoaewNREQFFivQOu3u+P3DnYwVsVNfzPs8+sjN37r0zrJydO7eIiIjAGGOMsW+auKQrwBhjjLGC44DOGGOMKQEO6IwxxpgS4IDOGGOMKQEO6IwxxpgS4IDOGGOMKQEO6IwxxpgS4IDOGGOMKQEO6IwxxpgS4IDOGGOMKQEO6IwxxpgS4IDOGGOMKQEO6IwxxpgS4IDOGGOMKQEO6IwxxpgS4IDOGGOMKQEO6IwxxpgS4IDOGGOMKQEO6IwxxpgS4IDOGGOMKQEO6IwxxpgS4IDOcklKSsKkSZPg6uoKU1NTiEQizJ49O8+0v/zyC0QiUa6Xvb19rrRv377FL7/8AjMzM2hqaqJmzZrYunVrnvlGRUXhl19+gYmJCbS1tdGoUSNcvHhRIU1iYiIWLFiAFi1awMLCArq6unB0dMTixYuRnp6eK8+srCzMmTMHdnZ20NDQgL29PdauXfvlF+gzzl8kEuHUqVMFyvtr6mJnZ1eoee7YsQMikQi3b9/Oc3/nzp0LvczPNXv2bIhEIoVtdnZ2+OWXX0qkPgAQHx8PExMT7Nu3T9gmr+e7d+/yPe7y5csQiUQ4dOhQvmni4uJgaGiIY8eOFWaVmRJRLekKsNInJiYGmzZtQq1atfDDDz9gy5YtH02vpaUFb2/vXNtySkhIQNOmTZGZmYklS5bA0tISe/fuxeDBg5GQkIDx48cLaTMyMtC6dWvEx8dj9erVMDMzw/r169G+fXtcuHABLi4uAIDQ0FCsWrUK/fr1w/jx46GrqwsfHx/Mnj0bXl5e8PLyUviDP2LECPzzzz+YN28e6tevD09PT4wZMwZJSUmYNm3aV1+vvM4fQJ5faljROnr0KPT19Uus/Dlz5sDKygru7u6FnreRkRHGjRuHiRMnomPHjlBXVy/0Mtg3jhj7gEwmI5lMRkRE0dHRBIBmzZqVZ9oBAwaQjo7OJ/P866+/CADdvn1bYburqyvp6OhQXFycsG39+vUEgHx9fYVtWVlZVL16dWrQoIGwLTk5mZKTk3OVtXTpUgJAPj4+wrbHjx+TSCSihQsXKqT97bffSEtLi2JiYj55Dnn53PMvDgMGDCBbW9tCzXP79u0EgG7dupXn/k6dOhV6mZ9r1qxZVJr+hMXExJCWlhZt3LhRYbu8ntHR0fkee+nSJQJABw8e/GgZERERpKqqSv/++2+h1JkpF25yZ7nIm4wL0/Xr12Fubo569eopbO/cuTNSUlJw7tw5YdvRo0dRtWpVNGrUSNimqqqKvn374r///sObN28AADo6OtDR0clVVoMGDQAAYWFhwrZjx46BiDBw4ECFtAMHDkRaWppC+YVNJpNhyZIlsLe3h4aGBszMzNC/f3+8fv06V9pt27ahVq1a0NTURJkyZeDm5oaAgIBc6Xbs2IGqVatCQ0MD1apVw65du4qs/l+KiLBhwwbUrl0bWlpaMDIyQo8ePfDy5UuFdF5eXujWrRusra2hqamJSpUqYejQoXk2TZ8+fRq1a9eGhoYGypcvj2XLluVZ9odN7vKm7L1792L69OmwsrKCvr4+2rRpg8DAwFz1XrhwIWxtbaGpqQknJyd4eXmhRYsWaNGixSfPe8eOHZBIJEVydy5nbm6Otm3bYuPGjUVWBvt2cUBnBZaWlgYLCwuoqKjA2toav//+O2JjYxXSZGZmQkNDI9ex8m0PHz4Utj1+/Bg1a9bMlVa+7cmTJx+tj7z528HBQSFPU1NTWFhY5Jnn48ePhW3yIJBfv4G8SCQShZdUKhX2DR8+HJMnT0bbtm1x4sQJzJs3D+fOnUPjxo0Vgtdff/2FQYMGwcHBAUeOHMHq1avx8OFDNGrUCM+fPxfS7dixAwMHDkS1atVw+PBhzJgxA/Pmzcuz2b+wSKXSXOcokUhARLnSDh06FGPHjkWbNm1w7NgxbNiwAU+ePEHjxo0RGRkppAsKCkKjRo3g4eGB8+fPY+bMmbh58yaaNm2KrKwsId3FixfRrVs36OnpYd++fVi6dCkOHDiA7du3f3b9p02bhpCQEGzZsgWbNm3C8+fP0aVLF4Xf0/Tp0zF9+nS0b98ex48fx7BhwzB48GA8e/bss8o4ffo06tSpA0NDw8+u19do0aIFrl+/jvj4+CIth32DSraBgJV2n2pyX7FiBa1YsYLOnz9P58+fp+nTp5O2tjbZ29tTUlKSkG7s2LEkFospJCRE4fh+/foRABoyZIiwTU1NjYYOHZqrLF9fXwJAe/bsybe+Dx48IC0tLXJzc1PY3rZtW6patWqex6irqyuUf/nyZVJRUaE5c+bkW47cgAEDCECuV5MmTYiIKCAggADQiBEjFI67efMmAaBp06YREVFcXBxpaWlRx44dFdKFhoaShoYG9e7dm4iIpFIpWVlZUd26dYXHIkREr169IjU1tSJrcv/YK2eZfn5+BICWL1+ukE9YWBhpaWnRpEmT8ixHJpNRVlYWhYSEEAA6fvy4sK9hw4ZkZWVFaWlpwrbExEQqU6ZMriZ3W1tbGjBggPBe3pT94XU9cOAAASA/Pz8iIoqNjSUNDQ1yd3dXSCc/HxcXl09eK21tbRo2bFiu7YXZ5E5E5OXlRQDo7Nmzn0zLvi/cKY4VyLhx4xTet23bFnXq1EGPHj2wefNmYf+QIUPg4eGBPn36YOPGjbCwsMC+ffuwf/9+AIBYrNhY9LEm//z2vXr1Cp07d4aNjU2eHfk+N08XFxdIJJJ8035IS0sLV69eVdimp6cHALh06RIA5Op53aBBA1SrVg0XL17EggUL4Ofnh7S0tFzpbGxs0KpVK6GHf2BgIMLDwzF+/HiFOtva2qJx48Z49erVR+sqk8kgk8mE9yKRCCoqKp88x127dqFatWq5to8bN07h0capU6cgEonQt29fhWtoYWGBWrVq4fLly8K2qKgozJw5E6dPn0Z4eLhCvQICAtC1a1ekpKTg1q1bGDFiBDQ1NYX9enp66NKlC3bu3PnJugNA165dFd7LW2ZCQkLg7OyMGzduICMjAz179lRI5+zs/Fm9+OPj45GamgozM7PPqk9ByMuQP3piTI4DOit0bm5u0NHRwY0bN4Rt1apVw9GjRzF06FDUqFEDQHawWr58OUaNGoWyZcsKaY2NjRETE5MrX3kzfpkyZXLtCwkJQcuWLaGqqoqLFy/mSmNsbIz79+/nOi4lJQWZmZl55vm5xGIxnJyc8twnPw9LS8tc+6ysrBASEvJZ6by8vBTSffjoQL7tUwF97ty5mDNnjvDe1tb2k8cA2b+/vM7RwMBAIaBHRkaCiGBubp5nPhUqVACQ/cXC1dUV4eHh+PPPP+Ho6AgdHR3IZDI4OzsjLS0NQPZQLZlMlu/5fi5jY2OF9/JHPfJy5Nc1r3rndy45yfPJ+aWjqMjLkJfJmBwHdFYkiCjXXXeHDh0QEhKCFy9eQCKRoEqVKjhw4AAAoHnz5kI6R0dHPHr0KFee8m3yLwRyISEhaNGiBYgIly9fhrW1da5jHR0dsW/fPkRERCgEgvzyLCzyQPL27dtc9QoPD4eJiUmudB/KK11ERESudHlt+9CQIUPQuXNn4X1e/RoKwsTEBCKRCD4+Ph/tM/H48WM8ePAAO3bswIABA4T9L168UEhvZGQEkUj01ef7ueTXNecz/pzlfOouXX78h31HioK8DPlngjE57hTHCt2hQ4eQmpoKZ2fnXPtEIhEqV66MatWqQSqVYvXq1ahdu7ZCQHdzc8PTp09x8+ZNYZtEIsHu3bvRsGFDWFlZCdtDQ0PRokULSKVSeHt7w9bWNs86devWDSKRKFcT7Y4dO6ClpYX27dsX9LTz1KpVKwDA7t27FbbfunULAQEBaN26NQCgUaNG0NLSypXu9evX8Pb2FtJVrVpVGMNPOTqkhYSEwNfX95P1sbKygpOTk/BydHQs0Pl9qHPnziAivHnzRqGcD8uTPy74MOj//fffCu91dHTQoEEDHDlyRGGyoKSkJJw8ebLQ6t2wYUNoaGgIj4Dkbty4IbSifIy6ujoqVKiAoKCgQqtTfuSjBapXr17kZbFvC9+hszydPXsWKSkpSEpKAgD4+/sLs1h17NgR2traCAkJQe/evfHzzz+jUqVKEIlEuHLlClatWgUHBwcMHjxYIc9Ro0ahRYsWMDY2xsuXL7FmzRq8fv0aV65cUUj366+/Yv369fjpp5+waNEimJmZYcOGDQgMDMSFCxeEdFFRUWjZsiXevn2LrVu3IioqClFRUcJ+a2tr4a7YwcEBgwYNwqxZs6CiooL69evj/Pnz2LRpE+bPn6/Q5H7lyhW0bt0aM2fOxMyZMwt0HatWrYohQ4Zg7dq1EIvF6NChA169eoU///wTNjY2Qh8DQ0ND/Pnnn5g2bRr69++PXr16ISYmBnPmzIGmpiZmzZoFILt5f968eRg8eDDc3Nzw22+/IT4+HrNnz/6iJuii0qRJEwwZMgQDBw7E7du30bx5c+jo6ODt27e4du0aHB0dMXz4cNjb26NixYqYMmUKiAhlypTByZMnhUcLOc2bNw/t27dH27ZtMWHCBEilUixevBg6OjqFdkdcpkwZjB8/Hn/99ReMjIzg5uaG169fY86cObC0tMzV2pSXFi1a4OzZs/nuP3nypNC3IqcePXoIP+d8TJWTi4sLTE1NhTTGxsaF/mWMKYGS7JHHSi9bW9t8ezUHBwcTUXbPYDc3N7KzsyMtLS1SV1enypUr06RJkyg+Pj5Xnt26dSNLS0tSU1MjCwsL+uWXX+jVq1d5lh8REUH9+/enMmXKkKamJjk7O5OXl5dCGnnP4PxeH/bMz8zMpFmzZlG5cuVIXV2dqlSpQmvWrMlVtjzf/Hr25/Q5E8tIpVJavHgxValShdTU1MjExIT69u1LYWFhudJu2bKFatasSerq6mRgYEDdunWjJ0+e5JmucuXKwnls27atVE0ss23bNmrYsCHp6OiQlpYWVaxYkfr3768wsZC/vz+1bduW9PT0yMjIiH766ScKDQ3N89qfOHFCuC7lypWjRYsW5TmxTH693D/sPR4cHEwAaPv27cI2mUxG8+fPJ2tra1JXV6eaNWvSqVOnqFatWrlGTeTl4sWLBID+++8/he3yeub3ylnP/F6XLl0S6mhra0ujRo36ZH3Y90dElMdAUsYYYwgODoa9vT1mzZr1WdMD16xZE02aNIGHh0eR1OfixYtwdXXFkydPeGphlgsHdMYYA/DgwQPs3bsXjRs3hr6+PgIDA7FkyRIkJibi8ePHn9Xb/dy5c3Bzc8Pz58/z7JxZUC1btkSlSpWwefPmQs+bffv4GTpjjCG7A97t27exdetWxMfHw8DAAC1atMCCBQs+K5gDQPv27bF06VIEBwcXekCPi4uDi4sLRowYUaj5MuXBd+iMMcaYEuBha4wxxpgS4IDOGGOMKQEO6IwxxpgSKFCnuPT0dGRmZhZWXRhjjLHvmrq6+levCfDVAT09PR3ly5cv1PmUGWOMse+ZhYUFgoODvyqof3VAz8zMREREBMLCwqCvr/+12TDGGGMMQGJiImxsbJCZmVm8AV1OX1+fAzpjjDFWwrhTHGOMMaYEOKAzxhhjSoADOmOMMaYEOKAzxhhjSoADOmOMMaYEOKAzxhhjSoADOmOMMaYEOKAzxhhjSoADOmOMMaYEOKAzxhhjSoADOmOMMaYEOKAzxhhjSoADOmOMMaYEOKAzxhhjSoADOmOMMaYEOKAzxhhjSoADOmOMMaYEOKAzxhhjSoADOmOMMaYEOKAzxhhjSoADOmOMMaYEOKAzxhhjSoADOmOMMaYEOKAzxhhjSoADOmOMMaYEOKAzxhhjSoADOmOMMaYEOKAzxhhjSoADOmOMMaYEOKAzxhhjSoADOmOMMaYEOKAzxhhjSoADOmOMMaYEOKAzxhhjSoADOmOMMaYEOKAzxhhjSoADOmOMMaYEOKAzxhhjSoADOmOMMaYEOKAzxhhjSkC1pCvA2LcgJSUFYWFhCq/Q0FD4+Phg3Lhx0NHRQWJiIjIyMtC8eXPUr1+/pKvMGPvOcEBnLA9paWnw8vLCkSNHcPbsWURFRSnst7CwQHR0NKRSKUaMGJHn8ZqamsVVXcYY44DOWE5EhHXr1mHatGlITk5G9erVMWjQIDg4OEBHRwcRERF48+YN7t+/j1u3biEyMhIAYGpqinr16sHU1BR9+vThYM4YK3Yc0BkDkJmZiUOHDsHDwwPXrl3D8OHD8fvvv+Px48c4duwYDhw4gKCgIACAoaEh6tevj8GDB6NBgwaoX78+LC0tS/gMGGPfOw7o7JtDRLh8+TISExPRrVu3Auf36tUrdOzYEQEBAWjWrBnOnj0LV1dX/Pzzzzh48CCcnJzQuXNnIXhXqlQJIpGoEM6EMcYKDwd09s0ZOHAgdu7cCQCQyWQFDq6DBg1CWloa7t+/j8TERBw4cADLli2Dt7c3Dh8+jO7duxdGtRljrEhxQGffBJlMhnHjxkEmkwnB/McffyxwME9LS4OPjw9WrlyJS5cuYcKECbCzs4O1tTUOHjzIwZwx9s3ggM5KvZiYGIwePRp79uxR2H7mzBmsXLkSP/74I2xsbCASiSCTydClSxckJydjyZIl0NfXh46ODnR1daGrqwt1dXWFPLZu3YqsrCxcu3YN+/btw6RJk7Bw4UKoqKgU5ymWmNu3b2PChAmwt7fH+vXroarKfxIY+1aJiIi+5sDExEQYGBggISEB+vr6hV0v9h1LTU2Fr68vrly5gitXruDmzZvQ0tKCh4cHunXrhoCAANjY2GDWrFn4+++/If8Ii8ViiEQiSKXSfPNWU1ODrq4udHR0oKKigpCQELi6uuLq1asYN24cFi5cWFynWeJu376tMF4+PT0dGhoaJVgjxr5vBY2rHNBZiQsPD8eRI0ewa9cuxMXFISQkBFlZWTAxMYGLiwtcXFzg7u4OMzOzXMe+ffsWd+/eRUREBKRSKSQSCTQ0NNCtWze8efMGycnJSElJQXJysvAKCwvDokWLAGT3WE9NTYWJiQkePnwIY2Pj4j79YieTyXDs2DH069cPqampwvZDhw7hxx9/LMGaMfZ9K2hc5fY1VmICAwMxePBgXLt2DQDwww8/oEWLFrCzs4OLiwuqV6/+yWfklpaW6NSpU5779PX1MW/ePPj7+2Po0KHo3r07UlJSUL9+fWhoaEBPTw+mpqbo3bs3Ro4cCSMjo0I/x9Lm5MmTGDNmDIKDg2FjYyMEdG1tbdSpU0dIFxMTgzdv3qBKlSo8pp6xbwQHdFYi/P390aJFC5QpUwZ79+5Fo0aNYGtrW2j5v3v3Ds2aNcPTp08BAHp6enB1dYWnpycCAgJgZmaGlStXws3NDVpaWoVWbmkgk8kgFisu0yCVSjF9+nQsXrwYWlpaUFNTw5s3b+Ds7Ix//vkHlSpVEtK+evUKDg4OSE1NRfny5REUFFSkw/RkMhmOHz+OS5cuQSaTQUNDA1KpFNHR0SAimJqaQiqVQl1dHa1bt0bHjh152CBjeaGvlJCQQAAoISHha7Ng36lnz56RhYUFOTo6UnR0dJGUsXLlSgJAAKhTp04UFRVFREQSiYR27dpFLi4uBIAMDQ1p5MiRdPXqVcrIyCiSuhS14OBg2r59O82YMYPatGlDAGjWrFkKaYYMGSJcDwBUv3592rRpE6WlpeXKLzAwUEhXvnx5Sk1NLbK6h4aGUosWLQgAVaxYkUxMTMjQ0JBMTEyoZs2aVK9ePapQoQI5ODhQhQoVCABVqFBB+H0ypkwKGlc5oLNiI5VK6fbt21S5cmWqWrUqRUZGFllZMpmMXrx4QbGxsfmmefbsGU2ZMoUsLS0JAOno6FD37t0pMDCwyOpVGJ4+fUodO3aktm3bUp06dRQCdc5XREQEERGdPn1aYfu6detIJpPlm39kZCRpamqSuro6AaCOHTsW+jk8efKExo8fT1paWvnW/2OvXbt2FXqdGCtpBY2r3CmOFZrU1FSEh4dDRUUFlpaWiIyMxLZt2xAcHIw3b97g3r17iIuLQ8WKFeHp6YmKFSsWuMzQ0FD8+++/uHz5Mu7fvw9jY2P88MMPmDNnDtTU1D4rD6lUinv37uHixYvYuHEjwsPD0aFDB3Tr1g2dOnXKszNeSRo2bBj+/vvvXNvbtWsHT09P4b2joyMGDx6MWbNmoXHjxjhz5gwAIDk5GTo6OrmOT05OxpUrV7Bo0SL4+/sjIyMDKSkpWLJkCSZOnJhvfYhIaAKX95TPq0lcIpHAw8MDW7duxYMHD2BgYIBy5crh0aNHQhpdXV3s378fEokEWVlZkEgkCj+rqamhadOmhfLZYay0KXBcLalvEkw5vHjxgsaNG0dVq1YlkUiU607KyMiImjZtSj169KC5c+fS+fPnKTMzs0BlJiUl0c6dO6lVq1YkEolIS0uLOnXqRH/++ScNHDiQRCIRLV68+KvyTk1NpeXLl1Pjxo1JJBKRSCSiJk2a0IIFC2j79u105MgRunLlCsXExBToHL7WunXrFK6vtbU17dixg1JSUujly5dkYmJCP/30E92/f58MDAxILBaTrq4u2dvbEwA6cuRIvnm3bNlSyHf37t1kYGBAw4YNo86dOxMA6ty5s9CqMnv2bOrRoweZmZmRnZ0dhYSECNdeRUWFjI2NqUaNGnT8+HEiyv570aRJExKLxfTTTz/R0aNHKSgoiPT09Khx48ZUuXJlAkBjxowpjsvIWKnETe6sRERHR9Ps2bNJU1OTzMzMaMiQIbRt2zby9vam8+fP086dO2nHjh2UlJRUKOUlJibS3r17qUePHqStrU0AqEWLFrR9+3ZKTExUSDtixAjS19enf/7557Oei79+/ZqWLl1KDRo0IENDQ7K2tqaaNWtSy5YtydnZmVxcXEhPT08hkIpEInJxcaH169fT27dvFfKLjY2lkJAQSk5OLpRzz6levXpCHRwcHMjS0pKWLFlCBw8epPLly1PFihWFfgnp6el07NgxAkBaWlq0e/fuPPOUSCQUHh5O//33n5D32rVrCYDwTF7+atmyJRERVa9eXWF7xYoVCQDNmzdPYfvvv/9Ou3btInt7ezIwMKBr166RTCajZcuWkZmZGQGgcePG0enTpwvts8LYt4oDOis2CQkJtGfPHpo5cyYZGBiQpqYmTZgwoUgCFxFRRkYG7dmzh7p27UoaGhoEgOrVq0cLFy6k4ODgfI+Lj4+n1q1bC4HG3d2d/vjjD1q9ejUdPnyYbt68STt37qSuXbtSuXLlSCQSkYaGBvXo0YP++usvmjlzJg0fPpwaNWpEYrGYtLS0qGnTptS4cWOqUaMGVaxYkWrXri08e1dRUaHevXsL+eUMaHXr1qXFixdTSkpKoVyTzMxMev78OcXGxpKvr2+uYBsUFERERI8fP6aNGzcK+7p160ZhYWEKeYWEhNCoUaOENAcPHqQJEyYI6T9sbQFA3t7edP/+fWrWrBkBoF9//ZWMjIwIALVt25aIiDZs2JDruDZt2tDjx4+JKLsVJK+8AVBISEihXCfGvkUc0FmxSE1Npfr16ws9wwcNGlRkPY1jYmJo4cKFQsBs3LgxLV++/KNBPC/37t2jQYMGUcuWLalSpUrClwL5q0mTJjRlyhTatWsXxcfH55nH27dvadGiRdS3b1/q06cP9enTh9q0aUOqqqr5BqWyZctS+/btqWPHjmRjYyP0Fvfz8yuEq6No+vTpBICmT5+u0NFN3oQtb02Q/zt27FghXa9evRTq7erqSj4+PiQSiahfv37C9pwjBuTnA4DMzc3JwsJC+EzIH7HcuHGDQkJCaM+ePbR//34KDQ3Nt97Nmzen1q1bk56eHo0YMYKysrI+er6ZmZl08uRJ2r9/f5H2vmesJHBAZ0UuMjKS7O3tSUNDg44dO1Zk5QQGBtKIESNIW1ubNDQ0aPDgwcJdXWGQyWQUFRVFd+7codevXxcor9jYWPLz86NDhw7RqlWraOLEidS7d29ycXGhSpUq5dt7++XLlwU+j/j4eBoyZAitX7+eqlevTk5OTgqPFkJDQ4Xyjh8/TpGRkfTnn38K2zw9PSkyMjLP+tWuXZsA0LRp02j79u108eJFunv3LvXq1YumTp1KdnZ2ZGtr+9Ee6K6urvnWPTw8nGbPni18ycl5XP/+/en58+cK6aVSqfBIJTY2ltq3b69wTKdOneju3bsFvqaMlQYc0FmRmz9/PgGghw8fFnreMpmMLl26RF26dCGRSERmZmY0Z86cIh3SVhxkMhnFxMTQgwcPaMWKFcIQsE2bNn3W8RKJhK5evUrjx4+n+vXrU7ly5UhLS4vU1dUV7pIB0PDhwxWO/eOPP8jQ0FDhy8OZM2cIAGloaJCmpiY1b95cON7S0pICAgLIysqK9PT0yNHRkR48eJBv3R49ekQ9evSg7t2752qab9KkCT179izfYzt06KCQvl27djRixAiFbevWraNFixYJnfEA0NSpU8nc3Jx0dXXz/BIxbdq0z7qujJVmHNBZkfPx8SFVVVXq1asXSSSSr8pDfqf1+vVr8vf3Jz8/Pzp58iS5uroSAKpRowZt27Ytz4lOlIFUKqXw8PCPjv8myn7cIL9L/pyXSCTKdc169uxJ+vr61LNnTxo5ciT9/PPPCseMHj2aevToQXXq1KHGjRvTwYMHC3x+KSkpnzV6Qd6pz9TUlFRUVOjw4cN0+fJlcnZ2pkWLFpGBgYHCc/ePnXvLli3p9OnT1K9fP5o+fTq1b9+eHj16VOBzYaykFDSu8tSvLF/R0dHYuXMnWrdujX379sHd3R1qamrYvn17rqlF8xMbG4sRI0bgyJEjyMrKyrW/QoUKOHbsGLp27arU03mKxWJYWlp+Ml1oaCju37//2fnGxsbi5s2b6NOnD8qUKQNzc3NoaWmhWrVqiI6Ohr+/P1JSUrBixQqoqanBzMwMP/30U6Ffa21t7c9Kd/z4cXh4eCArKwu//vor4uPjoaKigmbNmuHBgweQSCRC2uvXr+eZx5o1a+Dt7Y1jx46hVatWqFixImbPng0AUFdXx/Hjxwt8Pox9k0rqmwQrvaKjo2nSpEkKd0NNmzYVmmmXLVv20eOXLl1KVlZWZGJiQmpqamRoaEjLli2jffv20dmzZ+n69ev06NEjCgkJIalUWkxn9e1IS0ujpk2b5roj7dy5Mw0YMEDoUAZk9zL/MJ28p/3Zs2dJJpPRihUrcjWLP3ny5IvqlJqaWui/q+vXryvUy8rKSuH9ihUr6K+//qKffvpJYbu1tXW+d+2Ojo5ERJ9sCSkJmZmZ9OzZMwoICCjpqrBSipvcWaGQyWQUFhZGf/31F5mYmJCBgQG5u7vTwoULae/evdS8eXNSUVEhALRmzZp880lPTycVFRWqWLEiLViwIM9x2ix/6enpNGDAAAJAVapUIX19fWrZsqXCFLZDhw4lAFS9enVSU1OjyZMnCwFt1qxZwrCx2rVrk0wmo7Jly+YKfIaGhp817jshIUF4/u/s7EwxMTF069atXJ3XvkZGRgb17dtXqJOTkxNVrlyZypUrR7///jsNGjSINDU1ydDQkIYMGUIDBw6kSpUqUYsWLcjDw0PhfOrVq0ceHh505swZofe+vb09jRgxggYOHJhrPgKJREIhISFFHviTk5Np8uTJ5ODgIPz/UVdXp/Dw8CItl32bOKCzAsvIyBCeZaurq9PgwYPzDMIZGRmfHFZERDRw4EDS0dGhGzduFEV1ldrRo0cVgu5vv/0mzMlOlHtednlnsN69eyv0MtfV1aVmzZoREVFQUBCZm5srHFe5cmWKi4v7ZH0+XNRF/qpTp06hnK9EIqE//viDfv75Z/r1119p+PDh1LJlS1JXVydHR0eaMWOGwsRBJ06coGrVqgl36l27dqURI0ZQgwYNPjqU8IcffqCEhATy9fWlBQsWkLGxMQGgv//+u1DOIy/p6en51qegoyyYcuKAzgpEJpPRkCFDSE1NjbZt21YovcuTk5OpcePGpKWlJUx0wj5PRkYGnTp1ig4ePJjnwjKbN28WvniNGjVKCMry/481atQgQ0ND0tHRobNnzwrHRUZG0rhx48jDw+OLpt7966+/8gxIGzduLPC5fo2cE+HIXzY2NtS7d+9c0+J++MprauI9e/YUeh2jo6Ppjz/+UGgZmTt3LrVv35569OhBPj4+hV4mUw4c0NlXSUlJoXXr1lGlSpUIAG3durVQ809OTiZjY2MaOXJkoeb7vZLJZHT27FkaMmQI1axZU2GylnPnzglT0w4aNIj8/PyoS5cuZGFhQSdPnixQuXFxcTRp0iTavHkzPX78mO7cuUNPnz4t6Ol8tfT0dFqzZg3Nnj2bdu3aRa9evVLYv3PnTurWrRs1b95cYdhbzlft2rXJyMioyFbV+3Bo3qJFi4qkHKZ8OKCzL/L69Wvq378/6ejoEADq3bs3eXt7F0lZf/31F4nFYlq6dGmR5P89kEqldPbsWYWFU4DsCVXc3Nxo1apVpKKiQh06dKCDBw8KnRnt7OyEJuihQ4d+s2u9f47nz5/TP//8Q6NGjaKOHTsK16hmzZq5JvjR1NSk8uXL03///VeodZBKpXTt2jUaNGgQAdlzAwCgc+fOFWo5TLlxQGefRSaT0ebNm0lfX58sLCxowYIF+XZsevfuHV26dIkePHjw1ePOiYiysrJo7NixBIBn8/pCEomEtm7dmms2tbxew4cPJx8fH2GqXHkgyTlhS6dOnejevXv5lpeSklLqRxwEBQWRh4cHrV69mlasWEFLly6lmjVrCudYqVIlYcGXnE3sVlZWZGdnJ3yBLcy/WS9fvqSuXbuSvr4+AdmT9Cxbtoy6dOlCAOjNmzeFVhZTfhzQ2WeRD28aOHBgns9m5e7evUtlypQptA48b9++JQDCMprs04KDg6lOnToKvwNTU1NatGgRXbx4kXr27Kmwr0uXLkInL/krISGBXr9+TT4+PrRs2TICsqdazSkzM5P2799Pe/bsISB7DvqdO3d+9PNRVB48eEBr166lBQsWkKenp7A9KSmJHj16RPfv3yddXV1hsRxdXV1h1T15B0J50FZVVaVGjRrRzz//THXr1iUA1KxZMzp9+nSh9moPDAwkCwsLsrOzowULFpCPjw8lJydTgwYNhHpNmDCh0Mpjyo8DOvukBw8eEADy8PD4ZNoZM2YQANq1a5fwR+nSpUtfXba3tzcBoPv37391Ht+bnAGhcePGtHr16lz/z7y8vPK8W9+8eXOuTlfy3ykA2rt3LxFlNxF37do1zzx69uxZbOdKRDRnzhyho5+8DnZ2dmRjY6Mw1Ev+5aVZs2ZkbW2t0MlNX1+f+vXrRz4+PvT48WOF82ndujWNHDmSXF1dqXLlylS/fn3q3r07DRkyhKZMmUIeHh4UFhb2RcE+ISGBKlWqRNWqVVPoSBocHExisVgoW1VVtSguGVNSPFMc+yQNDQ0AwO3bt3Hjxg3UqVNH2JZTSkoKTp06BQDo378/dHR04O3tjQYNGnx12efPn4eZmRkcHR2/Oo/vjaOjI8LDwzFlyhSMGDEiz1nd2rRpg8zMTKiqquL06dMYP348+vXrBy0tLfj4+AAAvL294e7uLrwHgMTERADAnj17cOLECYU8bW1tERISggMHDmDfvn1FPnNfQEAAJkyYgLNnz2LGjBmYOXMm9u/fj5s3b8LAwAAikQi2trZYt24dHjx4gLp16+LmzZtIS0tDWloaiAgAYG1tjStXrqBChQoAgKSkJDRu3BiBgYGIjY3F7du3ERERgSpVqqBLly6Ij4/H69evERoaitjYWISGhmL48OGoVasWfHx8oKenl2+dQ0NDsW7dOuzduxcxMTF4+PAhzMzMhP12dnbYu3cv3N3dAQCLFy8uwivI2AdK6psEK15z584V7hoqVqyYZxr5WHQAdOzYMXr37t1XlxcZGUk7duygypUrU7t27b46H/ZpUqmU9u7dS2vWrMn3ObuFhYUwc1xMTMxHn8m7ubl9cR3u379P27dvp3///fezljVNT08ne3t7qlixIs2fP5/CwsLowoULlJmZSYmJiQrP83POhufo6EgjR46k0aNH56p3XuV+Tr+AyMhI2r9/P6mpqVH9+vVpzpw5lJycrJBGJpPR33//TVpaWgrj3XOOkZfJZPT7778L+/r37//JshnLiZvc2UdFRkbSjz/+qLAW+IoVKxTSzJw5M9cfx4I8Rw0ODiYjIyMSiURUpkwZ2r17d0FPg33EgQMH8gzMmpqaCu/la76PHDlSIdDLZ6aTv/7444/PLjsrKyvXIirVqlWjJUuW0J07d/I9LjY2lvT09PJdgKV8+fIkk8lIJpPRgwcPaOTIkdS9e3caPnw4TZ06VVjCVSwWk7Ozc6F8xo4ePUqdO3cmLS0tMjAwoDp16pCrqyu1bt2ajIyMhLo1atSIgOwJfHI208tkMiHYb926lWdIZF+MA7qSSU1NpfPnz9OaNWto+fLltHbtWtqzZ89XX+eaNWuSubk5rVixIt9JXnLe2Y0aNarAK1b9+++/BIBCQkIKlA/7PL6+vsKzZgDC3AK9evWiFy9ekK2tLbm4uFBWVhbJZDKhR7b81a5dO3r69Clpa2tT165dP3qHnZmZqTAxzaNHj4R83N3dFfLt168f3b59mzZt2pTnNLNHjhzJd172Fi1a0Pjx46ly5coEgLS0tKhhw4ZUu3ZtsrOzo6ZNm9L58+eL5HoGBwfT/PnzadiwYdSjRw+FL0aurq7022+/EQA6evSownFXr14Vnuc/ffqU4uPjKSAg4LNmV2SMiAO6Ujl+/Hi+zaCdO3emuLi4T87ylZqaSidPnqS5c+dS48aNCSj+Hub79+8nAAVqsmf5k8lkNH/+fBozZgwFBwfTjh07yN7envT09CgwMJDatWtHAKhjx47CeuXy8dDyfTlfx44do6pVq1LVqlVzNTUTZd9NHz16lHr16kWqqqoKj2w8PT2F5uWsrKx8P785Z63LST5uu3z58jRp0iQ6ePAgNWvWjIDsIWBDhgyhkydPflYzflHx9fWlMWPGkKWlJdna2pKOjg5paWnlGvbZokWLPM+9QoUKtHbtWp7ulX0SB3QlMm3aNAKyF5rYtm0bbdy4Ubjb+vDl5eVFBw8epE2bNtHNmzdJJpPR7t27ycLCggCQgYEBdevWjf75559iX3lq7NixZGVlVSpXvFIG/v7++QbOPn36UEBAAA0fPpzatm1LTZo0oVWrVgm/C3k6Y2NjGj16ND148IBMTEwIAD1+/FihHJlMJqywl/Nlb29PUqlU+GIBgF68eKGQ/08//USGhoYEgKZPn57vZ6F+/fpCy9D48eNJX1+fypUrR56enqV2XHxSUhLFxMTk2h4aGkpz5syh2bNn09GjR2n58uV06NAh6tKlC6mpqZG+vj6dPn26BGrMvhUc0JWITCbLdQe+ePHifP9453zJ/yj37NmTAgICSiyY3rhxgzQ0NGjSpEklUv73IDAw8KOfBfmXupkzZ+Y6Vv45kb9yTlOaV7+JnHMS1KpVi+bNm0cXLlwgQ0NDYRIXbW1tIaAnJCTQsmXLyMbGhlRVVWn27Nkf/SxGRUXR+PHjqXz58mRpaUljx44VnvUrkwsXLgjXUT4d76tXr2jZsmX0zz//COmSk5Pp7du3wpcZqVRKt27dKtEWClZ8OKArOalUSidOnKB69eop/CFu27YtnTp1iiIiImj16tXUvHlzWr9+fYnVMysri1avXk0aGhrUuHFjSktLK7G6KDP54iw5X+PHj6f+/fsLq5DJX/Xr1ycdHR26cuWKcHxwcDD9/fffQhr5Eq1DhgzJs7xr167Rhg0b6MWLFySRSOjMmTNUrVo1qlKlCk2bNo22bNlCMTExFBoaShMmTCB9fX1SU1Oj/v3757rj/56FhoYq/G6srKwUxtFPmDBB4cuWmpoaVahQQXg/evTokj4FVgw4oH8nZDIZBQYG0qFDh2jq1KnCYhwAhBmycn77L05+fn5Uu3ZtEolENGLECA7mRcjDw4M0NTVzdUB7+vSp0PNb3qQu//n06dM0adIkWrJkiZBPzo6QrVq1+qy74sGDBwtfAh4+fEhERHfu3KHevXuTiooKGRoa0pQpU/hZ8UekpKTQ4cOHaerUqbR9+3by9/enmjVrKoxC2bx5M61bt05htbYNGzaUdNW/WVKplB4+fEgnT56kgwcPFmg666LGAf07FRcXRxs3biQACr2WmzRpUmx1ePfunfBHvm7dunTz5s1iK7s0OHbsGNWrV49cXFyKfe33M2fOEJC9dOjHmt+7detGP//8s8KjmQkTJpBMJqPk5OTPmiEtIyODtmzZQgDI1taWZDIZJSQkCL297ezsaPXq1Xn2ZGdf7/Lly2RpaUna2tokFovJzc2NLl68WCr6piQkJNCTJ0/I09OTtm7dSnPnzqUFCxbQ+vXr6d9//6XTp0/TjRs3SvzxSVZWVq5plEvzMFoO6N85b29vheegP/30U5GXKZVKafPmzVSmTBkyMDCgdevWlepvvUVBIpGQqakpNWjQgKpWrUoODg4fTV/Yf4QHDRpE1apVo5SUlFxBPCIiQmH6WAAK46gB0K+//koXLlz4aBmJiYm0aNEisrKyIiB7GFxERAR5eXmRjY0N6erq0oYNG3hYVhFLSkoiDw8Pql69OgGg6tWr044dOwq906BEIqG4uDgKCQmhhw8f0sWLF2nHjh00d+5c+u2336hdu3ZUrVo10tXVzfWZMzU1JRMTE4VJd+QvGxsb6tixI02aNInWr19Pu3fvppMnT5KPjw8FBARQfHx8kX1JSU9PJz09PTIyMqLdu3cLn2V9fX06cuRIkZRZEAWNqyKi9/MnfqHExEQYGBggISEB+vr6X5MFKySpqano168fjhw5gufPn6NSpUpFVpa/vz8GDRqEGzduoH///liyZAnMzc2LrLzSKiIiApaWlti7dy+kUin69u2LuLg4GBoaCmnCw8OxcOFCHDt2DG/evEH9+vVx6dIl6OjofFFZKSkpSExMhKWlJZKTk3HmzBkMHDgQY8aMgZ6eHqZNm6aQXiwWQyaT5crH2toa8fHxSE9Ph0Qigbm5OSIiIhTSyGQy+Pn54cCBA9i/fz/i4uLQr18/jB8/HtWrV8fOnTvx66+/omXLltiyZQvs7Oy+6FzY55PJZDh69CgiIyORkJCApKQk3L59G15eXgAAV1dXeHp65nt8dHQ0Hj9+LLyioqKQmZmJrKwsZGZmIi0tDYmJiUhMTERCQgJSUlLyzMfU1BTlypVDuXLlYGNjI7ysra1RtmxZWFlZQV1dHQBAREhNTUV8fDyioqLg7++PR48e4fHjx3j06BHCw8MhkUhylaGlpQULCwtYW1ujRo0aqF27NqpWrQoDAwPo6elBX18fRkZGUFX98tnKDxw4gP79+yMrKwtr1qyBlpYWBg0aBADIyMgQ6l4aFDSuckD/xmVkZEBTUxMAMGrUKKxZs6bIynrz5g0cHBxgaWmJjRs3wsXFpcjKKu1kMhnq1KmD5ORkrFixAj/88AMAYNeuXejXrx/Wr1+PyZMnQ01NDfHx8QAAQ0NDREdHf/EfpX79+mH37t1wd3eHSCTCvn37AGT/HzQyMoJUKlVIb2lpibdv3yps09fXR3JyMurXr49WrVphyZIlWLBgASZPngwAePnyJdauXYtDhw7h9evXsLKyQo8ePTB27FiUL18eAHD37l3Uq1cPffr0wa5duyAWi7/0srHPJJVKMXXqVCxduvSj6aZOnQpXV1eYmpoiMjJSWK/hxo0bwmdAQ0MD1apVg6WlJTQ0NKCurg51dXVoaGjAwMAA+vr6Ci/5NmNjY1hbW0NLS6vQzouIkJaWhoSEBMTFxSE6OhoRERF4+/Yt3r59i9DQUDx8+BBPnz7N9aVUR0cHLVq0gJubG5o0aYKqVat+dL0BIkJgYCC8vLwQGBiI9evXC19iV6xYgQkTJmDVqlUYM2ZMoZ1fQXFA/47FxsaiWbNm8Pf3R8uWLXHx4sUiXVBjxowZWLVqFcLCwmBkZFRk5ZQGRIS3b9/CzMwszwCclZWFRo0a4c6dO3BycsLt27cBAIMGDcKMGTNQvnx59O/fH0ZGRli9ejXMzc3h5OQEbW1tODk5QSaToX///rCyshLKCwsLg7GxscId/Lt372BqagoAEIlE6NWrF/bs2YOyZcvi9evXePnyJfbt24fY2FgsX74cAFChQgW8fPlSob4qKiqoW7cuVFRUcOPGDQwZMgTr168Xzs3Ozg4hISH46aefMHr0aDRu3FgI2FFRUdizZw9u3bqFPXv2YOTIkVi3bl0hX3FGRDh48CAOHDiAw4cPK+w7duwYdHV1kZSUhNevX+PJkycICQnBjRs3EBcXJ6TT0dFBgwYN4OzsjDp16sDR0RGVKlX6qjvbkpSWloaQkBAkJSUhMTERSUlJePr0Kby8vJCSkoKbN2+iXLlyaNeuHVxdXVGvXj1oa2vj3bt3Qrpz584hJCQEGhoaKF++PKytrTFq1Ch07doVANCiRQuYm5tj//79JXy2/1fguFpSbf2s4P744w/S19enBw8eFHlZ9+/fJzU1te9mfPmECROETmC3b98WticmJtKBAweExW7mzJlDQUFBdO7cOQJAs2bNoiFDhpBIJKKoqCg6f/58rmeKOjo6pKurSyYmJrRy5UqaNGkSWVpaCmO67e3tCQBNnDiRmjRpQgDI2dlZqBMA2rJli0J9p06dmmenuJxLkgKgpk2bCiMhYmJiaPDgwULZAHJNp+rp6UkaGhqkoaFBFhYWZGJiku+sb+zrZGZm0vr166lcuXK5fn/z5s2j4ODgfI+VSqX04MED8vX1padPn34XfVmSk5Pp9OnTNGbMGOH/yoevypUr0+jRo+nMmTOUkpJCEomEoqKiiCi7M6+XlxeZm5vTmDFjSvZkPsCd4r4zYWFhdOzYMZo1axbp6OjQuHHjirzMtLQ0cnR0JEdHR0pPTy/y8kqDmjVrUt26dcnJyYksLCwoNjaWzp07p/BH18HBQaFjUosWLah8+fLCUDC5xMRESkpKooyMDHr16hVJJBKKjo4mNzc3AkBlypSh33//nU6ePEmLFi1SmELUxsaG5s+fT+np6SSVSmn37t3k7e2dq77y0QZA9gQwc+fOpfDwcNq2bRvNmDGDtm3bRq9evVI4Rr7ICAD6+++/c01lSkTC6mE5h7yxwvP8+XNhtjz5y8XFhY4ePfpdBOfCEBISQp6ennT8+HHy8fGh8PBwhf3yERoAqGXLlsK6B+XKlaOAgIASqnXeOKB/w2JiYujff/+lNWvW0Lx582jChAnUp08fsre3J0NDQ6pcuTK5uLhQzZo1ycHBgWrXri18MA0NDalv374KyzcWlT/++IPU1dWLpSWgJGVlZQkBumbNmjR48GAKCwsjIHv6UjU1NWrVqhU9e/aMnj9/nuvLTc7hYV5eXp9VpkQiydVbWSaT0eHDh+n06dNF8kf92bNntG3bNtLS0hLqK7/rDgwMJE9PT7p79y4lJyfTq1evSEVFhbp161bo9fiehYSEUM+ePRUCebt27ejZs2clXTWlk3OMPwDq27cv3bt3r1QM//sQB/Rv1K1btxRmhtLT0yMDAwMCsmeRat68OQ0dOpTc3d1p0KBBNGrUKBo8eDDt3LmT3rx588UfRqlUSptO/kfpGV82xOj27dskEolo6dKlX3Tct+bEiRPC70J+t7tnzx7y8fERttva2n500pzDhw+Ts7OzsBBKaSQfvw5kTxHbu3dvYSa5w4cP52q6FIlEZGJiQv/9918J11x5vHv3TmEWODU1NfLw8OA78iLy+PFjMjc3V/hcq6qqUq1atWjkyJF08OBBoTm+pHFA/wakpKTkugv78A9nzuUv5S93d/dCrceEDafIoNko6r9gL4VGxn0yfXR0NDVs2JAqVqxY6H9spFIpPXnyhHx8fCg0NLRQ8/6U1NRUOnv2LIWFhQnb5Etfyl8//PADSaVS6tq1q7DtW292lslk5OLiQpUqVaL4+Hjav38/jRgxgho2bCj8wevQoQMFBwfTjRs3aOfOnbRjx44853hnXy/nkrFDhgyh6Ojokq7Sd0EqlVJERAT5+vrShg0b6Ndff1VY/KpGjRo0bNgw2rhxI/n6+pbIREkc0L8B8qkd5QtYEGXfDa1YsYKuXbtGDx48oPXr19OBAwfo4cOHFBUVReXKlVN4DlsYpFIpVfpxNnnffkpRsfF05ZQned/Le410IqK+ffuSlpZWoc6ClpmZSTt27FCY1hIArVq1qtDK+JQpU6YI5VaoUIHatGlD3t7elJycLNydDxs2jIiI1q1bl+uL1qcmZCmtnj17JpyDfKIZe3t76tOnD82aNYtmzpxJERERJV1NpTd79mxyd3cXps9lJSssLIx2795NgwcPJgcHB+HmSlVVlVq3bk2rV6/+aMfEwvDmzRvasGEDtW3blgN6aSf/I6qrq0tjx46ly5cvfzT9yZMnCUChN93KZDI69yiMouKT6dXWNfR06I/Uu21vqvTjbFp16BplfXAXPnr0aDIzM6OXL18WqNysrCw6cuQIderUiXR0dAgAubm5CT248+q1XZR27typEKDr1KlDKioqNHv2bPL396c//viDTE1NSSaTkVQqzdWTdtGiRcVW18Ikk8nI09OTpk2bRnPmzOHFUxjLQ3p6Ot29e5fWr19P7dq1IzU1NQJAjo6ONHjwYFq1ahV5eXkJHVy/RkZGBl27do3mzZtHDRs2FFppmzVrVqC4yuPQC1lQUBCePXuGtm3bCmM/GzZsCKlUCplMhnv37gEA7ty5g7p16wrH0ftJEC5fvow5c+agZs2aOHfuXKGNK5fKCDdD4/AqLhXVNLOgu20BZAmxAIB/IjSwLEwTukZG6NmlGeYMdIWpoQ6Cg4PRpk0bxMfHY8qUKRg8ePAXjT+PiIjAli1b8Pfff+P169do2LAh3Nzc0K5dO4wbNw6+vr4YPXo0Jk6cCDMzs0I5T7mEhARMnToVV69exYEDB1C9enWcO3cOWlpaaNasGdLT07F48WLMnTsXANCqVSv4+PggKysL7du3x7lz5xAYGIgqVarg33//xYABA2BtbY2QkBDY2tri1atXhVpfxljplJiYiPPnz+PMmTN48OAB/P39kZ6eDgBQU1ODnZ0dKlasCGNjY2hqakJDQ0NhAh81NTVhNrqwsDAEBgbCz88PKSkp0NfXR+vWreHm5obOnTtDRUWFJ5YpTeQB+MiRI3Bzc8Pr169RqVIl9OrVC56enrCwsMDr16+RmZmJFStWYODAgXj69CnGjh2L8+fPQywWo02bNti+fbsw6UhBpWVJcfXlO8SkZgEAzHTVMePPdZioEoAaOtmzjF2JV8WkIB2ki1TxY3MHeAxrB/0q1RATE4MpU6Zg586dkEqlqFu3Lho3boxGjRqhcePGsLGxUfjS8fTpUxw4cAB3797F6dOnoaamhj59+mD48OGoW7cuHj58iA0bNuDvv//GxYsX0apVq0I5x5xSU1Ph4uIiTPZy584dGBoaomLFigCAOnXq4Pz585BKpbCwsACQ/eVDR0cH+vr6kP+X8PT0hKurq5BvVlYWdu/ejfLly6NFixaFXm/GWOknlUoRHByMFy9eICgoSHjFxcUhIyNDeGVlZQnT7GZmZkIqlcLa2hoVK1ZE48aN0apVK9SpU0dh0h+eWKYUSE5OFsYfy1/y5hkzMzMqU6aMsL1u3boK6eQrpZUpU4b++eefQhmG9ibh/z2xY1Iy6MijcPr3bhj9ezeM/guNJalMRlcevCQDp0G05see9PQ3N3r6mxud6NuDTp67TvHXL9LLWaNJmpn5/zzfvKFNmzZRv379qGLFikL9raysqEePHrR8+XIaPXq08HzWxcWFVq1aRXFxcUIeHh4ewpC7ouo1L5VKqUePHkL9xo4dS0TZzc3t2rVTuO7yyV3u3bsnHO/t7S10ELt06VKR1JExxvLCi7OUAoGBgbC3t8+1vXLlymjXrh0mTpyIS5cuITAwEP/99x+ePXuGUaNGQVVVFZmZmahVqxZcXFwKZc7k8MR0/Bcahx9qWCI0LhV+IXGQEkEEoJ61IaqY6gpp+83fiwOHz+P3sukYYpUBAIiRiKFhaQ3d6FAYd+4Jk64/51lOVFQU/Pz84OfnB19fX9y6dUtohgKAW7duwcnJCUD24iK7du3CiBEjAADe3t5o2bJlwc4zPBz//vsvEhISMHLkSFhaWiIzMxNTpkzBypUrhXRpaWkIDQ2FRCLB33//jQ0bNuDQoUMYMGAAmjVrhh07dsDY2Fghb5lMhpSUFOjp6RWojowx9iV4LvcSkJiYiPv376N8+fKwsbEBkB0EoqOjERwcjPbt2yMhIQFRUVHCPNzFIVMqw5mASKRmSVHZRAfP32WvnqSuIkLT8saw0NNUSJ+RKUH5bjPwLiIK01vaoXvifajnXG9DrALbGUuhaW336bIzM3H37l1MnDgR165dw4EDB6ChoQEdHR1s3rwZ+/fvh6amJtLT03Hy5El07tz5y88vMxNXr17F9u3bceDAAWHVpmPHjsHV1RWtW7eGn58fatasiYcPH2LHjh2oXr06GjRooJCPr68v6tWrB1VVVV5ghDFWahQ0rn5bM/aXAv7+/nBwcFDYZmZmhtjYWCHAqKqqYvHixcUazAHg3pt4pGZlPxOXB3N9DVW4VDSBnkbuX7WGuiq2zPkVP49bg+kLJ8J31XKYv7z7/wQyKSJ2rIPt1MUQqah8tGx1dXU4Oztj6tSpGDVqFHr27Kmwf+zYsQp3zl/jl19+wd69ewEAFStWRFBQEMaOHYuuXbtizJgxuHv3LrS0tPDw4UM4OzvD0tIS8+fPB5C9+Ei9evXQt29fNGrUqED1YIyx0ojv0L9QfHw8Ro0ahaCgIPj5+QHI7um4cuVKmJiYwNjYGLVr14aJiUmR10UW8wZQ14JYrwzCE9NxOeidwn41FRHaVTGDvqbaR/M5fOwi6vx3CFnvIvPcr9e5F6y6/iS8JyLExMRAJpNBR0cHWlpaEIvFICIYGxvDwMAAa9asgZOTE9LS0pCamorq1asX+G7Y29sbQ4cOxYsXL6CqqgqJRIKlS5ciMjISy5YtQ//+/bFr1y4AwPHjx9GtWzfh2MmTJ2PRokUFKp8xxooSN7mXoIyMDMybNw8LFizAxo0bMXTo0GItn7IykHX/PKChg/tSY7wkI8hEikFTLAIcLPRRw1zvo0PgZOlpSPD1Rpz3GWRFKa6lnQkxqs5bA3VzK1y/fh3u7u548+aNQhptbW3o6OggOjoaANC0aVMcPny4UIejyWQyLF++HJMmTYKlpSXs7OyEL1ULFizA9OnTcx3z559/CkPT2LdNPoywKJcIZqwkcZN7MQoNDcXOnTshkUigrq6O+Ph4eHt7A0Chj6P+HCI1DaiUr42U0ECUsSqHynEv8DpJgueq5kgXqcNcVwNVTXVhZaD5yT+CYk0tGLXqBMMWHZDy+C5iLpzCu4d3cOJFGC6FROD5fntkqqohNjYWzs7OWL16NVRVVZGSkqLwOnPmDHx9fXHt2jXs2bMHY8eOLfB5vn37FgEBAXjz5g0mTZoEAFi5ciXatm2L3r17o0yZMsIXiZyuXr2KZs2aFbh8VrKSk5PRqVMnXL16FZcuXeIhg4zlg+/Q8yCRSKCiooI7d+7gwYMHUFdXx5MnT/DPP/8gOTkZ+vr6yMjIgJGREaysrDBs2DC4u7vnyufly5fYsmULTp06haysLOjr62P58uVo2rRpodU1PCEN6RHBMEQG9JPDAbEY0sxMSPXNoWldGSLdMl91R/Pu3TtUKF8eScnJaGRtjtqmhjCp54zKzbMnQdDV1c3zOCLCuXPn8OjRIwwePBhlypQp0Pm9e/cOVapUQVxcnLCtRYsW8PLyEsZvXr16FS4uLgrHVapUCU+fPoXKJ579s9Jv7dq1GD16NAAgMjKyRL48M1Yc+A69kL19+/ajE7qEhYXB2tr6k/ls3rwZw4cPh6amJnr16gUDAwNcunQJzZo1w82bN3P1vP4amVIZ/guLhzRDHe3Vo7I3ymRQUVODKDkaksdvINIxhNiyEmBkCRVV9c/O++bNm0hKTgYARKppYezkKVDzvwvrju2glk8wB7In1unQoQM6dOhQoHMLDQ3FqlWrsG/fPqSmpgIAXF1dcf78edy7d0/hS4qenh7q1KmD4cOHY/DgwUhOToaqqioHcyXRrVs3pKWlwd3dnYM5Yx/BAf0DFhYW+Omnn3Dw4MFc+9zd3T8rmAPA6tWrIZVKMWHCBCQlJeHZs2cICQkBAGhoaBRKXe+/SYCRlhqqlLOGZroaZK+fQEQEEGV3UlPXAkmyQJlpwItbgH2TT+b5+vVrDBo0COfPnxe2vQx+hd1PXmLOrJWQxMd+cT0zMzMRGBiIsmXLfvSOPTY2Fn///Tfu3LmDY8eOQUdHB2lpacjKysLYsWNhYmKC8+fPY+TIkQrBuk6dOrh79/+983n8uHIpV66c8KiFMZY/bnLPg5eXFwYMGIC3b7M7h82fPx99+vSBnZ3dZ+fh6emJDRs24MKFC7C2tkalSpXg6OiIfv365Rr29jWkMkJalhS674ejEREkgb6g5FiIxSqA/NeqqQORWQVQ6COIbapDbFb+o/l26dIFt27dwrp169CpUydkZWUhNjYW1tbWClMUfokff/wRR44cAZB9Bz9s2DDY29tDTU0NT548wejRo4U50/v27QszMzNMnDgRbdu2Re3atYV8RCIRpk6divnz53PHKMaY0uFe7oUsIiICdnZ2aNq0KRYtWiTMdvYtoIw0ZD3wAkgGsboGIJNl7xCJsgO8WAXiGi0hVsu/haBbt264fPkyevbsCXt7e4wcORKampr5plconwhPnz7FxYsXYWxsjB9//BHq6uo4c+YMOnXqlOcxJiYmePfuHTZv3oyOHTuibNmycHFxweXLlwFkN71fu3YNKioqaNiw4Rd9qWKMsW8JP0MvZHfv3kVGRgaGDh36TQVzABBpaEHFriakQXcAs/LAu1BAkvX/u3WZFLKXtyGumn/T+6ZNmzB37lxs2LABAPD8+XOMHj0aQUFBSElJwU8//ZTns+kZM2ZgwYIFALInmcnMzISGhgbatm2LDh06YMuWLcjMzMS9e/fg5+eHx48fo3Xr1li/fj3s7e3x22+/CV8c5IuoANnNrb179y6sS8QYY0qL79BzuHPnjhDEO3TogDNnzpRwjb4cEUEScB1iMzvQuxAgJT5XGnG5GhCb2n40H19fXzRpkjvw+/n5wdnZGQCwbt06jBo1SrjLBgB7e3vcvXsXwcHBOHv2LI4dOwZfX1/IZDKIxWLI5K0GAObNm4fp06fj559/xoEDB6CtrY2HDx+iQoUK3KTOGPvucJN7IfiwZ7u7uzvmzZuHypUrl2Ctvp40JQH0+gmQHJd3gs9oegeAnTt3YsOGDXj37h3s7e1x5swZODg4wMHBAUlJSTh79qyQtnnz5lBTU8P27duF+e3lJBIJRCIRiAh+fn54+vQpGjVqhBo1agDI/hJy/PhxiEQihdndGGPse8IBvRBMmDABK1asAACYmpoiICAg1wpc3yJZRhrobSAoLgKQSRX2ZeoYQ9veOd9j6X1P+ZxmzZqFEydOIDY2FiYmJqhevTp0dHQwcOBAYdw5AIwaNQpr1qwp/BNijDElVtC4yktNARg8eDCqVq0KAIiOjsaFCxcAZM9QdfPmTVy6dAlhYWEKzcVAdtArzcQaWlCxqw1xLVeIy9oD6v/v3KaeEgPZu9B8jxWJRLh16xaOHz+Obdu24d9//8WsWbMQFhaGkJAQ3LlzB3p6evDw8ECDBg2QkJAgHLt9+/YiPS/GGGO58R16DhUrVsTLly8RHByMxYsXY9OmTQpBXFNTExUrVoSuri4SExPx9OlTqKqqQlNTExYWFvj1118xYcIEqKl9fDGUkpQVGwFZVDBUUmKzm94dW0H8BRPOXLx4ETt27EB8fDyWL1+OKlWqCPtiYmLg6emJunXr5rk+PGOMsfxxk3sh6tKlCy5duoRy5crh5cuXmD9/Plq2bAldXV28ePFCeKWlpUFTUxMODg4gIqSlpSEgIAA7d+5Ex44dsWfPHujo6JT06XxUdnP8M0AkhoqtY0lXhzHGvnsc0AtRcHAwJk+eDKlUiqlTp37xsLUzZ87ghx9+gEgkQvv27WFjY4Pjx4+jadOm+PHHH9GtW7dSd/cu733OGGOsZHFAL2VevnyJEydOYP/+/YiPj0etWrVw//59BAYGolmzZjh16lSJXK/u3bvj6NGj+OGHH2BlZYWgoCDY2Njg999/R61atfD8+XM8evQIDRo0+OzpbRljjBUeDujfiOvXr6NTp05ISEiAvb29sIpbcdi1axcGDBiQ576lS5fi559/FoaaNW/eHFeuXCmWejHGGPs/7uX+jWjSpAlu376NcuXK4enTpxg9ejTS0tKKpeytW7cKP5uZmaF79+44ceIEPD09MW7cONy/fx8AULlyZWGGOMYYY98WvkMvRi9evMg1WU1ERATMzc2LtFypVIqIiAgYGhrm21kvIiICZmZm/DydMcZKCM/l/g3ZuXOnwvuaNWvCyMioyMtVUVFB2bJlP5rGwsKiyOvBGGOs6PDtWDHJzMyEh4cHxo8fDyJCbGws7t+/X2zP0RljjCk3vkMvBkSEuXPnIi4uDkOGDAGAYrkzZ4wx9v3ggF6EMjIycOjQIaxfvx5+fn5YuHChMMUsY4wxVpi4yb0IeHp6onr16jA2Nkbfvn2hra2NU6dOYerUqSVdNcYYY0qK79ALERHhyZMnGDZsGHR1dTFz5kx07dq1ROc1j4uLQ2hoKBwcHKCqyr9uxhhTVvwX/gvIZDIsXboUDx48gJaWFkxMTJCZmYmYmBi8e/cO9+/fx9u3b2FtbY29e/cK630Xt4CAAEyePBnXr19HbGwsAKBx48a4fv16idSHMcZY0eNx6F/gzJkz6NSpEywsLGBra4uoqChoamrC2NgYZcqUQfXq1dGsWTO0adOm2HuvExGWLFkCDw8PhISEoEKFCvjll19Qvnx59OvXD2KxGImJiaV+0RjGGPte8Tj0YvLixQscOHAAAHDhwgU4ODiUcI2yXb9+He7u7qhUqRKuXLmC/v37o2vXrujYsSO0tLSEu/KuXbtyMGeMMSXGAf0jJBIJpFIpUlJShBnezM3NS00wBwAfHx+8efMGb968weLFizFx4kSIRCLExcVh5syZWLNmDQBg/PjxJVxTxhhjRYl7uedBJpOhf//+UFNTg6amJipVqiTsmz9/fgnWLDcXFxeUK1cOADBv3jy0b98eM2fORN26dbFx40ZMnToVCQkJaNasWQnXlDHGWFHiZ+h5iI+PFyZ+2bFjB8LDw5GVlYX27dujQYMGJVy77J7rAwcORHp6Ojw9PVGuXDmEhoYqpKlSpQrOnz8PW1vbEqolY4yxL8HP0IuAoaEhDhw4gJ49e2Lfvn2YPXs2GjZsWGL1ISKsWbMGV69ehb6+Pu7cuYOnT5/C2toa6urqOH78OIKCgqCtrQ0PDw+cPHkStWrVQpkyZQAAS5YsweHDhxEaGor09HTs378frq6uALIXZQF4LnfGGPvm0VdKSEggAJSQkPC1WZQ6MpmM4uPjKS4ujmJjY8nGxoYAEAC6fPlyidUrLS1NqIf85eXlRUlJSRQdHa2Qdt++fUKa6tWr09mzZ8nBwYEA0K+//irsy8zMpPHjxwvvvb29S+jsGGOMERU8rvIzdAAJCQk4f/48GjVqBENDQxgZGaFMmTIICwsDANSpU6fE7mBTUlLg4eGBiRMnonPnzsL2yZMnQ1dXFyYmJgrp3d3dceTIEQCAv78/OnTogCdPnmDTpk3YunWr8LzdzMwMa9asQZs2bQAAR48eRVBQENq0aYP169cX09kxxhgrLN/1M/RXr15hyJAh8PLyUtheq1YtTJ8+HXp6eqhXrx5MTU2LrU5ZWVk4ceIEAgMDYWpqiqCgICxevDhXOicnJ9y6dSvPPIgIly5dwvHjx4Ve7nFxcTA0NIREIsHhw4dx//59dOrUCcOHD8fjx4/Rt29fhIeHw9vbGwDw+vXrTy65yhhjrPAUNK5+twF9/fr1+P333/Pd/8cff2Dp0qXFWCPg8uXL6N+/P8LCwmBsbIy4uDjIZDLo6ekhJSUFMplMSKupqYmEhISPTmDz+vVrXL16FV27doWuri6kUin8/PygqakJJycnHDx4ED179lQ4RiwWQyaTIT4+HgYGBoiNjUVAQACqVasmPJNnjDFW+AoaV7/bJvfLly8LP+cVFA0NDYuvMu9t3rwZYWFhcHd3x4ULF5CcnIy9e/eiZ8+e6NWrF8aPH48ePXoAyF7JLWeAz4u1tTV69+4NXV1dnDx5EqqqqmjWrBnq16+PBw8e4OjRowCA6tWr4+eff4aPjw8aNmwIkUgEHR0d+Pn5wd7eHk2bNkWNGjWQkJBQ5NeAMcbYVyqph/fFLTIykvbv309JSUlERBQaGkpr1qyhoKAg2rFjBw0ZMoQaN25MAGj06NHFVi9fX1+qVKkSlS1blho2bKjQ8a1fv35069YtkslkCscEBgbSq1evFLYlJSXR5MmTafPmzbnK2L9/v5Dn4MGDCQCNGTOGdu7cSerq6uTl5UXR0dHUt29fAkBVqlQhmUxGjRo1ImNjYxoyZAgBoJCQkCK9Fowx9j0raFz9bgL67t27haCWkpJCRERv376lFi1aKARRQ0NDunHjRrHUKTAwkNTU1MjZ2ZmmT59Obm5uVKlSpVw92vG+V/vHTJ06lQCQo6Njrn0581myZAlNnjyZAFCbNm1o1apV9PLlS2rTpg0BoGXLllFCQgJFREQQAKpcuTIZGxtTp06diuoyMMYYo4LHVaUehy6TyRAeHg5zc3O4ubkJ21esWIFBgwahRo0awmpkQPasaydOnCjSPgFSqRSzZs3C5cuXUaZMGWRlZUFXVxdTp04V5lpPTk7GpEmTkJSUhN27dwMAHjx4IPRIz8vt27cBAPb29oiPj8epU6cQGxuLhg0bCmPqAeDly5dYv349qlativ3792Ps2LEYO3YstLW1sXPnTvTv3x8AoKenh6lTp8LT0xONGjXC8uXLi+yaMMYYKzil7hTXuXNnnD59Gtra2li6dCmuXLmCAwcOQCwWQ11dHenp6QCyn6FnZmZi2rRpWLBgQZHVJz4+Hj///DM8PT1hYWEBmUwGqVSK5ORkmJubC0PQZDIZjh8/Lgwx+5RLly6hbdu2kEqlAABjY2PExMRAQ0MDGRkZedbDwMAAAODt7Y1Hjx6hf//+wux4jDHGil+B42pJNQ0UFX9/f/rzzz9p0aJFtHXr1lxN1+3ataOgoCAyMzMjAOTu7k4pKSn04sWLXM+qC9P169cJAOnp6dG6devI1NQ0z6Z1+evo0aP55rV48WJavHgxxcTE0MaNG8nW1paaNm1Kf/zxBwGgHj16UFhYGGVmZpKfnx/t3r2b3NzcyN/fnzIyMorsHBljjH29gsbVb+oOPTAwEP7+/oiLixO2WVlZoWXLltDQ0MCBAwfQu3dv6OvrIy4uDoMGDUL58uUxY8YMrFy5Era2tmjSpAnMzMzw7NkzHD9+HP369SuWSWP27t2L3r17AwAqVqyIoKAgYd/EiRNhY2ODDh06wM3NDQEBAVBVVYWrqysmTJiA5s2bQyQSCelz/qyqqoqqVati586dcHBwwNWrV9G2bVuFNIwxxkq/72Yces6A+CETExO4urri/PnzqFWrFs6cOYNevXoJM6a1bNkSnp6eUFNTK/J65kcikeDEiRO4d+8eoqOjcenSJWhra+Pdu3d4/fo1AEBHRwdWVlZ4/vx5ruPr16+Pzp07o1atWhg6dCgMDQ0xdepUtGnThieAYYwxJaD0i7O8fv0aYWFh2LJlCwDg3r17cHR0hEgkAhHh6dOn2LZtG/z8/NC1a1fMmTMH6urqOHz4MJKSkvD27VtUqlQJYnHxD7n/77//sHDhQmhoaMDV1RXdunVD9+7dsX//fvz9999COn19fbi5uSEzMxNxcXEICwsTnu/L3b59Gw8fPkRGRgZEIhEiIyNx8+ZNDBgwIFe5b968gbe3N968eYNmzZqhSZMmRX6ujDHGSlapv0PX1NQUOnZt3LgRQ4cOLbKyCtPdu3dRr149VK1aFTo6Orh//z7EYjHatm2Ln3/+Ga9evcKyZcuQlJQEAFBTU0NWVha0tbVRs2ZN3LhxAwBgYGAAW1tbqKmp4c6dOwAAU1NTREdHY9iwYfDw8EBgYCB27doFFxcXtG3bNteXl6NHj6Js2bJwcnLipnjGGCullH6muH379gGA0NRcmkgkEhw5cgRTpkzB9u3bcezYMSQmJgIAoqOjAQBJSUkYMGAAXrx4gdWrVyMxMREDBgzAli1bMHnyZFhZWQHI/uIyceJEzJgxQ6F3+6RJk1CvXj3ExMQI26Kjo1G7dm3MmDEDb9++Rb9+/bBw4UK0a9cuz1nv3Nzc0KBBA8yfP78oLwdjjLGSVFK98fIzaNAgAkCmpqbk5ORETk5OBIBsbGxIKpUWallfy9vbm1q1aiUsr2phYSH0Tq9WrRolJycTEdGDBw+oT58+pKKiQoaGhjRp0iTatGkTzZs3j7p06ZJn7/aOHTuSTCYTXkREfn5+Cmm2bt1KMpmMJk6cqLB98uTJ1L9/f5o0aRLp6uqShoYGaWlpEQBSV1cnPz+/krxsjDHGPkIpZopLSUmh/v37U8eOHcnQ0FAIUEOGDKFff/2VVqxYQfHx8QUup6AyMzNp5MiRBIAaNmxIv//+O929e5eIiJ49e0bHjx8nFRUVUlVVpf79+5NUKqWTJ0+SjY0N6enpkYaGhnBulSpVoh9++EF4361bN4XgHB4eLpTr5uaWK/C3bNmSVFRUqEOHDtSpUydydHSktLQ04ZjQ0FCFsn799VdKTEws9mvGGGPs83wTAV0mk9GhQ4do9uzZ9OTJk1z7hw0bJgQfJycn6tWrFwUFBX1t1YrM4MGDSVVVldatW5dva4G/v78wDauvry9Nnz6dAJBIJProuPOXL1/Ss2fPyNbWlgDQ/fv3hTzr1q1LKioqJBKJ6Pr167Rt2zYyMzOj7t27C+PKPxxDL5FIyNHRMdedPWOMsdLpmwjoS5YsESZVUVNTo0GDBtGOHTsoMjKSiP7fzA6g1E58kpiYSGpqarRkyZJPppXPg75//3767bffFIKqiooKNWzYkOzt7UlbW1shoMvl/LLw4MEDAkDW1tZUrly5z6pramoqLV68WJgXXkNDg37//XeSSCRffuKMMcaKRUEDepF3ipPJZFiyZAlGjBiBd+/e4c8//4Sfnx8GDhwIS0tLDBw4ENbW1tDT0wMAPHnypKir9FU0NDSgoaGRazhZXuRTqLq7u2Pz5s0AspcyBbLncr958yZ27dqFlJQU4Rj5tK8AFHqpa2hoAMgevhcdHQ36xKCE//77DzY2Npg8eTKqVKmCo0ePIiYmBmvXroWKispnni1jjLFvTZGPQ5dIJEhLS8OtW7cQEBCAP//8E3/++SeioqKwZ88eLFmyBDKZDLVq1UL37t1Rp06doq7SV1FXV0evXr0wd+5cXLt2DWXLloWRkRGMjIxgZ2eHevXqwd7eHiKRCOrq6qhatSoCAwOF48uUKYPk5GTEx8cr5Fu+fHkEBwdjx44dGDVqVK5yq1atiqtXr2L48OFo167dR4edPXr0CA0bNhTeOzg4wNDQEBKJpOAXgDHGWKlWJOPQU1NTERERAYlEgsDAQCxcuBA3btxA27Ztcf78+UKpeEEREZ4/fw5NTU0EBARgxowZiIiIQLt27dCqVSthVjkjIyM0bNgQenp6yMrKwrp16zBhwoQ875RdXFywYMECNGnSBLNmzcLcuXMBZN+dd+/eHX/88QdOnTqFGjVqoFmzZgCyh7Vt374dXbp0Qfny5Qt0TsHBwejatSvEYjEePnwobN+yZQsGDRpUoLwZY4wVrVI59WvdunVx79494X2ZMmXQoEEDzJs3D05OTl9TXKHKyMjArFmzsHjxYmFb06ZN4ezsjCNHjuDly5cK6U1MTHD16lVUq1YN69atE+6k5au0fcjJyQnr168X7pajoqJgampahGekaPTo0Vi7dq3wftq0aXj06BHU1NSgpaUFbW1taGtrw9zcHC1btoSzs3Ox1Y0xxljeSlVAz8rKgkQiweHDh9GvXz84Ojri1KlTsLGxKfEZypKSkpCZmYmTJ09izJgxSExMROfOnTFixAjo6uqiSZMmEIvFICIkJycLd+CvX79G165dUaNGDRw7dgzh4eGoVasW3r17h1GjRmHkyJFITExESEgIvLy8sGnTJgDAoEGD4Orqiv3792P//v1QVS2+WXaJCCkpKTAyMoJEIoGxsTHq168PILv1RP4IBABatWqFixcvFlvdGGOM5a3E53KXyWQ4e/Ys7t69ix07diApKQn79+8HAPTt2/ez1/QuKkSE+/fvo1GjRgprg//yyy/Yvn17rvQikQh6enqIiorC69evhc5ox48fx8uXL1GhQgX88ccfmDJlCtauXYu1a9dixIgRsLW1xZQpU6CpqYnMzEwMHDgQDRo0QM+ePYvzdIVz0NXVRUBAADIyMlCtWjWhox0R4a+//sLt27fRuXNneHh4FHv9GGOMFYGCdq83MjIiAGRoaEg1a9ZUGKK1f//+r82+wJKSkmj27NkKderTpw/NmTOHzMzM6ODBg/keGxUVledYcRMTEzpx4gTp6urmub9hw4aFeg7Pnj2jqVOn0vHjx+nhw4d08uRJioyMJIlEQnFxcV+c361bt6h9+/YEgGbNmlVqZt5jjDFWCtZDHzhwIGxtbTFz5kyIRCIEBQXhzZs3qFKlSrGsM54XqVSK5s2b4969e+jatStsbGywfPlyXLhwAa1atfqsPLZu3YrTp0/D3t4ejRo1gqGhIUaMGIGkpCSEhIQAyF5QRb4KWlRUFFxdXVGjRo1COYfo6Gi0atUKjx8/zrVPQ0MDGRkZ6N27Nzw8PBAXF4fY2NiPjhA4fvw43NzcUKlSJaxYsQKdO3culHoyxhgrHAVe9KykvkkUlYyMDGF61mnTpgnbMzMzC5z3woULSV1dXbhDt7OzK3Ceedm6detHZ5XD+9YGXV1d0tXVJbFYTACoU6dOtHfvXmrdujWpqqrSb7/9Jswg16JFC3JxceHJZRhjrJQqaFwt9euhf4moqCjUqVMH4eHhMDQ0RK9evYR98mFoBVG7dm1kZmYKK5rJlz4tbKtWrRJ+NjQ0RNOmTVGnTh3Y2dkhIyMDK1euxN69e9GwYUMkJCSgR48eiIqKwsaNG3H69Gnh2M2bN+PChQuoUKECLl++jAULFvDkMowxpqRK/XroXyI8PBxly5ZFp06dcOrUqULPPzU1Ffb29pDJZCAihIeHY/bs2fjzzz9zrUFeECtWrEBgYCAWL14MQ0PDXPszMzOxYcMGbN++HY8ePQIRoWPHjti4cSNiY2Ph5+eHP//8E/369QMAhIaGwtLSEr169cLWrVsxevRo1KpVq9DqyxhjrOC4yZ2IQkJCaNKkSdS8eXMCQL///nuRlRUQEEC9evUSmrkB0O7duwuU54MHD+jIkSPCe5lMRm/evKGsrCwiIgoODqYtW7ZQSkpKrmNjYmJoyJAhBIBGjBiRbxk5l2CdNGlSgerLGGOs8HGTO4A5c+Zg27Ztwnv6ukaHz2Jvb489e/ZgxIgRaNOmDTIyMvDXX3+hevXqqF279leNt+/Vqxf8/f0xc+ZMqKur48SJE/jvv/+gq6sLsViMxMREANmz1nXv3h1AdmuB3M6dO1G+fHkMHz483zIMDQ3RoEED9O/fH7/99tsX15ExxlgpV1LfJArT6dOnhbvP5s2b09y5cykqKqrIO4AdOnQoV2e1lStXfnE+pqam+XZ+mzNnDmlqahIAcnZ2pjVr1lCDBg2E/WXLliVVVVV69OhR4Z8gY4yxYlPqV1srDjk7el29ehUzZ86EmZkZtLW1FaZ3LWw//vgjXr58icmTJwvbxo0b99krxtH7lgRfX1+sXLkS/fr1g7OzM/r27YvBgwcDAK5fv47IyEhUr14dN27cwOjRo2FjY4OBAwcCyH7mcvLkyUIbLscYY+zbpDSd4vz9/REZGYlq1aohMjIST548wZkzZ3Do0CH4+PgIU58WpZiYGNy6dQtt2rTJc6rXFy9ewNzcHElJSVi5ciXWrl0LCwsLGBgYwNLSEuXKlYOenh7u3r2Lq1evQiaToXfv3vj3338hkUjg4+MDS0tL2NvbAwDi4uJgaGhY4tPqMsYYK7hSNZd7aZOcnAxXV1c8fvwYly9fRt26dYut7JSUFBw8eBBZWVno06cPNDU1hZYEc3NzxMXFCQu7WFhYoF69eggODsa7d+/g4OCAli1bombNmrC2tkbdunU5aDPGmJLjgP4JycnJaNy4MSwsLISlW4kI3t7ewpCvuLg4vHnzBsbGxrC1tYVIJIKBgQF69uyZ7/j1N2/eYOXKlahcuTLc3d1zDS8bO3YsVq9eDQAYOHAgBg0ahKZNmwKAcN2mTJkCDw8PJCQkfPQcrK2tUa5cOXh5eUFbW7uAV4QxxlhpxAH9M4wcORKHDx9Gt27d8PDhQ0RHRyMoKAhaWlpIS0vL9zgjIyNUr14dBgYGMDAwwNChQ1GnTh1s2LABHh4eCA0NFdKmpqZCS0tLeP/8+XNUqVJFIb9y5coJx9y6dQtOTk5wdHTE48eP0bNnTwwYMAAWFhZwdXVFTEwMunTpgpMnTwLIXqo1NDQU5ubmhXlpGGOMlRIlvtpaYUpPT89zffGCUlVVRWRkJDZt2gQHBwe4urqiTZs2SEhIwNChQ6GlpQVra2thnXAVFRVcunQJcXFxuH79upDPvXv38PTpU4W8nZ2d0aZNG4SHhyMmJkZ4xcXFCXOu16lTB05OTti8ebNwXNmyZZGYmIjRo0djy5Yt8Pb2RkBAAF69egVVVVWUL18e9+/fR6tWreDg4CDUUz6EjTHGCoO6ujo0NTVLuhqsEJSaO/T09HQYa+kiFdIC58UYY+zzWFhYIDg4mIN6KaA0d+iZmZlIhRT9URbqEENFJIJYBKi87wymksfP8m5iKiLR+23IlVaex4f75APdxMKxucsRi0QQqYggFg4WQyT+/3uRWAyxSnYaAAppRSIRxCriD/aJhUpm5509alCex//fI7uc99PJyveJxPL9YuB9WpE4e7v8WJGKGOIP3otEOX5WEWcfj+wy5Nuy6yyGSEVF8Vhxzp9F/38vVsmuqLD/g/diMSB6f5XFKtnvxfL34vfpxTn2v98nEr/PW/xB2g/ykuctEgHvz49E4uyf5R0IxeL/b3ufN0RikHx/zrSivNP+P29Rjn2i/6cXjhVB/tVYRgQCIHv/noiEn/F+u/x7tAwA0Qdp36ejHHnJjwMBsvdb5McJ5YIU6iCVZf8rfy8jQCrLsT9HWVIZCXWSkvx4ypE2R16y/5+PkM/7DdIc2+RppbL/5yWVIcfP2cfJ08rTST7Yn12nD/MhSEn2//0yguSDvIX6v/+ZctSJiEA59pMMivv/f4LZv4P3+0hGkOVISzIIdaD3x8lypM1Zjvzn/6eXgmTS9z/LQFIpiKQK+3Lulym8lwLS9z+TNPv4nHnlSCuTSUHvf/HZaXPkk5WOCP8DyMzM5ICuBEpNQJdThxjqInGOIJ1/QJcPov+ctLkCuujTx4pFoveB9f8BXCFo5wro4hz78g7o8vdi8ccCukg4Xn7shwH9w6Aret+DPs+AnjMoKwR0sWJAF4sh/lhAz/k+34CuIuSVKwjnfJ9fQBeL/5+3/H1eAT3HF4AvD+g5338Q0MWKaXPlDRQooMu3f1ZAp9wBnb4yoEuJhG3C/hz1kuYIRJ8T0KX5BXRSDOjywJpXoM1vn0peafMK6DKZ8F4sI4hkBHGO9+IcaUWyDwL4ZwZ0khFE9MF7GSkEdNEHAV1Eiu+FAC7PJ8+ALs0O6LL8AroU+DC9+H1r5vt9kMnfyxTei2RSQJQjrej/7+X5MeWgFBPLMMYYY987DuiMMcaYEih1Te6ZkAEEqCC7SV3l/ZNylTx+Fp6hQ/R+G3KlFefYn3Ofyvsmw08+QxeJIBaaZQkiiCB+n7eICGKIhJqIIPv/PpkIYhJDRPK02e9BOfKWvW9Cl4kgkuV8/77JXvolz9DfN6/xM3R+hg5+hs7P0D9szs/7GTqkWWDKo9QEdHV1dVhYWGBXxJvsDe//eDHGGCs6FhYWUFdXL+lqsEJQagK6pqYmgoODi2Qcek6JiYmwsbFBWFgY9PX1sXnzZoSFhWHs2LEoU6YMAEAqlWLChAnYvn07BgwYgCFDhgiLnxARlixZgoULF6JcuXLIzMxEnz594OjoiB9++EGppmj98FqxvPF1+jx8nT5fcV4rHoeuPEpNQAeyg3pxfbD09fWhr6+PCRMm5Nr366+/YteuXdi4cSP69OkDXV1dAMDNmzcxdOhQPHjwAEOHDsXGjRuLpa4lTX6t2Mfxdfo8fJ0+H18r9iW4U9wH7t27h+3bt0MqlWL06NEwNDRE+/bt0aNHDzRp0gTq6urw8vKCh4dHSVeVMcYYE5SqO/TSwNzcHM2aNUNMTAwGDBgALS0tnDx5EhEREViyZAlGjRqV74ItjDHGWEn57gK6hoYGZs2aBQ0NjTz3W1lZ4erVqwrbRo0aVRxVK3U+da1YNr5On4ev0+fja8W+RqmZy50xxhj7ninNXO5FKTg4GEeOHIGnpyeaN2+O3377TViGVCqVwsvLCz4+PkhMTISWlhYiIyMRFRWF9u3bY8yYMSVce8YYY+zTlPYOXSKR4PTp0/Dw8ICnp2eu/RcuXIC2tjYGDBiA58+fw9LSEiYmJkhLS4OJiQlu3LgBAFi4cCFGjBiB2NhYxMXFIS4uDrq6umjYsGFxnxJjjDElVtC4qnQBPTY2Fhs2bMCmTZsQFhaGBg0aQEVFBX5+fujWrRuOHz8OAGjfvj2uX7+OihUrYtOmTXBycoJIJEJqaio8PT3RvXv3j5aTlpbGYzcZY4wVGm5yz8HX1xc9evRAfHw8evfujeHDh0Mmk2HDhg3w8/MTgjkAzJw5E23btkVkZCTWrVuHMmXKQCwWY+/evXj79m2uvCtWrIigoCAAwKBBgziYM8YYK1WUZhy6j48P2rZti4oVK+L58+cYPXo0fvvtNzRo0AD79++Hvr4+1NTUYGBgACJCo0aNcOHCBXTp0gXPnj2Dp6cnjh8/DldXVwwYMAAAoKurCzU1NYjFYkRERKBjx464fPkytmzZUsJnWzTi4uLQr18/GBgYwMDAAP369UN8fPxHj/nll18gej/nvfzl7OxcPBUuRhs2bED58uWhqamJevXqwcfH56Ppr1y5gnr16kFTUxMVKlT4biYh+pLrdPny5VyfHZFIhKdPnxZjjYvf1atX0aVLF1hZWUEkEuHYsWOfPOZ7/TyxL0RfKSEhgQBQQkLC12ZRaCQSCdnb21OTJk0oMjKSZs2aRerq6uTo6Ejnzp2jGTNm0IoVK2j8+PFkYGDwWXkuWrSI9PT06PDhw/To0SNyd3cnS0tLSkxMLNqTKUHt27enGjVqkK+vL/n6+lKNGjWoc+fOHz1mwIAB1L59e3r79q3wiomJKaYaF499+/aRmpoabd68mfz9/WnMmDGko6NDISEheaZ/+fIlaWtr05gxY8jf3582b95MampqdOjQoWKuefH60ut06dIlAkCBgYEKnx+JRFLMNS9eZ86coenTp9Phw4cJAB09evSj6b/Xz9P3qKBxVSkC+ps3b0gsFlOXLl3I0dGRNDQ0aPLkyZSWlqaQbvv27Z8V0GUyGVlYWNCiRYuEbenp6WRgYEAbN24s7OqXCv7+/gSAbty4IWzz8/MjAPT06dN8jxswYAB169atGGpYcho0aEDDhg1T2GZvb09TpkzJM/2kSZPI3t5eYdvQoUPJ2dm5yOpYGnzpdZIH9Li4uGKoXen0OQH9e/08fY8KGleVosndysoKa9aswfXr16GmpoZbt25h0aJFX/2cOzg4GBEREXB1dRW2aWhowMXFBb6+voVV7VLFz88PBgYGCr33nZ2dYWBg8Mlzvnz5MszMzFClShX89ttviIqKKurqFpvMzEzcuXNH4bMAAK6urvleFz8/v1zp27Vrh9u3byMrSzmXq/ya6yRXp04dWFpaonXr1rh06VJRVvOb9D1+ntjXUYqADgAjR45ETEwM7ty5A0dHxwLlFRERAQDCWHU5c3NzYZ+yiYiIgJmZWa7tZmZmHz3nDh064N9//4W3tzeWL1+OW7duoVWrVsjIyCjK6habd+/eQSqVftFnISIiIs/0EokE7969K7K6lqSvuU6WlpbYtGkTDh8+jCNHjqBq1apo3bp1rpkav3ff4+eJfZ1vtpf77NmzMWfOnI+muXXrFpycnL66jA+XQiWib2551M+9TkDu8wU+fc7u7u7CzzVq1ICTkxNsbW1x+vTpTw79+5Z86Wchr/R5bVc2X3KdqlatiqpVqwrvGzVqhLCwMCxbtgzNmzcv0np+a77XzxP7Mt9sQP/999/x888/fzSNnZ3dV+VtYWEBIPubsaWlpbA9Kioq1zfl0u5zr9PDhw8RGRmZa190dPQXnbOlpSVsbW3x/PnzL65raWRiYgIVFZVcd5kf+yxYWFjkmV5VVRXGxsZFVteS9DXXKS/Ozs7YvXt3YVfvm/Y9fp7Y1/lmA7qJiQlMTEyKJO/y5cvDwsICXl5eqFOnDoDsZ4RXrlzB4sWLi6TMovK516lRo0ZISEjAf//9hwYNGgDIXv89ISEBjRs3/uzyYmJiEBYWpvBF6Fumrq6OevXqwcvLC25ubsJ2Ly8vdOvWLc9jGjVqhJMnTypsO3/+PJycnJR2pb6vuU55uXfvntJ8dgrL9/h5Yl+ppHrjFaeQkBC6d+8ezZkzh3R1denevXt07949SkpKEtJUrVqVjhw5IrxftGgRGRgY0JEjR+jRo0fUq1ev72LYWs2aNcnPz4/8/PzI0dEx17C1nNcpKSmJJkyYQL6+vhQcHEyXLl2iRo0aUdmyZZXqOsmHY23dupX8/f1p7NixpKOjQ69evSIioilTplC/fv2E9PJhRuPGjSN/f3/aunXrdzHM6Euv08qVK+no0aP07Nkzevz4MU2ZMoUA0OHDh0vqFIpFUlKS8DcIAK1YsYLu3bsnDO/jz9P3i4etfYYBAwYQgFyvS5cuCWkA0Pbt24X3MpmMZs2aRRYWFqShoUHNmzenR48eFX/li1FMTAz16dOH9PT0SE9Pj/r06ZNrSFHO65Samkqurq5kampKampqVK5cORowYACFhoYWf+WL2Pr168nW1pbU1dWpbt26dOXKFWHfgAEDyMXFRSH95cuXqU6dOqSurk52dnbk4eFRzDUuGV9ynRYvXkwVK1YkTU1NMjIyoqZNm9Lp06dLoNbFSz5c78PXgAEDiIg/T9+zgsZVpZvLnTHGGPsWFTSuKs2wNcYYY+x7xgGdMcYYUwIc0BljjDElwAGdMcYYUwIc0BljjDElUCwTy8hkMgQGBiIxMRH29vYwMDAojmIZY4yx70aR36G/e/cO9vb2qF69OpydnTFw4MCiLpIxxhj77hRpQE9KSsKUKVPw/PlznD17FgBga2tblEUyxhhj36UiaXJPSEhAp06dcPPmTUilUqxbtw4uLi5QVVXlgM4YY4wVgSK5Qw8ICMD169chkUjw8OFDDBs2DJqamrC3t8e1a9eKokjGGGPsu1YkAd3Z2RmzZs0CADg6OsLKygqNGjXC48ePv2jlJcYYY4x9niLr5T5jxgw4OjoiKysLd+/exYsXL7B3795Prs3NGGOMsS/Hi7MwxhhjpQAvzsIYY4wxDuiMMcaYMuCAzhhjjCkBDuiMMcaYEuCAzhhjjCkBDuiMMcaYEuCAzhhjjCkBDuiMMcaYEuCAzhhjjCkBDuiMMcaYEuCAzhhjjCkBDuiMMcaYEuCAzhhjjCkBDuiMMcaYEuCAzhhjjCkBDuiMMcaYEuCAzhhjjCkBDuiMMcaYEuCAzhhjjCkB1YJmkJiYWBj1YIwxxr5rBY2nXx3Q1dXVYWFhARsbmwJVgDHGGGPZLCwsoK6u/lXHioiIvrbg9PR0ZGZmfu3hjDHGGMtBXV0dmpqaX3VsgQI6Y4wxxkoH7hTHGGOMKQEO6IwxxpgS4IDOGGOMKQEO6IwxxpgS4IDOGGOMKQEO6IwxxpgS4IDOGGOMKQEO6IwxxpgS4IDOGGOMKQEO6IwxxpgS4IDOGGOMKQEO6IwxxpgS4IDOGGOMKQEO6IwxxpgS4IDOGGOMKQEO6IwxxpgS4IDOGGOMKQEO6IwxxpgS4IDOGGOMKQEO6IwxxpgS+B9jN+vaNdbSJgAAAABJRU5ErkJggg==;" vertex="1" parent="1">
          <mxGeometry x="210" y="600" width="500" height="300" as="geometry" />
        </mxCell>
        <mxCell id="ja9hxogwG1e2657q7_xn-4" value="" style="shape=image;verticalLabelPosition=bottom;labelBackgroundColor=default;verticalAlign=top;aspect=fixed;imageAspect=0;image=data:image/png,iVBORw0KGgoAAAANSUhEUgAAAfQAAAEsCAYAAAA1u0HIAAAAOXRFWHRTb2Z0d2FyZQBNYXRwbG90bGliIHZlcnNpb24zLjkuMiwgaHR0cHM6Ly9tYXRwbG90bGliLm9yZy8hTgPZAAAACXBIWXMAAA9hAAAPYQGoP6dpAAB8x0lEQVR4nO3dd1gUVxcH4N9spWNBBFGxg10UW+y9xxZ7rLHEJBqjJhqNvUSN+sUaY6+x916wRcXeFRsiqHSQDtvmfH8gE1dAqQLreZ/sE2bmzp1zd5Gzc2fmXoGICIwxxhjL02Q5HQBjjDHGMo8TOmOMMWYCOKEzxhhjJoATOmOMMWYCOKEzxhhjJoATOmOMMWYCOKEzxhhjJoATOmOMMWYCOKEzxhhjJoATOmOMMWYCOKEzxhhjJoATOmOMMWYCOKEzxhhjJoATOmOMMWYCOKEzxhhjJoATOmOMMWYCOKEzxhhjJoATOmOMMWYCOKEzxhhjJoATOmOMMWYCOKEzxhhjJoATOmOMMWYCOKEzxhhjJoATOmOMMWYCOKEzxhhjJoATOmOMMWYCOKEzxhhjJoATOmOMMWYCOKEzxhhjJoATOmOMMWYCOKGzZKKjo/HLL7+gZcuWKFSoEARBwNSpU1MsKwhCqi9XV1ep3JMnTzB27FjUqFED+fLlQ4ECBVCvXj3s2rUrxXqPHz+OevXqwdzcHLa2tujQoQMePHiQrNyhQ4fQr18/VK5cGUqlEoIgpFjfy5cv0blzZ5QqVQqWlpawtbWFm5sbli5dCr1en/436a0BAwak2v5Dhw5luN6MxlKiRIksrXP9+vUQBAHXr19PcXv79u2z/JhpNXXq1GSfd4kSJTBgwIAciQcAIiIiYGdnh23btknrkuIMDQ1Ndb+zZ89CEIRU/z0AwJs3b5AvXz7s27cvK0NmJkSR0wGw3CcsLAwrV65E1apV0alTJ6xevTrVsp6ensnWXblyBaNGjULnzp2ldSdOnMDhw4fRt29f1KxZE3q9Htu3b0e3bt0wbdo0TJ48WSq7f/9+dO7cGR07dsTu3bsRGRmJadOmoUGDBrh27RpKly4tld27dy8uX74MNzc3qNVq3LhxI8U4Y2NjYWNjg0mTJqF48eLQarU4cuQIRowYgdu3b3+wjR9jbm6O06dPJ1v/7hca9mns3bsXNjY2OXb8adOmoUiRIujRo0eW150/f3789NNP+Pnnn9G2bVuoVKosPwbL44ix94iiSKIoEhFRSEgIAaApU6akef8BAwaQIAj09OlTaV1ISIhU57vatWtHFhYWlJCQIK1zcXGhKlWqGJV/8eIFqVQq6t27t9H+BoNB+vn777+n9P5Kd+/enRQKhdHx06N///5kaWmZoX2zWv/+/cnZ2TlL61y3bh0BoGvXrqW4vV27dll+zLSaMmVKuj/v7BQWFkbm5ua0YsUKo/VJcYaEhKS675kzZwgA7dy584PHCAwMJIVCQVu2bMmSmJlp4S53lkxSl3FGREdHY+fOnWjUqBHKlCkjrbezs0uxzlq1aiEuLg7h4eEAEnsHHj9+jDZt2hiVd3Z2RqVKlbBv3z4YDAZpvUyWuV/hQoUKQSaTQS6XZ6qeDxFFEfPmzYOrqyvUajXs7e3Rr18/vHr1KlnZtWvXomrVqjAzM0OBAgXQuXNneHl5JSu3fv16uLi4QK1Wo3z58ti4cWO2xZ9eRITly5ejWrVqMDc3R/78+fHVV1/h+fPnRuVOnjyJjh07omjRojAzM0OZMmUwbNiwFLumDx8+jGrVqkGtVqNkyZKYP39+isd+v8s9qSt769atmDhxIooUKQIbGxs0b94cjx8/Thb37Nmz4ezsDDMzM7i7u+PkyZNo3LgxGjdu/NF2r1+/Hnq9PlvOzpMULlwYLVq0wIoVK7LtGCzv4oTOstS2bdsQGxuLwYMHp6n8mTNnUKhQIdjb2wMAtFotAECtVicrq1arERcXB29v7wzHR0TQ6/V48+YNtm/fjvXr12PMmDFQKP67+pSUBFK7byAler3e6PXul47hw4dj3LhxaNGiBQ4cOIAZM2bg2LFj+OKLL4yS1++//45vvvkGFStWxJ49e7Bo0SLcvXsXdevWxdOnT6Vy69evx8CBA1G+fHns3r0bv/32G2bMmJFit39WMRgMydqo1+tBRMnKDhs2DKNGjULz5s2xb98+LF++HA8ePMAXX3yBoKAgqZy3tzfq1q2Lv/76CydOnMDkyZNx5coV1K9fHzqdTirn4eGBjh07wtraGtu2bcMff/yBHTt2YN26dWmOf8KECfD19cXq1auxcuVKPH36FB06dDD6nCZOnIiJEyeidevW2L9/P7799lsMHjwYT548SdMxDh8+DDc3N+TLly/NcWVE48aNcfHiRURERGTrcVgelLMdBCy3S2+Xe+3atSlfvnwUHx//0bKrVq0iALRo0SJpncFgoAIFClCzZs2Myr5584asra0JAF26dCnF+tLS5f77778TAAJAgiDQxIkTk5U5e/YsyeVymjZt2kfb0L9/f6m+d1/16tUjIiIvLy8CQN99953RfleuXCEANGHCBKl95ubm1LZtW6Nyfn5+pFarpUsNBoOBihQpQtWrV092SUKpVGZbl/uHXu8e09PTkwDQggULjOp5+fIlmZub0y+//JLicURRJJ1OR76+vgSA9u/fL22rXbs2FSlSxOh3KioqigoUKJDs83Z2dqb+/ftLy0ld2e+/rzt27CAA5OnpSURE4eHhpFarqUePHkblktrTqFGjj75XFhYW9O233yZbn5Vd7kREJ0+eJAB09OjRj5Zlnxc+Q2dZ5sGDB7hy5Qr69OkDMzOzD5Y9evQovv/+e3z11VcYMWKEtF4mk+H777+Hh4cHZsyYgeDgYDx79gxff/014uLipDIZNWDAAFy7dg3Hjx/HL7/8gj/++MPo+ADQqFEj6PV6oxv1PsTc3BzXrl0zeq1ZswZAYg9E0nHfVatWLZQvXx4eHh4AEm8ujI+PT1auWLFiaNq0qVTu8ePH8Pf3R+/evZNdkvjiiy8+Gqsoiqn2JHzIxo0bk7Xx2rVrqF+/vlG5Q4cOQRAEfP3110bHcXBwQNWqVXH27FmpbHBwML799lsUK1YMCoUCSqUSzs7OACBdZoiNjcW1a9fQpUsXo98pa2trdOjQIU2xA8CXX35ptFylShUAgK+vLwDg8uXL0Gg06N69u1G5OnXqpOku/oiICMTFxUk9Tdkp6RivX7/O9mOxvIXvcmdZJimJfay7/fjx4+jSpQtatGiBLVu2JLu2PnnyZMTExGDmzJlSUm3Xrh0GDhyI1atXw8nJKcMxOjg4wMHBAQDQsmVL5M+fH+PHj8egQYPg5uaWoTplMhnc3d1T3BYWFgYAcHR0TLatSJEiUkL5WLmTJ08alUtqw7scHBzw4sWLD8Y6ffp0TJs2TVp2dnb+6D4AUL58+RTbaGtri5cvX0rLQUFBICIULlw4xXpKlSoFIPGLRcuWLeHv749JkyahcuXKsLS0hCiKqFOnDuLj4wEkPqolimKq7U2rggULGi0nXdJJOk7S+5pS3Km15V1J9Xzsi2xWSDpG0jEZS8IJnWUJrVaLTZs2oUaNGqhWrVqq5Y4fP45OnTqhUaNG2L17d4qP3igUCixcuBDTp0+Hj48P7Ozs4OjoiFatWqFkyZIoWrRolsVdq1YtAInPyWc0oX9IUiIJCAhIFre/vz/s7OySlXtfSuUCAwOTlUtp3fuGDh2K9u3bS8sp3auQGUk3P/7777+p3gcBAPfv38edO3ewfv169O/fX9r+7Nkzo/L58+eHIAgZbm9aJb2v717jf/c4HztLT9o/6ebO7JR0jKTfCcaScJc7yxIHDhxAaGgovvnmm1TLnDhxAp06dUL9+vWxb9++jyYTKysrVK5cGY6Ojrh58yY8PDzw448/ZmncSV3i796Rn5WaNm0KANi8ebPR+mvXrsHLywvNmjUDANStWxfm5ubJyr169QqnT5+Wyrm4uMDR0RFbt241uiHN19cXly5d+mg8RYoUgbu7u/SqXLlyptr3vvbt24OI8Pr1a6PjvH+8pF6Z938H/v77b6NlS0tL1KpVC3v27EFCQoK0Pjo6GgcPHsyyuGvXrg21Wo3t27cbrb98+bLUi/IhKpUKpUqVytQNm2mV9LRAhQoVsv1YLG/hM3SWoqNHjyI2NhbR0dEAgIcPH0qjWLVt2xYWFhZG5desWQNzc3P07t07xfouXLiATp06wcHBARMmTMDt27eNtleoUEEaEOTs2bO4du0aqlSpAiLC1atXMXfuXLRu3Ro//PCD0X6+vr64du0aAEh/TJPiLFGihNRNPGXKFAQFBaFhw4ZwcnJCREQEjh07hlWrVqFbt26oUaOGVOe5c+fQrFkzTJ48Oc3X0VPj4uKCoUOHYsmSJZDJZGjTpg1evHiBSZMmoVixYvjpp58AAPny5cOkSZMwYcIE9OvXD7169UJYWBimTZsGMzMzTJkyBUBi9/6MGTMwePBgdO7cGUOGDEFERASmTp2ari7o7FKvXj0MHToUAwcOxPXr19GwYUNYWloiICAAFy5cQOXKlTF8+HC4urqidOnSGD9+PIgIBQoUwMGDB6VLC++aMWMGWrdujRYtWmDMmDEwGAyYO3cuLC0ts+yMuECBAhg9ejR+//135M+fH507d8arV68wbdo0ODo6pum+jcaNG+Po0aOpbj948CCsra2Trf/qq6+kny9fvpzivo0aNUKhQoWkMgULFszyL2PMBOToLXks13J2dk71rmYfHx+jsn5+fiSTyahfv36p1pd0p29qrzNnzkhlL168SLVr1yYbGxtSq9VUqVIlmj9/Pmm12mT1fugu7Hfvdj5w4AA1b96cChcuTAqFgqysrKhWrVq0ePFi0ul0RnUm3XGcljv70zKwjMFgoLlz51K5cuVIqVSSnZ0dff311/Ty5ctkZVevXk1VqlQhlUpFtra21LFjR3rw4EGK5cqWLUsqlYrKlStHa9euzVUDy6xdu5Zq165NlpaWZG5uTqVLl6Z+/frR9evXpTIPHz6kFi1akLW1NeXPn5+6detGfn5+Kb73Bw4ckN6X4sWL05w5c1IcWCa1u9zfv3vcx8eHANC6deukdaIo0syZM6lo0aKkUqmoSpUqdOjQIapatSp17tz5o++Vh4cHAaCrV68arf/Y7/67cX7s34coiuTs7EwjRoz4aDzs8yMQpfAgKWOMMfj4+MDV1RVTpkzBhAkTPlq+SpUqqFevHv76669sicfDwwMtW7bEgwcPeGhhlgwndMYYA3Dnzh1s3boVX3zxBWxsbPD48WPMmzcPUVFRuH//fprudj927Bg6d+6Mp0+fZunNm0maNGmCMmXKYNWqVVleN8v7+Bo6Y4wh8Qa869evY82aNYiIiICtrS0aN26MWbNmpSmZA0Dr1q3xxx9/wMfHJ8sT+ps3b9CoUSN89913WVovMx18hs4YY4yZAH5sjTHGGDMBnNAZY4wxE8AJnTHGGDMBmbopLiEhQZrukjHGGGOZo1KpMjwnQIYTekJCAkqWLJml4ykzxhhjnzMHBwf4+PhkKKlnOKFrtVoEBgbi5cuX0pCdjDH2IVevXkWLFi3g6emZI2ORe3t7Y8GCBdiyZQucnJzQt29f9O3bN8VHzDw9PdG6dWtp+fjx4yhXrhwCAgJQvnz5NE/ju2HDBuzbtw8ymQwhISFwcXHBzJkz0/woXHrMmjUL8+bNAwBUrlwZHh4e0Gg0mDp1KtasWYMJEyagYMGCGDNmDOrXry8Np/z+jIfvOn36NDp37gwAmDRpEsaMGfPB8lnFYDCgUaNGiIuLg7e3N8zNzTFhwgTUq1cP1apVg1wuz/YYPrWoqCgUK1YMWq02Y2fpGR1iLjIykgBQZGRk1oxZxxgzebdu3UpxeNSsptFoyMvLi65fv06iKNKbN2+oQ4cOBIAKFixIf/31F+n1+g/WodfrafPmzdStW7dkQ7EeP36cIiIi6OLFi3Tjxo0UhyUmItJqtVSwYEECQF9++SUNGTKEAFCVKlWyo9lERNSpUycpzh49epCVlRVZWlrS8uXLSRRFmj17NgmCQP7+/mmuU6FQSHVm97CzBoOBHj58SBMnTiQAtGHDBgJAy5Yty9bj5gaZzauc0Bljn0x4eDgJgpAtf5xjY2PpyJEjVLZsWaPkW7lyZapZsybly5eP1q5dS3FxcemqVxRFatiwIbm4uNDgwYNTHGu9ZMmSFBwcbLTfq1evyN3dnQDQrFmzSBRFOnjwIAGgli1b0uPHj7Oy+ZIvv/xSiqtw4cI0ffp0evXqFRERnT17luzt7al3797pqvPcuXNSnYcOHcrymBMSEujo0aM0bNgwcnR0lI41YMAAsre3J5lMRs+fP8/y4+Y2nNAZY3lK9+7dqVChQnTr1i3auXNnms8Unz9/TmvWrDFKnKIo0oMHD+j3338na2trAkBVq1aldevW0eHDh+no0aNGiUgURfLw8CA/P78Mxf706VOqXr06NWnShBo2bEjXr1+nJUuWEAAaPHiwUdmKFStKx7548SLNnz8/2ReBvn370unTp0kUxQzFkyQhIYF27NhBf//9NwGgYcOG0c6dOykqKkoqc+7cORIEgerWrUsBAQHpPkZAQACdPXs2U3ESJfZ8bN++nYYOHUrNmzenUqVKST0ApUqVop9++olOnjxJoaGhFBYWRgCoRo0amT5uXpDZvMpDvzLGPqkvv/wSO3bsgJubG4DEKWGDgoJgZ2eX6j6xsbEoVaoUAMDd3R1jxozB5s2b8ezZMzx+/BhyuRzffvstevbsiRo1asDc3BwAIIoigMSpTWUyGUqWLAlfX18MHTo02dzraVGmTBncuHHDaF2lSpVw5coVrF69Gg4ODvjuu++wYsUKPHjwAACwdOlSfPHFF3BycsLDhw+hUqlQqVIlAMDvv/+OTZs2oX379liyZAlKlCiR7pg0Gk2y660lS5Y0mpYVAF6+fClNVbt27VrUrl0b7u7usLW1TdNxHBwcMjxFb1xcHBYuXIh//vkHgYGBePPmDSpVqgQXFxd07doVJUuWRIMGDVCxYkXp+nx8fDx69uwJAPjll18ydNzPTk59k2CMfX6Cg4Ols1OlUimdURsMhg/uFxMTk2JXd8+ePWn//v3J/g6Fh4fThQsX6OjRo/Tdd99R4cKFjfa7f/9+qscKCgqi8+fPp6tdoijSnDlzpPqtrKyoRYsWtGXLlo/ut3v3bipatCiZm5vTwoUL0322ntJlgF9//TVZOb1eT3/88Qc1a9aMbGxspLJNmjShW7dupeuYaRETE0P37t2jlStXkpOTEymVSho0aBDNmDEj1el43zVhwgRSKBR05MgR0ul09OzZM4qJicnyOHMT7nJnjOV6Go2Gpk2bZnR9tHTp0jRixAgKCgr64L5Xr16lcuXKEQBq2rQp+fr60ps3byg2Ntao3Js3b2jx4sVGXd0AyM7OjoYNG0YqlYoUCgUdO3Ys1WOJokjVqlUjAHTgwAE6d+4cffnllynOSZ+SrVu30t9//01hYWFpKp8kKiqKfvzxRwJAP//8c7qS+ogRI4za6+TkRC9fvvzgPgaDgby8vGj16tVUuXJlsrKy+uCXnLTQ6/V0/vx5GjNmDJUpU8Yopm7dupG3t3ea6xJFkZo0aZLsi8o333yTqRhzO07ojLFc5dGjR3T8+HHy8PCgmzdvkkajoY0bNxIAKlCgAPn6+qarvgoVKpCtrS1169aNAgMDpfUzZsygAQMGkE6nox9//JFkMhnJZDLq3r07bdiwge7evUu+vr6k1WqlhH78+PEPHuv69etS8hg/frz0c61atT7ai5AVFi1aJN1Jntak7u3tLcU5adIkCgkJSdcxo6OjydbWloYMGZLueF++fElbtmyhAQMGkJ2dHQEgBwcHGjp0KG3YsIEuXLiQ7uv1N27coAYNGiRL5vXr16eHDx+mO8a8hBM6YyxHxcbG0q+//kr169cnZ2fnZH+IW7RoQd27dycA9Pvvv5NWq6WbN2+mmiCTbnTbtWsXzZw506iuP//8UypXtGhRab2FhQWVLVuWXr9+nay+efPmEQBauXLlR9ty8+ZNUiqV1LhxY3rz5g21aNFCOsasWbMy/ialw4oVKwgADRky5KOP1iU5cOAA2djYpPvu9SSlS5emYsWKffDvuVarpbt379LatWtp4MCBVKpUKem9qVixIo0fP548PT0z/MXn5s2b1LFjRwJALi4utG/fPgoNDc1QXXkVJ3TGWI5av359siRepkwZcnV1Tba+WbNmVKhQIQJAZcuWlbphIyIi6OHDh7Rq1SqjRJE/f36SyWRUtGhR2r9/v9FZq16vp549e0plPTw8ksW2cuVKAkC//fZbmtuj0Wik4yQkJFCVKlUIAO3YsSOT71TarV+/nmQyGfXu3TvVZ9zf99dff5EgCBk6i7106RKZmZmRtbU1DRw4kBYvXkybN2+mpUuX0pAhQ8jd3Z3UajUBIEEQqEqVKjRixAjatWvXRy+ZfIyvr6+UyMuUKUMbN24knU6XqTrzqszm1QzPhx4VFQVbW1tERkbySHGMfcaICBcuXMDZs2dx5coVhIeHw9zcHDKZDGZmZihbtiyUSiXevHmD0NBQ7N27V9q3XLlyKFy4MDw9PaHX6wEAHTt2xHfffQc3NzfY2dl9dFSyX3/9FXPmzMHdu3dRuXJlab23tzfc3NzQrVs3rF69OsOjm718+RKBgYGoWbNmhvbPqJ07d6J3795o3749duzYAaVS+cHyGo0G5cqVQ7Vq1bB///50H+/169dYvnw5Dh8+DC8vL2i1WigUClSoUAFubm7Sq2rVqmm+M/5jzp8/j6+++gpmZmaYOXMmevfuDYXi8334KtN5Nae+STDGPk+rV682Omtv27YtLVmyhE6fPk3Hjh1Ld5ftjBkzCABVq1aN2rVrR6NHj6bGjRuTXC6nUqVKffQGsdzs0KFDpFAoaNiwYWm6pr59+3apuz4zdDodxcbGprnLP70SEhLozz//JIVCQY0bN042KM/nirvcGWN5iq+vL3Xt2pX69u1LmzdvznR9Z86cIZlMRjVr1qS2bdtSqVKlqE2bNvTXX3+ZxN+npC9ASaPNfYgoitSrVy9SqVT04MGDTA9Yk9WuX79OHTp0IEtLS+nmv7ReUvgccJc7Y4yZuClTpmD69OmoXLkyvvzyS8ycOTPVsqdOnUKLFi0AABMnTvxg2U/p6NGj6Ny5M8qVK4c+ffqgY8eOcHV1zemwcpXM5tXP92IFY4zlEdOmTUPFihXRo0cP3Lt3D1evXsXGjRtTHLnN1dUVRYsWxatXr1C+fPkciDa5W7duoVOnTmjdujV27NgBtVqd0yGZJD5DZ4yxPGL//v3o1KkTAGDs2LHo1q0bKlSoAL1ej6CgIOmMV6VSwcPDA/Xr18/BaBOJooj69esjOjoaN27cgEqlyumQcq3M5lVO6IwxlocsXLgQa9euxbNnz6DRaFIsExQUBHt7+08cWco2bNiAAQMG4MyZM2jcuHFOh5OrcUJnjLHPkEajwZ07d/Ds2TMolUrky5cPzs7OKFeuXE6HJiEiFC1aFA0aNMC2bdtyOpxcj6+hM8bYZ0itVqNWrVqoVatWToeSqtDQUPj7+6Nly5Y5HcpnQZbTATDGGDNNBQoUQMmSJfHjjz/izZs3OR2OyeOEzhhjLFvI5XKMHz8eMTExmD17NqKiokBE8PLyws6dO3H8+HGEh4fndJgmg7vcGWOMZZvBgwfD398fc+fOxV9//QUbGxsEBAQkK1e3bl107twZ/fr1Q+HChXMg0ryPz9AZY4xlm4CAABQqVAibNm3CF198kWIyBwBPT0/88ssvcHBwwOHDhz9xlKaBz9AZY4xlCx8fH7Rt2xaPHj2S1llaWmLy5Mn4+eefAQCRkZEICAhAQEAAzp07h+nTp2PhwoVo165dToWdZ/Fja4wxxrKcRqOBm5sbtFqtNDqcUqmEs7PzB0eKi42NhVwuh5mZ2SeMNnfgx9YYY4zlOocOHYKXlxfu3buHSpUqpXk/S0vLbIzKtPE1dMYYY1nu+fPnsLGxSVcy/5wREfz9/TNVByd0xhhjWe7hw4coXbp0ToeRZwwcODDTk+lwlztjjLEsd+HCBbRp0yanw8j1oqKiEBwcjK1bt2a6Lj5DZ4wxlqX0ej28vb1RpUqVnA4lVzt79ixsbW1RtmxZWFhY4PTp05mqjxM6Y4yxLBUcHAwigqOjY06HkqvVrl0bxYsXB5A4i16NGjUyVR8ndMYYY1nq5s2bAJCrZn7LDSIjI+Hk5ARBENChQwcMGTIELi4uAIBbt25lun6+hs4YYyxLbd26FS4uLihTpkxOh5IrPH78GIsWLYK1tbV0J7ufnx9sbW1ha2uL//3vfxg+fHiq89unFSd0xhhjWSY4OBh79uzB1KlTIQhCTofzSSQkJODEiRNQKBRo1aoV5HK5tC02Nhaurq7SsqOjI5o3b45Vq1YlG2CHEzpjjLFcY/bs2VCpVBgyZEhOh/JJEBE6dOiAU6dOAUicZOabb75B06ZNUbJkSYSEhEhlmzVrJpXLDnwNnTHGWJaIiIjAihUrMGbMGBQoUCCnw/kkzpw5g1OnTmHv3r04c+YMdDodBg8ejFKlSsHd3R3nz5/HrFmzAABBQUHZGgufoTPGGMsST58+hUajQe3atXM6lE/G19cXQGKybt++Pa5du4bo6GicPHkSCxcuRP/+/SGXy1GlShXMnDkzW2PhhM4YYyxLxMfHAwDs7e1zOJJPIyoqCk5OTgCAb7/9Fra2tujZsyesra3RpUsXdO7cGSEhIShYsKDRdfXswl3ujDHGskRcXBwA4NKlS2jUqBHmzJkDURRzOKqs5eXlBUEQIAgCbG1t0apVK6jVarRo0QItWrQwKisIAuzt7T9JMgd4+lTGGGNZJDY2FvXr18ft27eldQcPHkT79u1zLqgslpT7AOD3339Hu3bt4OrqCqVSmWV1ZzSv8hk6Y4yxTAkMDMSyZcswd+5cREdHo1SpUpg9ezYA4NixY1K58PBwbN++Hb/88gueP3+eU+F+kMFgQPv27dG1a1f4+/vDYDDg2LFjWLJkCZycnPC///0Pc+bMAQB89913qFy5cpYk86zAZ+iMMcYy5PXr15g3bx5WrlwJvV4PpVIpXUfXaDRo27Yt8ufPj507dwIAOnfujH379gEATpw4kayLOifp9Xr8+uuv+N///geDwQAAsLKygoODA549e5asvLm5OQICAqSz9ayQ2bzKN8UxxhhLs7CwMMydOxenTp3CnTt3YGtriwkTJmDEiBHIly8fLl++jLp166Jbt27w9PSERqNBlSpVEBQUhODgYKkea2vrHGxFcqIoYv78+dJyr169UKJECZw9exYTJkxAnz59QETYtm0brKysULNmzSxN5lmBz9AZY4ylSUhICBo0aIDAwEB07NgRDRs2RLdu3YxyABHB2toasbGxH6zL398/xydv2b59O0aOHAkzMzN07twZw4YNw86dOzFlyhTcunUL1apV+6Tx8Bk6Y4yxbHfz5k30798fERERuH79eqrjtAuCAG9vbzx8+BDR0dGIiIjAqlWr8PDhQ2zduhV2dnY5et3Z29sbR48exdOnT7Fq1SoUL14cbdq0wYYNG7BkyRKpXbt37/7kCT2z+AydMcZYqvz9/dG8eXN4eXnB1dUVe/bsQfny5XM6rHQLCgrCpEmTsHr1aiiVSpQsWRLu7u6YPHkyypUrh+joaGzfvh2HDx9GzZo18fPPP3/yLx2Zzauc0BljjElEUcTZs2exb98+REREYNOmTdI2nU4HhSJvdewmJCRg0aJFmDVrFhQKBaZMmYIhQ4bAwsIip0NLhrvcGWOMZdqDBw+wa9cubNiwAT4+PihRogSKFSsGd3d3REREYOzYsXkmmRMRli5dik2bNsHLywvx8fHo3r07vv32W1SqVClXJvOswGfojDH2GdPr9Zg+fTpmzZoFCwsLdOvWDYMGDUK9evXy7PSn+/btQ+fOnaVlmUxmNGLdkydPULZs2ZwI7YNM/gz92rVrEAQB7u7uOR0KY4yZlBcvXqBPnz64cuUKpk2bhnHjxuWaQVIyI+k5cgAoV64cGjVqhEaNGuGPP/7AnTt38OLFi1yZ0DMr15yhX7lyBWFhYVCr1fD19cX9+/dx4MABeHt7Q6FQQKfTZfoYjDHGEu3YsQNDhw5Fvnz58M8//+CLL77I6ZCyDBHhwYMHKFiwIMzNzdGgQQPcv39f2q7VanPlF5c8fYbu7e2NLl26ICgoyGieWEEQUKpUKXh7ewMATp8+nVMhMsaYSYmNjcXIkSOxdu1a9OjRAytWrEC+fPlyOqwsJQgCKlWqBCBxWNrAwEBp29KlS3NlMs8KOZrQL1++jLt378Le3h7t2rVD1apV4erqCnNzc5w4cQLe3t7YsGEDGjRokJNhMsaYSbh58yZ69eqFV69eYc2aNRg4cGCevU6eVg4ODggJCcHdu3dRtWpV/PDDD+jXr1+uG6kuK+RoQu/SpQs6dOiAQ4cO4dixYzh8+LC0rVixYpgxYwZ69eqVgxEyxljeJ4oiFi1ahHHjxqFixYq4efMmXFxccjqsbKfVavHHH3/g5MmTuHHjBgBg/PjxJpnMgRxO6Obm5jhw4ABiYmIAAHXq1MGDBw+wdOlSfPfddyb/zZExxrJbQkICevfujb179+Knn37C77//DrVandNhZYv4+Hg8f/4cFStWBAC0adNGumQ7d+5c1K1bF/Xr18/JELNVrrjL3crKCgCwf/9+KBQKODs753BEjDGW92m1WnTo0AEXLlzAvn370LFjx5wOKcuIooiNGzcCAGrWrImKFStKz5f36tULnTp1gqenJwCgfv36+OWXX3Is1k8lVyT0JKVLl87pEBhjzGSMHTsW586dw4kTJ9C4ceOcDidL7dmzBwMHDpSWp02bBnt7ewQHB2Pr1q3YunUr1Go1jh8/jubNm+dgpJ9OrkrojDHGskZUVBT++usvTJ8+Pc8nc4PBAE9PT5QtWxaFCxcGkHhWDgBOTk7o3bs3pkyZkqx3NyQkxGSvl6dEltMBMMYYy3qPHj2CXq9HixYtcjqUTLt16xYaNGgABwcHdO/eHZGRkdI9Vp06dcLvv/+OjRs3onv37mjTpg0AoHDhwpDJPq8Ux2fojDFmgooXLw4AePXqVZ4eaVOr1SI0NFRaPnnyJFq3bo2vvvoKAPDrr79CLpejb9++ORVirvF5fX1hjDETotPpsGvXLgiCAGdnZyQkJEjbzMzMpDK5icFgMBqa9UO2bdsGFxcX6ax75syZOHXqFB49eoSxY8eie/fucHJyys5w8xRO6IwxlscQEdasWQOVSoVu3boBADQajdHjaJaWlihQoAA2bdqU5gSa3VauXAlHR0dYWFige/fu8PHxkbYRERYsWIBOnTrh0qVLuHLlCvr06YNKlSrh2rVriIyMxMSJE1GjRg3cvHkTW7ZswYYNG3KwNbkQZVBkZCQBoMjIyIxWwRhjLJ3u3btHAIxe7dq1o+jo6GRlDx06RABo8+bNORCpMW9vbwJA+fPnp9mzZ1Px4sXJ0tKSlixZQvHx8SSKItnb2xu1q2bNmqTT6XI69E8ms3mVr6EzxlguFxISgvPnz+PkyZNYvXq10bbJkydjzpw5KFq0KFq2bImqVasiPDwcV65cgUajAQAEBATkRNhGHBwcULVqVdy5cwcHDhzA/fv38fPPP2PEiBEYPXo06tati/79++OPP/5Aw4YN0aZNGwwcODDPzMGeG+Sa2dYYY4wZe/XqFUaNGoXdu3cDSByro2/fvnBxccGGDRvg5uaG2bNnw8/PD6tXr8bp06fx+PFjmJmZoUGDBoiJicHBgwfRpk0bHDly5JPHT0SIjo5Gv379cOzYMekLBpB4iUClUuHRo0fw8PDArl27cPXqVbRu3Rpr166Fra3tJ483p2U2r3JCZ4yxXGjTpk3o168fLC0tsXDhQrRr1y5DN4B5enrCzs7uk8//HRoaikKFCgEAbG1tMX78eLx+/Rpubm6oUqVKnr7zPrvk6elTGWOM/Uev1+PkyZOYPXs2Lly4ACBxutMhQ4ZkeG6LunXrZmWIyXh7e2P79u149OgRevfujdatWwMALCwsYG1tjejoaJQrVw5qtRpDhgxBlSpVsjWezxmfoTPG2CdGRLh9+zZGjRqFBg0aoHnz5ti+fTt2796NkJAQ1KpVC3Xr1kVAQAC6d++Orl275nTIRrZv347//e9/MBgMuHXrFszNzVGkSBE8e/YMe/fuxZdffgkAePPmDdq3b49Xr17B398fMpkMFy9e5LPzVHCXOxIHHqhcuTKePHmCSpUqoWbNmihZsiScnZ3x7NkzXLt2Dfny5UOHDh3Qq1cvnsWNMfbJ+fn54fTp0zh9+jQ2bdqUbLuzszO6d++OHj16oHr16rnu71RoaChu376No0ePYuHChWjdujUcHR1RoUIFfP/991CpVOjevTv279+Pbt26wdLSEjt27EB0dDTs7Oxga2sLb29vLFq0CCNHjvzo8URR/OxGeuOEjsSBCipXrgwvL69k2woWLIhSpUrh2rVrAIAtW7agd+/enzpExthnhohw8eJFbN68GadOnYK3tzcEQYCbmxvMzc1x8eJF1K5dGwMGDICbmxtq1aqV65I4EeHw4cPYt28fNm/eLN3UVrVqVYwfPx4qlQpNmjRB/vz5ASSeXC1evFhK5F26dEGVKlXw5MkTBAQEoHLlyhg2bJiUqIkI58+fx+LFixEaGgpzc3O8fv0afn5+SEhIQNeuXdGrVy80adJEmpXTlHFCf0dQUBCOHj2KP//8E8+ePUPXrl1hbm6Obdu2QSaToXfv3pg+fToKFCiQ06EyxkxUfHw8Fi9ejDVr1uDp06coUaIE2rVrh2bNmqFRo0Z56u/P2rVr8c0333ywjIuLC7y8vDL0ZeT777/H8uXLAQBubm64c+cORFFMsezDhw9Rvnz5dB8jL8l0Xs2pB+CzU0xMDP34449UoUIFKlWqFI0dO5aCg4NzOizGmIk7c+YMlSlThlQqFX399dd0+vRpMhgMOR1Whly9ejXZADYtW7akf//9lyIiIig6OprWrFlDAOjq1avprj88PDxZ/XhnoJzvv/+efvjhB2nd/Pnzs6GVuUtm86pJnaEzxlhOuHv3LmbOnImdO3eiQYMGWLlyJVxdXXM6rDR59eoVtm3bhqCgIJQuXRodOnRAfHw8+vbti8uXLwMA6tSpg4cPHyIqKgo2NjaoVasWSpQoAQ8PD4SFheH27dsoWbJkuo5LRDh06BDy588PmUwGIkLBggVBRHB1dZXO+DUaDZ49e4by5cub/DV17nJnjLEcEB8fjyNHjmDDhg04ePAgSpYsiUmTJqF///55IvF4e3vj559/xv79+6FWq+Hk5IQXL15Ar9cblfvxxx/x559/Qq/X4/r16/Dw8MCNGzfg5+cHKysrrF69GmXKlMmhVpgWfg6dMcY+EY1Gg+PHj2P79u04cOAAYmJi4ObmhvXr16N3795QKpU5HWKa3LlzB61atYK5uTmWL1+O3r17w9raGgEBATh79iwKFy6MuLg4FChQAHXq1AEAKBQK1KlTR1pmuQ+foTPGWBp4enriyy+/RGhoKCpVqoQePXqge/fuKFeuXE6HlmZEhN9++w1z5sxB5cqVcfLkSWk0t4wICwvDs2fPULp0adjZ2WVhpJ+nzObV3N8vxBhjOUgURezatQstW7ZE+fLlcf/+fdy7dw+//fZbnkrmjx8/xtChQzF79myIoohq1aohJiYGQOITQumdN3369Omws7NDnTp1UKhQIQQHB2dH2CwdOKEzxlgKdDodNm7ciMqVK6Nbt25o1KgRjh49iooVK+Z0aOkSHR2NAQMGwNXV1Wimtg0bNqBUqVIQBAEODg4oU6YMevfujWnTpuH27dsfrff169dGy5zQcx4ndMYYe8/ly5dRtmxZ9O/fH6VKlcLFixdx6NAhWFpa5nRo6TZ58mRs2LABNWvWBAD88ssvCA8Px+bNmwEAdnZ2WL9+PZo3b47Xr19j6tSpcHNzw4kTJz5Y799//40XL15g6tSp2LFjBypVqpTtbWEfxgmdMcbe4eXlhS+//BKFCxfG7du3cfDgQXzxxRc5HVaGJY3uljRapre3N/Lnz48+ffrAy8sL33zzDQRBgFqtRkJCAgDA2toae/fuhSAIGDVqFFK71crZ2RlTpkxBt27dPk1j3uPj44P4+PgcOXZuxDfFMcbYW0SEhg0bws/PD56enihSpEhOh5Rpt2/fxtixYwEACQkJqFGjBpo3b46WLVuiSJEiCA8Pl8q6ubnBy8tLSuxA4hl8cHBwrhuWdsWKFRg+fDjmzZuHn3/+OafDyRL82BpjjGWRUaNG4cKFCzh27JhJJPOk6Vg9PDykdRcvXsTixYsxf/58o2QOALdu3TJavn79OmrUqPFJYk2vBQsWAAAuXLhgMgk9s7jLnTHGkDib2OLFizFu3Di0atUqp8PJtHPnzkGpVGLt2rVwdnY22lakSBH4+/unuF/+/PmxbNky6Ww+t0q6DJIXBvH5VPgMnTHGANy8eRMA0K5duxyOJGtEREQAAB49emS0vlu3brhz5w4WLlworbOxscG5c+dQrlw5WFhYfMowM2zlypXo1asX6tevn9Oh5Br81YYx9tnbsGEDvvzyS7i7u0t3g+d1pUqVkn6uWrUqAKB79+4wNzfHkydPpG2//fYbwsLCUK1atTyTzAFArVajdevWsLKywunTp7Fz586cDinHcUJnjOVJer0eBoMh0/XcvXsXw4cPR7du3XD+/HmYmZllQXQ56+nTp6hSpYq03KBBAwDAjh07sHHjRqOynTp1gkKRdztrv/nmGzRr1gzdu3fH8ePHczqcHMUJnTGW64miiCdPnmDdunUoXbo0BEGAUqlMcUYzURTx77//YseOHdi/f3+qj1wBwL1791C1alVoNBosW7YM5ubm2dmMbHPz5k04OzujTJkyaNeuHVq2bGm0PSgoKNV937++ntc8ePBA+vnu3bs5GEnOy7tfyxhjJisqKkqa0WvXrl04dOhQiuXatGmD3bt3o127dnjz5g2WL1+Offv24f79+1KZx48fpzpE6969ewEk3lhlbW2d9Q35BMLCwtCmTRsULFgQ0dHROHLkSLIyXbp0wfbt27Flyxb07dsX1apVQ9WqVVG0aFEULFgwB6LOOpcuXYKHhwfu37+P4cOH53Q4OYqfQ2eM5ajQ0FDcuXMHT548wZMnT3Dz5k1cunQp2TSeH2JjYwONRiMNogIApUuXhre3N7Zu3YqePXumuN/Tp0+lZD9t2jT07NkzV47PHhcXh6tXr+LmzZtwc3ODWq3GmjVrEBgYCA8PD5ibm8PLywt2dnbw9vY26rmoV68eLly4kIPRmz4iwps3byCXy2Fra5vhevg5dMZYnuHn54cDBw7g0aNHCAoKgo+PD27evAkigkKhQKlSpVCxYkUsXrwYTZo0QYkSJSCXy/Hq1SujqUkNBgN8fX1RoEABKJVK7Ny5E3/99Rf8/f3RqlUrODo6IiQkBFZWVihWrBhevHiB2NjYZOOwa7Va2NrawtHREX/88QemTJmCatWqoWfPnujRowdKlCiRLe+DTqfDjh074OnpifDwcMyaNQslS5YEEcFgMMBgMODMmTMICAiAt7c35s+fD41GA7VabfSlpUmTJtBqtViyZAmuXLmC69evo0SJEggJCUFERARsbW0zNZsa+7hTp05h8ODB8PX1lZabNWuWI7HwGTpjLNv5+Phg6tSp2LRpE5RKJcqVK4fChQujSJEiaNKkCerVq4eSJUtmaj7xn3/+GfPnz0edOnVw+fJlLFu2DN999x0MBgMKFCiAqKgolCtXDg0bNoSFhQViY2MRExOD2NhYxMbGolKlSqhWrRqOHz+OgwcPIj4+HrVr10a9evVQvXp1dO3aNc03zD179gyBgYEoUKAAChQogPz580OtVkvbJ02ahJkzZ0rLx48fh4+PD6ZPn57s+XArKyv06NED33//PapWrYrNmzejf//+6N69O7Zv3447d+6gUaNGiIyMlPaxtLTEsmXL0K9fv1w3wpspiYyMRMOGDZGQkIDGjRtj5cqVuHjxYoaHCs50XqUMioyMJAAUGRmZ0SoYYybu9evXNH78eFIqleTg4EBLly6l6OjobDlWbGwsTZ06lQAQADp8+LC0bfjw4QSAevToQdWrV6dKlSpR7dq1qWnTptShQwdq2bIlAaDOnTuTKIoUFRVFW7duJYVCIdXXt2/fVI/t5+dHz549IyKiq1evkkwmk/ZLepUqVYp++OEHCggIoMOHDxMAqlSpEgGgrVu3EgDq3bs39e/fn+rXr0937twhrVb70XYvWbJEOoZcLjc65tSpUzP/xrJkbty4QU2bNiVzc3NSq9V07949Wr58OQHI1O93ZvMqJ3TGWJYSRZHOnDlDX331FcnlcrKwsKCJEydSbGzsJzn+6dOnSalUkrW1Ne3Zs4eIiJ49eyYlztR06tSJFAoF2dvbk42NDW3cuNEoUe7cuTPZPv/88w+NHj2arKysCACNGzeO2rRpQwDowoULdOHCBTp48CCtW7eOhg4dSgCoVatWREQ0Y8YMAkBKpVI6zrJlywgAVa9enR4/fpym9r4bZ//+/SkwMJA2b95MVapUSdMXApZ+AwYMkN7vV69eERHRrVu3CAAdOXIkw/VyQmeM5QphYWE0YMAAcnBwIADk6upKixcvpoiIiE8eS0REBHXt2pUA0Pjx4yksLExKeqNGjaLXr18n2+fWrVvUokULGjlyJNWtWzfZGfaECROMynt7eycrk3SGXKxYsWRfYIYOHUpyuZw2bdpERETnzp0jADRy5EgqWLAgffXVV9S8eXOprj59+qSprQaDgVavXk0zZsygp0+fZvAdY+kRFhYm/Z7b2dlRly5dyN3dnSwtLenFixcZrjezeZWvoTPGMiU2NhZHjhzBuHHjEBkZiaFDh6Jly5Zo3Lhxjl6/JSLMnz8f48ePhyiKybZfvXo11VHhiAgBAQHw8fHBnTt3cPPmTfz2229wcnJCy5YtUbBgQSiVSmzbtg01a9bEb7/9hho1akCtVkOr1cLR0dGo7T4+PihVqhQaNmyIc+fOISQkBB06dMCdO3dw+fJlaSS3hIQEHDp0CIsWLcLo0aPRuXPn7HlzWKbdvHkTBw8ehMFgwNmzZ6HT6bBo0SLUqlUrw3XyNXTGWI4ICgqi3r17k7m5OQGgRo0a0fPnz3M6rGQOHTpEAGju3LnUtm1b6Qz4/v376a5Lo9EkOysfOnToR/eLi4uTyu/evZv69u1LAOjs2bMZaRIzUZnNq/zYGmMs3U6fPo0+ffpAFEVMmTIFXbp0QdmyZXM6rBS1a9dOOuMZNWoUpk6dCltb22SPsAGARqPB3r17ERcXhxIlSkjPFG/btg2PHz+Gg4ODVNbOzg5z587FoEGDPnh8IkK9evWk5WLFikkj0uX1UdpY7sJd7oyxNNPr9Zg+fTpmzpyJpk2bYvPmzUZJLqPu3buH27dv49mzZ3j69CmePXsGb29vyOVy9OnTB5MmTUKBAgWyoAXGiMioa3zFihWpjjZWpUoVKJVKyGQyzJ49G82bN0/TMZ48eYLWrVvDx8fHaH2tWrXg6enJ038ySWbzKid0xliavHr1Cr1798bFixcxffp0jB8/HnK5PNP1XrlyBXXq1AEAODo6okyZMtIrMjIS8+bNAwC4uLhgwIAB+OWXXzKdBIkIffv2xe7du3Hr1i1pZDVvb280bNhQehb8ypUrUKlUMDc3R7ly5dJ9T4Cnp2eKzyQvWLAAQ4cOhZWVVabawUwLjxTHGMt2hw8fRv/+/WFmZoazZ89Ks3dl1oMHD/D1118jX758OHPmDKpVq2a0fdGiRdLPvr6++PXXX3Hx4kU0bNgQZcqUQZ06deDo6JimY927dw8+Pj7Inz8/Tp06hS1btgBITNpJCd3NzQ3R0dFo0qQJhg0blqkbnACk2HvRqFEjjB49OlP1MpaSXHWGTiRCDPYFBBkEtQUEtQWgMofAXVKM5QitVosJEyZgwYIFaNeuHdavXw87O7ssqXvBggUYP348SpUqhSNHjqB06dJGxx05ciT+/vtvfPvtt4iMjMTWrVuT1WFubo6XL18mm2Dk7NmzOHPmDCIiIuDi4oLu3bsnGwL1119/xfHjx2Fubo7z588jODgYjo6O6Nq1K3bt2pUlbQSAQ4cO4dSpU6hcuTKKFy8Od3d35M+fP8vqZ6bD5LrcKSEG+gf/guL+G8YQSrPE5P42yQtqc0BlAcHMEoJ1QR7akLFs4OPjg549e+LWrVuYM2cOfvrppyz9t1aoUCFotVoEBwcbDYsKAIMHD8amTZvwxx9/YMSIEQCAc+fO4caNG/D19cWLFy9w+/ZtNG7cGGvXrjWaz3vGjBmYPHkyChcuLA3vum/fPly9ehV79uzBs2fPoNfrcezYMZiZmaFx48YYPnw4IiIisH37doSEhGTL9XrGPsbkutwFMysoqjaH/rEnKPztmMa6BJAuAYgJh/TtQ66EovwXnMwZewcRwd/fHw4ODhm+vq3VavHDDz9g1apVABK7pDPb9ZySRo0a4ezZs8mS+evXr7FmzRosXrxYSuYA0LhxYzRu3PiDda5YsQKTJ0/GtGnTMGnSJKxcuRLffvstTpw4gfLly6Nhw4ZQKpW4d+8eHBwcULVqVUyYMAGzZ89Gvnz5sGDBAimZ6/V6/P3339i7dy9CQ0NRpkwZODk5oWLFihgyZAj/7WG5Tq5L6AAgKJRQVKgPw4u7EF89SrGM3LkShHyZv7uWMVMRFBSEGjVq4PXr1+jWrRt27NiR7jqeP39u1PUNINvuwn7z5g3q16+fbP3jx48BIM3X6UVRxNWrV7Fs2TJs3rwZP/zwAyZNmgRBENCzZ094e3tj6dKl0Ol0KF26NFxcXDB58mRpMJdZs2Zh2LBhKFKkiNGZ/rx58zBp0iQULlwYAQEBuHPnjrStTp06qFKlSmaaz1iWy7UXpwVBBkXJapCXqw0IycM0PL8F3Y2jMPg/Bel1ORAhY7nL9evX8fr1awAwmnkrrURRxNChQwEAY8eOxfnz5wEAa9euzbog33r16hUePnyIokWLGq3X6XQYNWoUKlasiFKlSuHChQtYsGABZs6ciYCAAACJvRBeXl5YtmwZunbtikKFCqFu3bo4f/48/v77byxevFg6e7a1tcXcuXPx559/olixYnj8+DEOHDiAtWvXIi4uDmvXrkWrVq1w7tw5o2QOJN5EJ4oiAgMDk/UivDuFKWO5Ra48Q3+XvHBJCObW0D/8F9C9/UekMge08UB8FAzeN2B4cReywiUhdywDwYIfoWOfp3bt2uHatWvw8PDAsGHD0rWvRqPBTz/9BA8PD7Ro0QIVKlTATz/9BADJkllmnThxAn369IGZmRm+++47o23x8fF49OgRdDodChYsCL1eDwsLC8TFxWHDhg2oVq0aLly4gMDAQCiVStSpUwcjRoxA06ZNUa9evWSXGXQ6HQYMGIB//vkHvXr1wrJlyxAYGIhBgwZh2rRp0iNx//77Lx4/fgyDwYASJUrgxIkT2LNnD6ysrLB48WL06dMHXl5e2LNnD6ZPn46KFSvi5MmTyJ8/P9zd3bP0/WEsw3JqiLr0EuNjSHvjKGnObyUxLooMYa9Je+8Mac5vNXpp750hQ9hrEkXxk8TFWF4liiL5+vrS1q1bqWLFitIMZXg7RKmrqysdPXqUdDpdlh1z+vTpJAgCtW7dmkJCQlIsc/ToURozZgwtX76cbt26RTqdjm7evEnNmjWjxo0b07hx4+j48eMUExPz0eP99ttvBIC2bdtGRIlDt6Y08UrSq1ixYlLbkyZK8fb2TlZvnz59pH1OnjyZuTeFsbc+q9nWRL2WtA/OkyE67L91sZGke3aDNBd3Uvy/2ynS8wBFnd1OcRf3kNb7Fhm08Z8sPsZyO4PBQHfv3qUlS5ZQnTp1pKRUsmRJcnZ2JkEQpHXXrl3LsuOKokjTp08nADR58mQyGAxZVveH9O/fn5ydnaXlkJAQaUa0pITt4OBANjY2BIDy5ctH7u7uNGrUKHr8+HGyedWTrFixQnqfWrRoIa3ftm0bVahQIUvfO/b5+OxmWyMiwKCHoFAar9frYAh+Af94AdEW9m9XipAZtJAZdJCTCLkAyARALpdDrlDAwkwJG2srCHJlCkdiLO97/vw51q5di/bt26NOnTqYNGkSZs6cCQCoW7cu+vfvj/r166N9+/bQ6XSYOHGiUTf448ePUa5cuXQdU6PR4O7du9LfhvLly+Pnn3/G33//jQkTJmDmzJnSNe7o6GicPHkSISEhePLkCQRBwNixY7NkOFkAcHd3h7m5Of79919pXWRkJKKjo1G0aFHMnj0bEydOxMSJE1GnTh3cu3cPXl5e2L17N/R6PbRaLTw9PaWR7N4VGxsLf39/FC9eHCqVCoMHD5buN+jTpw82b978wdjWr18PR0dHtGrVKkvayvK+z2q2NVEUSafTf7A7XavT02P/N3TfP1J6vQiNpheh0fTg7fJDv2AKuHySYo+tJn3oq08WP2OfysuXL6lXr17SWaS1tTUREe3Zs0dat2jRIiL672wzqWv56dOntHHjRipbtiy5ubmRVqtN17GHDRuWYnf2ypUrjcpFRkZSoUKFkpVbu3YtERE9fPiQhgwZQj169KCuXbuSl5dXut+H7777jgoVKmS07uzZs9IZdFKvAQCaMmWK1HNw+fJlat26NbVp0ybV3gSDwUBRUVFERHT37l2jNvzwww+pxhQeHk7jx4+XyjKW5LPpctfrDRQfn0Dx8QlG63V6A72JTaDXb2LpWXCUlLTfffmEJCb0+6/fkN+tyxR9ZCXFHf6LDBHBnyR2xj4FURTpxo0bNHLkSFKr1VLCsLGxoUmTJtH27dupd+/epFQqqWTJkvT48WMiIvr333+lpN+jRw9pWtFr166RXC6n3377LU3HT0pwp06dIgD0zTffSDE0bNiQnj59Sjdu3KDXr1+TTqejx48fG3XxA6ASJUpIf1Nq165ttG3EiBHpfk/mzZtHgiDQihUrqF+/flSqVCnpPSEievPmTbIvFGFhYR+pNdGqVasIAFWoUCFZHY0bN6Z169aluN9PP/0klatZsybf78MkJp/QDQaREjQaio2Lp5jYOIqKi6fQ6HjyC4uhx4FRyZJ3aq/nDx9QxImNFHdw6X+vo3+T5v6/ZIiJyNY2MJZdRFGk69ev07hx46hEiRJSohg5ciQ1bNiQAFCBAgWk9VWqVKG5c+dSXFycUT3Xrl0zOltNSmqzZs2SzjgTEhJSPP6uXbuod+/e0r43btwwmvv74MGDZGtrmyzp2dra0ooVK2jBggW0bt068vHxMTrG0aNHycXFRSr/1Vdfpfv90Wq10rVyW1tbGj16tJSA3d3dydnZ2SimZs2aSWfdqXn9+jUVLVqUFApFqjfXAaBatWol2zchISFZOb7ezpKY7DV0IoJOr0dMgg4JeoJGLyLBQBBTiVYuAOZKGcxVcqjkMryOTHzETa2QobC1CmbPr0H//HZiYUEGkGi0v6xwCShKVoWsoBOPAMXyhPPnz6NRo0apbq9Xrx7mzZuHOnXqwM/PDwBQokSJD9aZ9Lu/YcMGVK5cGUuXLsWmTZug0+mgVqsxcOBAzJ8/H5aWliAiDBo0COvXrzeqQxRFeHt7o379+ggKCkLfvn2xadOmDx5379696NSpU7L1RIQrV67g4cOHaN++Pezt7T9YT0qaN28ODw8PrFu3DgMGDIBGo8HGjRtx4cIFFC5cGDdv3oSHhwdOnjz5wSlRX716haZNm+Lp06fJtvXp0weHDx9GRESEtG7BggVGk7A8ePAAlSpVSravVquFUsn38TATvIaeeJ1cR3Fx8RQbF09PglI+C38SFEUvw2IoLDqBErR6ozrCYzXkFRBFYTEao+4sne8Diju0nOJPbyJD9BvS3DtHcUf+Njprjz+7lXS+D0jUZ92jOoxlh02bNkmPWrVp0ybVM8VWrVql6Tr469evpX00Gg21bdtW6gZ/t77Zs2dTQEAAJSQkkL29PQGgy5cvS9tHjRpFLVu2lM6KfX19adWqVVStWjWpzJYtW2jGjBnS8q5du7LtffLw8KBFixal2rWt1+vp2bNnH60nMDDwg2fkAKhGjRoEgEaPHp3s2vvTp0+TlbewsKCEhATSaDRZ0laWt5lUl3vSdfLYt8k8Ni6e/N7ezPYsOIpehUVTaGQsabQfTrYxCTrSG1L5xxvykuLPbJGWRW0C6bxvUbzHe93xx1eT1suTxPiPP+uamxlEkcJjEuhNbALFJGhJo9OTga/Z5bgXL17Qnj17aOXKlTRz5kzq0KED5c+fn1xcXKhv3770/fffU4cOHahatWqkVqupXr16FB9v/AimRqMhd3d3Klu2LG3cuFFKEqdPn5aSxL59+0ihUFC/fv3owYMHqSY1URSpZ8+eUh3e3t506tQpUigUVKdOHZo0aRINHjyYvvvuO+m6sUajoT///JMA0N27d+ny5cvUpUsXKleuHLVq1YqWL19OsbGxRsdIuq4uk8kIABUsWJBu3LiRre91VurRo4f0Hsnlcho3bpxRgj527BiFhoamuG/S5Yv3X05OTkbLvXr1+sStYrmFyXS5i0Qw6A0gEBL/IxAldt+lxEytyvAY02JcFGTvjShHJEIMegGt9x3gjf9/6wUBhkIlIRavBMHWHoIgQCYIEARAJghQKeSQ5fIuer1BRGBUPHSGxPdSACCTCVDKZcleCpnAlxyyUUJCAiZPnoz58+eDiCAIAgoWLIgKFSqgefPmCAoKwpUrV5CQkIDixYujePHiWLFiBYDELvb3xzdfs2YNhgwZgujoaDg6OqJ58+aYPn06ypYtK43wtm7dOgwaNAhAYjf8+fPnk/3b2bVrF7p16yYtf/PNN1i9ejUuXryI0aNH4+rVq9I2a2trREdHo0CBAggPD0eBAgXw6NGjZNOTpub69es4e/Ys2rdvj1KlSkGlUqX/jcwh165dQ7du3eDr6wsgcfrW+Ph47N69G46OjqhTp06q/36uX7+Ob775Bq6urjAzM0PBggXxv//9L1k5Ozs7hISEZGs7WO5kcl3uHyKKIomiSIa3/88uUcH+FHH1GMUeWk5xB5dS5PndFBAcRv5voikgIoYCImIoOCqW4rW6PHOHqt4gkv+bWLr7wJtehUTSy5AIehYQTs9DoqSXT2gUxSTwpYasFBISQhcvXqS9e/fSpEmTyMnJiVQqFc2ZM4cCAwNJr9d/tI4DBw6QjY0NKZVKmjFjhvQ7p9fraceOHQSABg4cSEuXLpVGepPL5dS8eXO6ePEiEZF0Fli9evVk9V+9epXMzMySnTkm3QVPlPjv/eXLl3Tv3j2aM2cOVahQgfLnz09Dhw6liIjP56bSW7duGd0MV79+/VRHvEuLJ0+eJHvfHR0dU7wBkZk+k+pyzy5a/YdHpTKIIiXo9BQdr6GwmHgKfJu0A4NDKfzuRQq/4UH+b2LI/00MBUbGUEyCNs8k8ncZRJFOrd1FR5Ztpn1z/6ZHLwL/S+YhUZSg+3hyYf/RarUUHh6e4tCoBw8eNBqJDUgchWzw4MH08OHDdB8rLi6OJk6cSADo119/JSKisWPHGtW/du1aioiIoPPnz9PSpUvJxcWFlEolBQQE0PXr16lq1apkaWlJ48ePp927d0td/kn7R0dH07Jly6RR06ZMmSId38PDg/r06UMymYzMzMyoW7du1LFjRwJAT548yfB7mFdoNBrasWMHFSlSRHq/xo4dm+xpgYxo37690ecol8upUKFC1LRpU7py5Qr5+/tnQQtYXsAJ/SMSdHoKjv7v2qMoiqQzGChOo6PIuAQKiYqTzrpTe/mHR5J/eCRFxMaTIZVr89khODqBbr56Q16BUfQiLJaCohIoMl5Luo98QfmQQ9MX0TA40xjHmkZn589DouhFaBSFxySQPguH5RRFkSLjEigiNoGi4jUUm6CleK2ONDo96fSGPPfFSKvV0vr1641u8LKxsaHJkyeTn58fBQYG0qhRowgANWrUiDZt2kT37t2joKCgNJ2Nf8ysWbNIEATy8/OjwoULSzG4ublJj1vduXOHhg8fTlZWVmRubk4BAQFElNhbMHLkSClhAyBBEKhJkybSmTwRUXx8PJ07d47Cw8OJKPFZbblcTvb29jRv3jwKDk4cvyEgIIAA0N69ezPdrtxu9OjRRkn3wIEDWVb3kiVLpJsXly9fnuyM3d7ePs/9O2EZYzLX0LNLYFQ8NHoRdpYqaPUG6AwixFSaLAiASi6HUiGDRmeQrjmrFXJYm6mgkGftbLN6g/jROkNjNfAKioZIgLVKhvzmCvhHawEIMFfK33nJUMhKner1/GcXr6NMPXes6zcaVzbtQamGtdFt9+oUywoArM2UsDVPW5uJCCIR5Knc06DVGxAWk5Dq/knX9GWCAAu1EuZKea68jh8VFYXatWvj0aNH6NChAzp06ID8+fPj8uXLWLp0abIpNWNjY2FhYZGlMfj5+cHZ2RkbN27EpEmTpGu5V69ehVKpxB9//IFt27ahSJEi6NmzJwYNGoTy5csb1SGKIsLDwyEIAszNzT8ao16vh6urK6ysrODh4YGCBQsCACZOnIjZs2fj9u3b0tzipqp3797YunUr1Go1Ll26hOrVq2fbsRo3boxz585BpVJBq9WiY8eO2LdvX7Ydj+Uemc2ruX761MwwiITI+MS50qMTtMm2K2QClG8TuEouh/ztDWFEhDiNHgqZAGtzNdQKebJ9M0OrFxEaq4FaIUNBS+OpKYkSn7mP1xmQ8PZVwFyJ8HgdClkqoZTLYG+phH+0DtEaPaI1esgEwNXe+oM35/3z7US4Nq+HgAdPAABFXEpBHR2FO6c9UbVrG9hZmSEyXosYjR4EICpBh6gEHazUCtiaq6BK5T3QGwzQ6HRQyOSQq4wTukEUodHpoTOIkAlIdQwBAiAXBFh/4Di5wfr16/Ho0aNkN6d99dVXGDduHC5dugRBEKBUKlG+fPksT+YAUKBAAcjlcvTr1w8A8OOPP6JHjx44fvw4fv/9dxQpUgQLFizA999/n+qzzTKZDHZ2dmk+pkKhwN69e9GkSRNUrFgRAwcOhL+/PzZu3Ii5c+eafDIHgClTpsDHxwfNmzfPkmRuMBiSTfWaZPHixfjhhx8QGxuLH3/8EV9//XWmj8c+DyZ9hv4mToug6MQzQ1u1DGqFHEpF4sAzyg/cnW4QCRq9HuZKRZaeKRpEQnisBhFvv2QUzWcOhVwmJe4EnQEavYiUPhC9SEjQG2CrliMgRgv9Ozf/O1irUbqg5QfPpv/qPBR39p2Qli0L5EPcm0i0nvoTao4cjCL5EpOP3iAiMl6L6ASd1JMhCAIsVImJ3Uwpf9sWERqtDoa3TyGYqZRv37fEng2DmPogQO9K/NKkglqRO8/Kk1y6dAlNmjRBhw4dsGvXrhyNZeTIkVi2bBlEUUS1atVw+/ZtWFpaolu3bli2bFm2fJEAgNevX2Pq1Kk4dOgQVCoVxo8fj+HDh2fLsUxZv379sGnTJnz99deYP38+ChcunNMhsVwis3nVZBM6EeFFeCw0bzOfk605rM1yZjQmkRJ7CsJjNUZJTi4IMKTW/Q9A/bY73Uwpg5lCDhHA/YAoRGv0ycrLZQKK2JjBydYsxR6FPeN+x4l5fxutU1tZYrbfJahtrJN9GTCIIkJjNAiO1UrxCAKgEASoFULirHVC4v8Tt36YXAAM7zRVJgiwNldm+Zem7ODn54eaNWvCxcUFp06dyvHHrOLj41G8eHGEhoaiTp066Nq1K2rUqIHdu3fj8uXLqFevHsaMGYPixYvnaJwsZe7u7rhx4wYAoE2bNti5cycsLS1zOCqWG3CXeyri357tJtEYRFh/4hiICDEaPUJjNJC9nbr13YT+bjJXygWYKeQwUya+1ApZiomuahFbeAVFIywuMdHamCkQlaCHQSS8jIjHq4h4FLZWo2g+c1iq/vt47cuWTFZXg6G9YJnfNsXY5TIZCtuYQ6mQ43Vk/NtpoQAtEWAAbFSpd43LBUDx9rl2tUIOhVwGrUHEm1gNBAGwUqtgqc79iRxIvA7esWNHmJubY/fu3TmezCMjIzFp0iSEhoYCAC5fvozLly8DANRqNdq1a4d//vkHx44dw71793I8XpZc8+bNpYR+/fr1HI6GmRKTTehv4oyvmWt0hk96/HhtYiJP0IsQAKiUMoiU2HWeRCETYG9tBjOlLNUbyt4nlwmo6GCNp6GxCIhKQOmCllDKZXgZEY/A6AQQAYHRGgRGa1DQQoVi+c1ha6ZE4XLGCV2uVKLZT98kq19nSLx+H6czIF5rQJwueW9AUhuICARAKROglAuwUKuglMtSHPBHp9HDUq2ElVoJmSz3J3Ig8eax/v374+nTp7h06VKaB07JTitXrsSSJUswYcIEREVFYenSpXByckKLFi0wd+5cXLx4Efb29lixYgVmzpyJadOm5YkvTp+TqVOnokaNGoiNjUWrVq347JxlGZNM6HqDmKxbOkH/aRJ60ll5ZLwOhMSkbRAJCXoR7/eu60WCNsgXFk7OAJInQXo7ktj7BEFAWTtLmCkSvySYK+UoV8gKJfJb4HVkPPyjEqAXCWFxWoTFaWGlksO2SBGjOmp/3Qk2RRwQo9G/TeCJ/9cZPn4FRiQgVmtAPrPEngQpLlCqo/dZmSnzVGKJj4/HmDFjsHv3buzduxdVqlTJ0XhEUcSTJ0/w4sULAMCvv/4KS0tLlC1bFocOHcKGDRuwfft2xMfHS/vMmDEDZ86cwdmzZ1O9AYt9emZmZkaj8jGWVUzyGnpojAahsZpk68sWsoY8h84ORSLodTro/L2hffUEBq0WotIMJFfCKvQZVGWqQ1HGDYLKXNpHe8sDyqpNIHzg7D2lpK8XRQRGafAqIh6at4/eERGOtuyC6t/0AswtUOGr9sAHZnhSyARYKOUwV8kRqzEgRpv4BclMIYOjjTms1IrEM3RpmN7El0Keu29uS01kZCQePnyIJ0+e4NKlS9i/fz8iIiLw559/4ttvv81wvYGBgQgODkZsbCxiY2MRFxcn/fzuKy4uDk5OTqhevTrc3NyQP39+Ka5z587hjz/+wIULFwAAvXr1wpYtW4ze5xMnTuD8+fOIiorCkiVLjGLw9/eHo6NjhtvAGPs0+Ka49xARvENjIFLyu6yL57eAhSrnOyWICGKAN3SPr0AM9vtvg0IJRcmqULjUhMwyH+L2LITcvjhUdTpCUKT/hj6RCMHRGrx4EweNXkTh+AjYFnVEnM6AOL3xm6OUCbA1V8JCpYCFUg7lOzfJPQ2JhoEIDtZmsM1jZ9ofc+PGDcyYMQOHDx+GXp/4paVs2bLo2LEjBg8eDBcXl3TX+fz5c/z11184cOAAnjx5kmo5c3NzWFpawtLSEubm5vDz80NcXBwAwN7eHvny5YO3tzcMBgOcnJzw888/o0uXLihatOgHPwNRFBEVFYWwsDBYWVnxXdSM5RGc0N+j0Sc+/mWlVuJpSDQAwM5KjXitHpYqBQq899x3TjOEB0D/6AoMrx5B6pMXBMiLusIQ4A3otZAVcIS6QTcIZhm71kZEePkmDv7Xb6NYjcqIiEmAoE4chEYmALZmSthbm6WYJESREB6vRQELVa6fhCa9Xr16hWLFigEAlixZggYNGqBs2bIZfuwrMjISs2bNwqJFi2BjY4MuXbqgWbNmKF68uJS4k14WFhbJLk8YDAY8ffoUN2/ehLe3N8LDw1G+fHk0b94cpUqVynR7GWO5Gyf0VOgMIrxDYwAknpmbK+XQiQRVFo/2llXEmAjon1yD3ucOoNcl2y5Y5oO6YXfIbApm+Bi7JvyBR+euoOe+dcZ1A7AxVyJ/GkeGMxV6vR41atSAubm5dKd4Ru3atQvfffcdYmNjMX78eIwZMybbngdnjJkmTugA4rR6vInTQiYT3j4bLcAginjzdgAXRxszqBRyyN9OeZo0zGhOSu2GN9LEQ//sBnT3/02+k8oM6vpfQV6oWIaOeWXzXihsbZC/bq1UB32xMVMin7kKKsXnkdiTphbdsWNHpm5UcnV1hUqlwtGjR+Hk5JSFEWaP8+fPY8OGDXBzc0O7du1QokQJk7qUwlhexAkdickxMCoBkQnJz2zfZ2umRCErdY6diZJeB31sJOSWtpC9d12ciEAJsdB47geF+KVcgUwOVe0OUBQvn/L2D4gKCoG1vR20BhH+kfEwiARHG3PEafWIStAZjVBnqVIgv8V/I8MliX176cJUJI1T7u3tjefPn6NkyeTP63/MzZs30aBBA/z444+YPXt2NkSZ9YoXL46XL19CoVBAr9fDyckJjRs3hru7O+rWrYsqVarA3Nz84xUxxrJMZvNqrj0NS+v3DF3SI2ofObkwV8rhXMASjrbmOZLMSTRAH/MGuoggkF4LQa4AkQhRp4EhLgq6qFDowgOgfX4HUKog5C8MpHTNXDRA67kPukeX0/weJbEpXAiCIECtkKNoPgso5QIUMgGFrM3gXNAS+S1USHoIIFarx6uIOLyOiEOcVi9NwLL/fmAWvBu5h0KhwMyZM1GsWDE0b94cISEhH92HiPDq1Svs2bMHffr0Qa1atVC+fHn8+uuvnyDizCMivHz5EgBw8eJFHDx4EF27dsXz588xfvx41KlTB3379sWzZ88giiJu3ryJiIiInA2aMfZRufYMXa9JgEJtZrSOiKAziIl3aWsNiNfpP/rctFwQYG+thk0O3Z1NRBDjY2CIj3rnpjcZBLkclMK18iSCXAlBqUosq0sAxUWDYiNAMRGgmDcQYyIgdywNZZXGH3ys7UMMYuKz8e9+wRFFQmSCFhFxOqOR7NQKGaIS9Nh4/RXmdqiYoePlZi9evECtWrVARGjUqBEKFSqEQoUKwc7ODmq1Gps3b8bdu3cRGxsLURSlL1Ourq749ttvMWzYMJiZmX3kKLlH0oxx3t7eqF27NoYOHQpnZ2c8ePAAJ0+exMGDB2FtbY1ffvkFkyZNAgD88ssvqFu3Ljp06MDPtTOWDUyyy51EEdqYSCitbKE1UOKgJ9rE0csMqVz8VcllEARIw70KAApYqlDQQp2lI5Oldu37faIoQpsQj4SEBKhEDRQQUy8sCBAUKsiUaggKVeIrDUmaiACiDCf0DxGJEJ2gw5s4rTQyXGFLBQQkDllra2l6N3y9evUKf/75J+7evYvQ0FCEhIQgJCQEGo0G9evXx5dffgkrKyvIZDI4OTmhcuXKcHZ2zumwMywmJga7du3CunXrcP78+WTbbW1tsXv3bjRv3txo/c2bN+Hm5vapwmTss2GSCV2viYd/lAYJJEv15i0zhQzmb5+ZNlfJoZDJ4B8ZL035aW9llqU3dhER4rR6aPQGFLBMfiZmEAlavQFa/dspQ0URSdcBLMU4WJDxQDeCUg2Z2gIyhQqQ595xzZNGvguMioeTdeI1/8g4PRwLfuqR8XMGEUGv16c6FampiI6OxoULF9CnTx+0aNECEydOhIODA+zt7fH8+XMsXLgQL168QL9+/dCtW7dc+/vKWF5mcgmdiKCNiURAApAgJiZkAYCZUg4LlRwWSgXMlPIUR3x7FRGH/OaJE39kJY3OgIh4LfQGEdZmSlibKROHbX2bwLV6g9EY7e81CBaUAEtKMF4vV0Bpa58tZ9fZYfG/3mhQ3AZmChniSI4aRfPlSBzbtm1DfHw8WrdujXXr1sHb2xszZsxAkfeGtmWMsbzG5GZbI4MOIBHWcgEWSgFWFuYwU6Y+d7m0HxGcbM2z9MwhaW7whHcmdknQGRCr0aXacyAXBCgVMqgUMqhkgEIgCKQAyAJEIiCK0v9FbRzkZlZZFm928X0TB6+gGHgFJT7X37GSwyePITo6Gh07dsSZM2eSbatbty4GDx78yWNijLHcJNcldIM2sWvaSkEQZCJUaXxEKi2JPK3Xvw16PeJjIqHTaJCgMp5eVGcwvhaulL9N3go5VAoZFHnkjDs9TjwKNloOidGmUjJjiAhXrlyBn58fSpcujVKlSkljmSfZtGlTisl86NCh+Oab5LPGMcbY5yZXZR8SRYjv3PlNoiHdj2alXK8BYkQAkBCd8na9FmJsBAzhr6HzfwIEeME82h/W2jAIlPxmNmszJQpamcExnwXsbcyRz0INC5XCJJN5YFQCbr2ONFoXEpN84puMuHXrFmbNmgVXV1fUrVsXPXr0gLu7OxwdHfHs2TNcuXJFKluzZk3069cvWR0rV66ETJY4d/ygQYOyJC7GGMuLclUGMuiSJwoSMz7tKRFBjAmHGPAEFB0KqMwTB2/RJUCMCYMY9hIG/0cQAx6Dwl8CseGQGf6LQRTkkIvJ5wMHkKbLAKbgxJNgvP+VKjgLEvqKFStQvXp1zJkzB9WrV8fp06cRFhaGSZMmQaPRoHr16qhTpw4qVqyI2bNnw93dHRs2bJAGO9m7dy927txpVOf58+chih94moAxxkxYrrkpLulmOLx3Rqwws4Bclf7ne0kTC/GNP6B7ezOaIABqK0AbB6T2JUGhBtSWgMocotIColyZ+KVAxNvZ2xJfRIln6aY+7nl4nBaTjnpBKZNJ07Am+bNTJagVGXsW+eHDh6hYsSIaN26MkydPQqH477KKKIpYtmwZRo8eLc1+BgAdOnSAmZkZfHx8cP36deTLl08a7KR8+fJYv349qlatCrXaePIdrVaL8+fP48WLFzh06BAcHR3RsmVLuLq6YsaMGfD09MTChQvRuXPnDLWFMcayisncFJd0M9z7RIMB6Ukbok4DMSIAwvvd60TvdbkLgMocgtoCgtoSUFlAkP/3dvCwGYkJfUT9UpDJBPzvnDcAoI2rPU4/DUVIjBZF82VsaNDHjx8DAEJCQhAbGwtb2//uU5DJZPjhhx8QGRkpDWgCAAcPHkw8fps2AICIiAhYWVkhKCgId+/exf379/Hvv/8iMvK/ywM1a9bErFmzjLrugcTegSSCIGDixImc0BljeV6uSegGnRYypRqgt9fRBQGCIINo0EOn00GhSPlZ7cQzaBGiQQ9Eh0KIewMhWSfxWwo1BIt8ENQWiQncBK95Z6Uydol34F/yCQMAyASgXQUH1ClRINUBftKiU6dO2Lp1K3r16oWuXbti0KBBmDdvHhwcHODu7o43b95g+fLlACB9W1UoFBg0aBCWL18OLy8vhIeHo169ehgxYgT++uuvVI9VoEABo2VBEIzuyyAifP/99xluC2OM5Ra5JqErzCwhCAJ08YmPRkEmh0xlDr1eD1EUpWT+XwI3JA7BKYoQtDGQx4ZBSOV6t0TUQ7DMB0GhyubWmJagaE3iJRH/Z0iIL4OE8DBER0ejcPnyyeb0TpI0PGpKQ4QKgoAePXpgw4YNOHbsGDw8PAAA5ubmmDVrFgBg/vz5cHBwgJ+fH2rUqIEvvvgCVlaJXzAqVaok1TVlyhSo1WqUKVMGOp0OsbGxOH36NE6fPg0HBweMGjUK/fv3h4+PD6Kjo3Hnzh2UKFEC5ubm0Gg0KFGiBGrUqJHVbxljjH1yueYaehJdXDQMBgMgVyVe9waku5jfHUNbQvS2q16EDIAMBAGUeHc6iYnXy0URIANINCQOq2rrwCNdfQAR4fHjxwgICEC5cuUwa9VWnN67FY/v3jQqV6JECaxduxZNmjQxWn/q1CkMHDgQVatWxaFDh6DRaKBSqeDv748lS5YgODgYJUuWRNeuXXH58mXUqVMHFSpUAAD89ddfKFiwILp3757h+A0GA27fvg03N7dUv3AwxlhuY1IjxREREmJjQTLZR+8gFwQBMpksMdm/TficpDMu6Zq1VqvFgwcPcOHCBWmbIAho0rQZTnucAgCMGzcOTZs2RatWrQAkXgu3s7MDAAQFBaFChQoIDw8HAHz99dfYvn07GjRogAYNGmDatGlGx/Xz80OxYhmb350xxkyJSdwUR0Qw6PXQ6/WIFwXoDQRLBYyGd303gcvkck7eWejAgQMYMWIEwsPD4ezsDFtbW+zZswcVKlTAhQsXUMPdHa7lKyAsJBjPnz9H/fr1sWXLFgBAs2bNjM6CBwwYgPDwcLRp0wZHjx7FuXPn0LBhQ3h4eODevXto3rw5nj9/DiJCixYt4OjomFPNZowxk5KjCT3perhep5O60mUCIJDU2y6Ry+VQmPgEGTlhz5496Nq1K9q2bYvFixejdOnSRttdXFykn52cnODk5AQAePDgAQCgXr16UKvVWLFiBcaNG4eoqChMmzYNkydPxqZNm1CoUCHs2bMHHh4eCAkJwdatW6WzecYYY1kn58/QiSBXKAAiEABLOb1dbfx/vcEAQSbjeZiz0OjRo7FkyRJ07doVO3fuTFevR1Jinz59OqZPnw4AaN68OeLi4jB48GCcP38+2chuq1evBhHh7t27ePHiBcqVKwdXV9esaxBjjH3GcjShC4KQmMxZjti+fTv0ej1iYmLg7+8vJem0GDhwICZOnIioqCiULFkS69evR8OGDXHkyBGpnkKFCmH69OmQy+VQq9VYsGCB0SQqFSpUkM70GWOMZQ5n08/Y7Nmz8fvvv+P48ePo2bMnzp07ByLCy5cvYW9vDwsLi1T3tbS0xPHjx/Hs2TPIZDI0atTIaPv333+PqlWrQqfTYfjw4dL68uXLw8vLCwCwbNmy7GkYY4x9hnLVXe7s0yMijB8/HvPmzYObmxtevXqFkJAQKBQKNGrUCE2aNEG3bt1Qrly5VOto3bo1jh8/DgDIly8f4uPj4eDgAF9fX6NySqUSOl3i5DulSpWCl5cXVCoeE4AxxoDM51V+SPczJwgC5s6dKyVkBwcHtG3bFgULFsS5c+cwZ84cuLi4SI8FCoJgNHTq0aNHpX2BxMffNBpNsmQOQErm/fr1w927dzmZM8ZYFuKEzgAA//zzD27duoV79+7hxIkT0L99jLBv377Jyvr7+0s/vz9HecuWLfHkyRPUrl0bv/zyi9QVn/R42o8//ohVq1bB0tIyG1vDGGOfH+5y/8wREeLj42FtbQ1LS0vs3r0bTZs2hUwmw9ixY7Fw4UKprJ2dHW7cuIHixYtL63Q6HQYMGIAyZcrgwIEDqFChAv755x+jY+TLlw/bt29H3bp1YW1t/cnaxhhjeYlJjRTHPq0//vgDkydPhkKhQExMjLT+yZMnKFu2LO7du4cqVapI61P6VQkKCoKDg0Oy9WPHjsXQoUNha2uLQoUK8UBAjDH2EXwN3cQkJc2wsDDEx8dn67EWLVoEKysrjBs3TlpXsWJFJCQkziFfqVIl7N+/H76+vti+fbsUm6enJ+RyObZu3Wo05vqdO3cQHBwMIsIff/yBsmXLwt7enpM5Y4x9AvzYWg4iIjx9+hTXr19HcHAwnj59ii1btiA+Ph5arRbFihXDypUr0apVq2xJipUrV8axY8fw/Plz/PXXX4iJiYFCocC9e/dQsWJFyGQyfPnll1i3bh0GDRqEixcvokWLFlixYgVEUUTv3r0BACNHjoSPjw8KFy6MQoUKZXmcjDHGPo673HPIv//+i7Fjx+Lq1asAEqcOLVq0KL788kuUKFEC8fHxOHr0KM6cOQMnJyfY2toiNjYWdnZ2mDNnDpo3b56p42/YsAEDBgxIdfupU6fQrFkzAMCRI0fQrl27VMvy7wBjjGWeSUzO8rkgIpw4cQL79u3DypUrUbNmTezZswdNmzaFra1tsvJjx47F8ePHcf78ecTFxcHMzAxz587NcEI/fvw4oqOjUbduXWi1Wml9yZIlERMTgxIlSqBZs2Zwd3dHvXr1sH79esTFxaF79+4oVqwYXr58aVTf+vXr0a5dO07mjDGWG1AGRUZGEgCKjIzMaBWfnZ9//pkAULFixWjmzJmk1+vTvG9gYCB98cUXJJPJ6J9//vloeS8vL/L19SVfX1/y8/OjMWPGEIBkr9WrV0v1z5gxg1q1apViuaTX999/T4cPH6Zp06ZRQkJCht8LxhhjxjKbV7nL/RO5cOECGjRogHnz5mHs2LHpvibes2dPbN++HWfPnk02zCqQePYfGRkJURQxcOBAHDhwIMV6Ll++jNevXyM+Ph6+vr64ceMGnj9/jnv37kGlUhndiNe0aVMMHjwYP/74I5o3b47Y2FhMnz4dVatWTV/jGWOMfRR3uecRSeOXd+zYMd3JXKPRSF3yBQsWBACcPHkSixcvRkhICCwtLXHnzh2EhYVJ+6jVavzzzz+YM2eO1KVeunRp7Nu3D5cuXcLNmzcRExODWrVqoWrVqhgwYAA6deqEoKAghIaGon79+lJdbdu2NYo5Kioqw+8DY4yZOpVKBTMzs09/4JzqGvicaDQaGjZsGAGgmzdvpmmf4OBgWrRoEfXu3ZsKFChAAKhJkyZ08eJFatGiBQGgmjVr0sCBA6l8+fJUrlw5at68Of36668EgEaMGEG+vr5kAfkHu9D5xS9+8YtfWftycHCg+Pj4dOcK7nLPA5K62wGgbt26OHToEAoUKJBi2Xv37mHRokXYvHkziAju7u6oX78++vbti1mzZmHbtm0oXbo05s+fn+rZPhGhYcOGuHDhAgCgH5ygggxyQYBMAORv95Gn8HNSbXJBeLsOycom1fH+tqSZ6mXSvsmPIxMECHIBMmlnGQTZf8uCTAaZPLEMAKOygiBAJpe9t00mBZlYd+LQCkl1/LeMxOPIZNK+glwGQZa0XQa8LSvIEtcn7SvIZZC9tywI7/wslyXuj8RjJK1LjFkGQS433lf27s/Cf8syeWKg0vb3lmUyQHj7LsvkicuypGXZ2/Kyd7a/3SbI3tYte6/se3Ul1S0IwNv2kSBL/Dnp90wm+2/d27ohyEBJ298tK6Rc9r+6hXe2Cf+Vl/YVkPTXSSQCARDfLhOR9DPerk/6UyYCIHqv7Nty9E5dSfuBAPHtmqT9pOOCjGIwiIn/T1oWCTCI72x/51gGkaSYDJS0P71T9p26xP/aI9XzdoXhnXVJZQ3if3UZRLzzc+J+SWWTyunf254Y0/v1EAwk/rddJOjfq1uK/+3P9E5MRAR6ZzuJMN7+XwMTP4O320gkiO+UJRFSDPR2P/Gdsu8eJ+nn/8obQKLh7c8iyGAAkcFo27vbRaNlA2B4+zMZEvd/t653yoqiAfT2g08s+049ugToH+7IUG7kLvdcZv/+/bh//z66du2KMmXK4PDhwzh//jzmzZuHWbNmwdPTE+vXr8fo0aMBACEhIXj16hXu3r2LjRs34vTp03BycsKUKVMwZMgQ2NnZAQBiY2Nx8OBBAImPuJ0/fx5PnjxBlSpVUKVKFfz222+Ij49HsWLFcP78eVy5cgX29vYIDg6GCjKoBNk7STr1hJ400lBayiZL6MLH95UJwtvE+l8CN0rayRK67J1tKSf0pGWZ7EMJXZD2T9r3/YT+ftIV5PL/Yng/ob+blI0Susw4octkkH0oob+7nGpCl0t1JUvC7y6nltBlsv/qTlpOKaG/8wUg/Qn93eX3ErrMuGyyuoFMJfSk9WlK6JQ8oVMGE7qBSFonbX8nLsM7iSgtCd2QWkIn44SelFhTSrSpbZOnVDalhC6K0rJMJAgiQfbOsuydsoL4XgJPY0InkSDQe8siGSV04b2ELpDxspTAk+pJMaEbEhO6mFpCNwDvl5cZ3n4Ihv9eiQ0wWhZEAyC8U1b4bzmpvpzACT2LhIeHY/ny5Zg8eTKICL/99pv0qNe704YCQIsWLTBu3DgcOnQIDx8+lNbXrVsXW7duRdeuXaFUKo3qt7S0RHR0NE6cOIFVq1bh0KFDCAkJQUREBACgUKFCcHV1xaVLl+Dn54fp06fjxx9/TPFxOMYYY6aHE3omiaKInTt3YvDgwdDpdPjuu+/w+++/Y+/evfj333/Rt29fODs7Y8GCBahbty7Kly+PTp064fnz5xg8eDB+++03lC1bFqVLl0b+/Pk/eCxBENCqVSu0atUKQOK308mTJ8Pf3x9TpkxB8eLFQUS4fv063NzcEBcX9yneAsYYY7kAX0PPhNDQULRo0QK3b9/GV199hWXLlsHe3j7V8v7+/ujSpQuuXLmCJUuW4IcffsjW+JI+I76GztfQ+Rr625+RvMudr6HzNfSk7XwN/TM2fPhwvHr1CmfOnEGjRo0++jjaTz/9hCtXrmDu3LnZnsyBxEcnHBwcsDHwdeKKt3+8GGOMZR8HBweoVKpPflxO6Jlw+vRp9OrVC40bN/5gOZ1OhwkTJmDHjh3o0KEDfv75508Sn5mZGXx8fIyGeY2KipKu7Ztqz4qpt9HU2wdwG02BqbcPSL2NOfUcOif0TOjSpQtWr16NCRMmoEiRIqmWGzlyJFavXo3ff/8dY8aM+aTTiZqZmaX4i2VjY2Oy/8iSmHobTb19ALfRFJh6+4Dc00aTSuh37tzB4cOHYWZmhl69esHR0TFbjmMwGBAVFQU/Pz/I5XLI5XKj7bdu3cK1a9dw9OhRPHjwAE+fPsXq1avxzTffZEs8jDHGmMkk9ISEBNSoUQOGtzc1nDlzRnpuO6sNGjQIGzduhEqlwsGDB1G4cGEAwOvXrzFp0iSsW7cOgiDAwcEBNWvWxIwZM9CjR49siYUxxhgDII0jkue9evUKBoMBnTt3BoBs7dY+evQoqlatitu3b8Pe3h5Hjx7FsGHDULRoUezbtw8rVqyAVquFv78/9u/fn6uSuVqtxpQpU6BWq3M6lGxj6m009fYB3EZTYOrtA3JfG/PEY2sxMTGQyWSwsLBItYy3tzfKlCkDIHGWsGPHjiUbnCUztmzZguXLl4OI4OnpiVmzZuHGjRvYs2ePVMbW1hZ+fn654loKY4yxvCWzeTXXn6H/+OOPsLGxQYECBVCsWDH06tUL0dHR0nYigiiKiIuLw4oVK7Bw4UIcOHAgS5O5TqfDwIEDERcXB19fXwDAxIkTpWTeu3dvvH79GkFBQZzMGWOM5YhcfYZORLC1tUVMTAzq16+Pf//9FwBw5MgRVKhQAefOncPo0aONpg1VKBRYuXIlvv7660wn9adPn2LkyJE4duyY0fqksdOTHgvr168f8uXLl6ljMcYY+7yZ9MAygiDgn3/+wejRo/Hvv//CxsYGBoMBbdu2lcpUqFABs2bNgo2NDaysrLB//34MGjQI4eHhGDNmTIaOS0QYNmwYVq1aZbR+1qxZqFevHurVqweFIle/dYwxxj4zuTYrxcXF4fz581Cr1bh8+TKICBMmTMDKlSvx1Vdf4cmTJ7h79y4ePnyIn376CdWqVUPXrl0RHx8PAJm6SSEoKMgomd+6dQvVqlXLbJMYY4yx7JOhWdQp8xOxf4yrq2vSQKUEgGrVqkX37t2jTp06EQAqXLgwfffdd3TixAlauHAhdevWjRQKBQGgatWqkV6vz9Txo6OjSRTFLGpNzpo5cybVrVuXzM3NydbWNk379O/f3+j9B0C1a9fO3kAzKCPtE0WRpkyZQo6OjmRmZkaNGjWi+/fvZ2+gmRAeHk5ff/012djYkI2NDX399df05s2bD+6T2z/DZcuWUYkSJUitVlP16tXp/PnzHyx/9uxZql69OqnVaipZsiT99ddfnyjSjElP+86cOZPsswJAXl5enzDi9Dl37hy1b9+eHB0dCQDt3bv3o/vkpc8wve3Lis8ws3k1194UFx4eDgAYPHgwAODq1au4f/8+9u7di9DQUAQEBGDZsmVo0aIFfvrpJ+zYsQOXL1/G9OnTsX///mSDvaSXlZXVJx3RLTtptVp069YNw4cPT9d+rVu3RkBAgPQ6cuRINkWYORlp37x587Bw4UIsXboU165dg4ODA1q0aGF0w2Vu0rt3b9y+fRvHjh3DsWPHcPv2bfTt2/ej++XWz3D79u0YNWoUJk6ciFu3bqFBgwZo06YN/Pz8Uizv4+ODtm3bokGDBrh16xYmTJiAkSNHYvfu3Z848rRJb/uSPH782OjzKlu27CeKOP1iY2NRtWpVLF26NE3l89pnmN72JcnRzzBDXwPS8E0iISGBbt68SQMHDqRhw4bRqlWrKDg4OM31u7u7k62tLeXLl4+KFy9OrVu3zrbegM/FunXr0nWG3rFjx2yNJ6ultX2iKJKDgwPNmTNHWpeQkEC2tra0YsWKbIwwYx4+fEgA6PLly9I6T09PAkCPHj1Kdb/c/BnWqlWLvv32W6N1rq6uNH78+BTL//LLL+Tq6mq0btiwYVSnTp1sizEz0tu+pLO7j/W65FZIwxlsXvsM35WW9mXFZ5grz9AvXbqEggULonr16jhx4gQuXbqE4cOHw97eHvv27UtTHdeuXUNERATevHkDX19fHD16lB8J+8TOnj0Le3t7lCtXDkOGDEFwcHBOh5QlfHx8EBgYiJYtW0rr1Go1GjVqhEuXLuVgZCnz9PSEra0tateuLa2rU6cObG1tPxpvbvwMtVotbty4YfT+A0DLli1TbY+np2ey8q1atcL169eh0+myLdaMyEj7kri5ucHR0RHNmjXDmTNnsjPMTy4vfYaZkZOfYZYmdJ1Oh1mzZqFJkyYoXrw49u/fj8ePH+Pu3btSIg8JCcnKQ7Js0qZNG2zZsgWnT5/GggULcO3aNTRt2hQajSanQ8u0wMBAAJCG7E1SuHBhaVtuEhgYCHt7+2Tr7e3tPxhvbv0MQ0NDYTAY0vX+BwYGplher9cjNDQ022LNiIy0z9HREStXrsTu3buxZ88euLi4oFmzZjh//vynCPmTyEufYUbkhs8wy+5yJyIMHjwYW7ZswS+//ILevXtj06ZNePjwIWxsbDB9+nTUqlUL/fr1y6pDftamTp2KadOmfbDMtWvX4O7unqH63x2utlKlSnB3d4ezszMOHz6MLl26ZKjO9Mju9gHJhwcmok9630Ra2wikPJTxx+LN6c/wY9L7/qdUPqX1uUV62ufi4gIXFxdpuW7dunj58iXmz5+Phg0bZmucn1Je+wzTIzd8hlmW0F+/fo2NGzeid+/eiIuLQ5UqVZA/f34kJCQgISEBbdu2xerVq3PNmLd53Q8//ICePXt+sEyJEiWy7HiOjo5wdnbG06dPs6zOD8nO9jk4OABIPGN4d0a+4ODgZGcQ2Smtbbx79y6CgoKSbQsJCUlXvJ/6M0yNnZ0d5HJ5srPVD73/Dg4OKZZXKBQoWLBgtsWaERlpX0rq1KmDzZs3Z3V4OSYvfYZZ5VN/hlmW0JP+MP7zzz+Qy+WYP38+hg8fDrVaDa1WmyOTvZsyOzs72NnZfbLjhYWF4eXLl9k2Je37srN9JUuWhIODA06ePAk3NzcAidc9z507h7lz52bLMVOS1jbWrVsXkZGRuHr1KmrVqgUAuHLlCiIjI/HFF1+k+Xif+jNMjUqlQo0aNXDy5ElpMiUAOHnyJDp27JjiPnXr1k02e+KJEyfg7u6epcM8Z4WMtC8lt27dyvHPKivlpc8wq3zyzzAr78aLiIigHTt20PXr1zNaLcsGvr6+dOvWLZo2bRpZWVnRrVu36NatWxQdHS2VcXFxoT179hBR4jP4Y8aMoUuXLpGPjw+dOXOG6tatS05OThQVFZVTzUhVettHRDRnzhyytbWlPXv20L1796hXr17k6OiYK9tHRNS6dWuqUqUKeXp6kqenJ1WuXJnat29vVCYvfYbbtm0jpVJJa9asoYcPH9KoUaPI0tKSXrx4QURE48ePp759+0rlnz9/ThYWFvTTTz/Rw4cPac2aNaRUKmnXrl051YQPSm/7/ve//9HevXvpyZMndP/+fRo/fjwBoN27d+dUEz4qOjpa+rcGgBYuXEi3bt0iX19fIsr7n2F625cVn2Fm73LPtQPLsKyT0gAjAOjMmTNSGQC0bt06IiKKi4ujli1bUqFChUipVFLx4sWpf//+5OfnlzMN+Ij0to/ov4FlHBwcSK1WU8OGDenevXufPvg0CgsLoz59+pC1tTVZW1tTnz59kj0ek9c+w2XLlpGzszOpVCqqXr06nTt3TtrWv39/atSokVH5s2fPkpubG6lUKipRokSuHpSEKH3tmzt3LpUuXZrMzMwof/78VL9+fTp8+HAORJ12qQ2k0r9/fyLK+59hetuXFZ9hZvNqrp6chTHGGPtcmPz0qYwxxhj7OE7ojDHGmAnghM4YY4yZAE7ojDHGmAnghM4YY4yZAE7ojDHGmAnghM4YY4yZAE7ojDHGmAnghM4YY4yZAE7ojDHGmAnghM4YY4yZAE7ojDHGmAnI9HzoUVFRWREHY4wx9lnLbD7NcEJXqVRwcHBAsWLFMhUAY4wxxhI5ODhApVJlaN8MT58KAAkJCdBqtRndnTHGGGPvUKlUMDMzy9C+mUrojDHGGMsd+KY4xhhjzARwQmeMMcZMACd0xhhjzARwQmeMMcZMACd0xhhjzARwQmeMMcZMACd0xhhjzARwQmeMMcZMACd0xhhjzARwQmeMMcZMACd0xhhjzARwQmeMMcZMACd0xhhjzARwQmeMMcZMACd0xhhjzARwQmeMMcZMACd0xhhjzARwQmeMMcZMACd0xhhjzARwQmeMMcZMACd0xhhjzARwQmeMMcZMACd0xhhjzARwQmeMMcZMACd0xhhjzARwQmeMMcZMACd0xhhjzARwQmeMMcZMACd0xhhjzARwQmeMMcZMACd0xhhjzARwQmeMMcZMACd0xhhjzARwQmeMMcZMACd0xhhjzARwQmeMMcZMACd0xhhjzARwQmeMMcZMACd0xhhjzARwQmeMMcZMwP8BZmvygxA1nVAAAAAASUVORK5CYII=;" vertex="1" parent="1">
          <mxGeometry x="-40" y="320" width="500" height="300" as="geometry" />
        </mxCell>
      </root>
    </mxGraphModel>
  </diagram>
</mxfile>
